<svg width="24" height="24" viewBox="0 0 24 24" fill="none" xmlns="http://www.w3.org/2000/svg">
<path opacity="0.1" d="M5.97496 13.6483C5.38903 14.2343 5.06793 15.0101 5.06793 15.8374C5.06793 16.6647 5.39137 17.4429 5.97496 18.0265C6.5609 18.6124 7.33668 18.9335 8.16403 18.9335C8.99137 18.9335 9.76949 18.6101 10.3531 18.0265L11.7453 16.6343L7.36715 12.2562L5.97496 13.6483ZM15.8375 5.06787C15.0101 5.06787 14.232 5.39131 13.6484 5.9749L12.2562 7.36709L16.6343 11.7452L18.0265 10.353C18.6101 9.76709 18.9336 8.99131 18.9336 8.16396C18.9336 7.33662 18.6101 6.5585 18.0265 5.9749C17.4406 5.38896 16.6648 5.06787 15.8375 5.06787Z" fill="#397DFF"/>
<path d="M13.5678 12.8136C13.5325 12.7787 13.4849 12.7592 13.4354 12.7592C13.3858 12.7592 13.3382 12.7787 13.3029 12.8136L11.742 14.3746L9.62559 12.2582L11.1889 10.6949C11.2615 10.6222 11.2615 10.5027 11.1889 10.43L10.3357 9.5769C10.3005 9.54201 10.2529 9.52244 10.2033 9.52244C10.1537 9.52244 10.1061 9.54201 10.0709 9.5769L8.50762 11.1402L7.49981 10.1324C7.48231 10.1149 7.46146 10.1011 7.4385 10.0918C7.41555 10.0825 7.39096 10.078 7.36621 10.0785C7.31934 10.0785 7.27012 10.0972 7.23262 10.1324L4.84668 12.5207C3.97208 13.393 3.4783 14.576 3.47324 15.8113C3.46856 16.7371 3.73574 17.6652 4.27715 18.4621L2.49356 20.2457C2.45866 20.2809 2.43909 20.3285 2.43909 20.3781C2.43909 20.4277 2.45866 20.4753 2.49356 20.5105L3.48731 21.5042C3.52481 21.5417 3.57168 21.5582 3.6209 21.5582C3.67012 21.5582 3.71699 21.5394 3.75449 21.5042L5.53809 19.7207C6.32793 20.2574 7.24668 20.5246 8.16543 20.5246C9.36543 20.5246 10.5654 20.0675 11.4818 19.1511L13.8701 16.7628C13.9428 16.6902 13.9428 16.5707 13.8701 16.498L12.8623 15.4902L14.4256 13.9269C14.4982 13.8542 14.4982 13.7347 14.4256 13.6621L13.5678 12.8136ZM10.3521 18.0261C10.0653 18.3144 9.72414 18.5431 9.3484 18.6987C8.97267 18.8544 8.5698 18.9341 8.16309 18.9332C7.33574 18.9332 6.55996 18.6121 5.97402 18.0261C5.39043 17.4425 5.06699 16.6644 5.06699 15.8371C5.06699 15.0097 5.38809 14.2339 5.97402 13.648L7.36621 12.2558L11.7443 16.6339L10.3521 18.0261ZM21.5084 3.48784L20.5146 2.49409C20.4771 2.45659 20.4303 2.44019 20.3811 2.44019C20.3318 2.44019 20.285 2.45894 20.2475 2.49409L18.4639 4.27769C17.6885 3.75234 16.7731 3.47225 15.8365 3.47378C14.6365 3.47378 13.4365 3.93081 12.5201 4.84722L10.1318 7.2355C10.0969 7.27074 10.0774 7.31833 10.0774 7.36792C10.0774 7.41751 10.0969 7.4651 10.1318 7.50034L16.4998 13.8683C16.5373 13.9058 16.5842 13.9222 16.6334 13.9222C16.6803 13.9222 16.7295 13.9035 16.767 13.8683L19.1553 11.48C20.7701 9.86284 20.96 7.36206 19.7248 5.53862L21.5084 3.75503C21.5811 3.68003 21.5811 3.5605 21.5084 3.48784ZM18.0256 10.3527L16.6334 11.7449L12.2553 7.36675L13.6475 5.97456C14.2311 5.39097 15.0092 5.06753 15.8365 5.06753C16.6639 5.06753 17.4396 5.38862 18.0256 5.97456C18.6092 6.55815 18.9326 7.33628 18.9326 8.16362C18.9326 8.99097 18.6092 9.76675 18.0256 10.3527Z" fill="#397DFF"/>
</svg>
