<svg width="24" height="24" viewBox="0 0 24 24" fill="none" xmlns="http://www.w3.org/2000/svg">
<path d="M20.3428 12.7842L12.5639 3.8194C12.4936 3.73828 12.4067 3.67323 12.309 3.62864C12.2113 3.58405 12.1052 3.56097 11.9979 3.56097C11.8905 3.56097 11.7844 3.58405 11.6868 3.62864C11.5891 3.67323 11.5022 3.73828 11.4319 3.8194L3.65531 12.7842C3.63181 12.8113 3.61658 12.8445 3.61142 12.8799C3.60626 12.9153 3.61139 12.9515 3.62621 12.9841C3.64103 13.0167 3.66491 13.0444 3.695 13.0638C3.72509 13.0832 3.76013 13.0936 3.79594 13.0936H5.69437C5.80219 13.0936 5.90531 13.0467 5.97797 12.9647L11.1084 7.05143V20.2491C11.1084 20.3522 11.1928 20.4366 11.2959 20.4366H12.7022C12.8053 20.4366 12.8897 20.3522 12.8897 20.2491V7.05143L18.0202 12.9647C18.0905 13.0467 18.1936 13.0936 18.3037 13.0936H20.2022C20.3616 13.0936 20.4483 12.9061 20.3428 12.7842Z" fill="#282A3C" fill-opacity="0.45"/>
</svg>
