<svg width="24" height="24" viewBox="0 0 24 24" fill="none" xmlns="http://www.w3.org/2000/svg">
<path fill-rule="evenodd" clip-rule="evenodd" d="M11.6173 4.07615C11.991 3.92137 12.4211 4.00692 12.7071 4.29292L19.7071 11.2929C20.0976 11.6834 20.0976 12.3166 19.7071 12.7071L12.7071 19.7071C12.4211 19.9931 11.991 20.0787 11.6173 19.9239C11.2436 19.7691 11 19.4045 11 19V16H9C8.44772 16 8 15.5523 8 15V9.00003C8 8.44774 8.44772 8.00003 9 8.00003H11V5.00003C11 4.59557 11.2436 4.23093 11.6173 4.07615ZM13 7.41424V9.00003C13 9.55231 12.5523 10 12 10H10V14H12C12.5523 14 13 14.4477 13 15V16.5858L17.5858 12L13 7.41424ZM5 8.00003C5.55228 8.00003 6 8.44774 6 9.00003V15C6 15.5523 5.55228 16 5 16C4.44772 16 4 15.5523 4 15V9.00003C4 8.44774 4.44772 8.00003 5 8.00003Z" fill="#393B55"/>
</svg>
