<svg width="24" height="24" viewBox="0 0 24 24" fill="none" xmlns="http://www.w3.org/2000/svg">
<path fill-rule="evenodd" clip-rule="evenodd" d="M12 1C5.92472 1 1 5.92472 1 12C1 18.0753 5.92472 23 12 23C18.0753 23 23 18.0753 23 12C23 5.92472 18.0753 1 12 1ZM3 12C3 7.02928 7.02928 3 12 3C16.9707 3 21 7.02928 21 12C21 16.9707 16.9707 21 12 21C7.02928 21 3 16.9707 3 12ZM12.7071 8.70711C13.0976 8.31658 13.0976 7.68342 12.7071 7.29289C12.3166 6.90237 11.6834 6.90237 11.2929 7.29289L7.29289 11.2929C6.90237 11.6834 6.90237 12.3166 7.29289 12.7071L11.2929 16.7071C11.6834 17.0976 12.3166 17.0976 12.7071 16.7071C13.0976 16.3166 13.0976 15.6834 12.7071 15.2929L10.4142 13H16C16.5523 13 17 12.5523 17 12C17 11.4477 16.5523 11 16 11H10.4142L12.7071 8.70711Z" fill="#393B55"/>
</svg>
