<svg width="24" height="24" viewBox="0 0 24 24" fill="none" xmlns="http://www.w3.org/2000/svg">
<path d="M11.3816 5.85614L4.64565 11.671C4.45112 11.8374 4.45112 12.1585 4.64565 12.3249L11.3816 18.1421C11.6324 18.3577 12.0003 18.1632 12.0003 17.8139V6.18192C12.0003 5.83504 11.6324 5.63817 11.3816 5.85614ZM18.8816 5.85614L12.1457 11.671C12.0995 11.7122 12.0627 11.7628 12.0377 11.8194C12.0126 11.876 11.9999 11.9372 12.0003 11.9991C12.0003 12.121 12.0496 12.2429 12.1457 12.3272L18.8816 18.1444C19.1324 18.36 19.5003 18.1655 19.5003 17.8163V6.18192C19.5003 5.83504 19.1324 5.63817 18.8816 5.85614Z" fill="#282A3C" fill-opacity="0.45"/>
</svg>
