<svg width="24" height="24" viewBox="0 0 24 24" fill="none" xmlns="http://www.w3.org/2000/svg">
<path opacity="0.1" d="M5.64569 9.2327H18.3535L11.9996 4.61084L5.64569 9.2327Z" fill="#397DFF"/>
<path d="M20.9535 10.8274C21.6777 10.8274 21.98 9.89697 21.3917 9.46807L12.441 2.95713C12.3131 2.86348 12.1588 2.81299 12.0003 2.81299C11.8419 2.81299 11.6875 2.86348 11.5597 2.95713L2.60892 9.46807C2.02064 9.89463 2.32298 10.8274 3.04955 10.8274H4.50033V19.5931H2.81283C2.7097 19.5931 2.62533 19.6774 2.62533 19.7806V20.9993C2.62533 21.1024 2.7097 21.1868 2.81283 21.1868H21.1878C21.291 21.1868 21.3753 21.1024 21.3753 20.9993V19.7806C21.3753 19.6774 21.291 19.5931 21.1878 19.5931H19.5003V10.8274H20.9535ZM8.93002 19.5931H6.18783V10.8274H8.93002V19.5931ZM13.3597 19.5931H10.6175V10.8274H13.3597V19.5931ZM17.8128 19.5931H15.0472V10.8274H17.8128V19.5931ZM5.64642 9.23135L12.0003 4.60947L18.3542 9.23135H5.64642Z" fill="#397DFF"/>
</svg>
