<svg width="24" height="24" viewBox="0 0 24 24" fill="none" xmlns="http://www.w3.org/2000/svg">
<path fill-rule="evenodd" clip-rule="evenodd" d="M12.0001 2.75C10.6077 2.75 9.27231 3.30312 8.28775 4.28769C7.30318 5.27226 6.75006 6.60761 6.75006 8C6.75006 11.6105 5.97536 13.9865 5.15848 15.4841C5.0014 15.7721 4.84336 16.0265 4.68988 16.25H19.3102C19.1568 16.0265 18.9987 15.7721 18.8416 15.4841C18.0248 13.9865 17.2501 11.6105 17.2501 8C17.2501 6.60761 16.6969 5.27225 15.7124 4.28769C14.7278 3.30312 13.3924 2.75 12.0001 2.75ZM21.4229 16.3805L21.4142 16.3742C21.403 16.3658 21.3815 16.3494 21.3513 16.3242C21.2909 16.2739 21.1953 16.1885 21.0758 16.0623C20.8371 15.8104 20.5011 15.394 20.1585 14.7659C19.4754 13.5135 18.7501 11.3895 18.7501 8C18.7501 6.20979 18.0389 4.4929 16.773 3.22703C15.5072 1.96116 13.7903 1.25 12.0001 1.25C10.2098 1.25 8.49296 1.96116 7.22709 3.22703C5.96122 4.4929 5.25006 6.20979 5.25006 8C5.25006 11.3895 4.52476 13.5135 3.84164 14.7659C3.49904 15.394 3.16298 15.8104 2.92434 16.0623C2.80483 16.1885 2.70925 16.2739 2.64883 16.3242C2.61861 16.3494 2.59716 16.3658 2.58589 16.3742L2.57726 16.3805C2.30703 16.5649 2.18726 16.9036 2.28224 17.2173C2.37801 17.5337 2.66956 17.75 3.00006 17.75H21.0001C21.3306 17.75 21.6221 17.5337 21.7179 17.2173C21.8129 16.9036 21.6931 16.5649 21.4229 16.3805ZM9.93872 20.3428C10.3017 20.1432 10.7577 20.2757 10.9573 20.6387C11.0599 20.8254 11.2109 20.9811 11.3943 21.0896C11.5778 21.1981 11.787 21.2553 12.0001 21.2553C12.2132 21.2553 12.4224 21.1981 12.6058 21.0896C12.7892 20.9811 12.9402 20.8254 13.0428 20.6387C13.2424 20.2757 13.6984 20.1432 14.0614 20.3428C14.4244 20.5423 14.5568 20.9984 14.3573 21.3613C14.1252 21.7835 13.784 22.1355 13.3693 22.3808C12.9547 22.626 12.4818 22.7553 12.0001 22.7553C11.5183 22.7553 11.0454 22.626 10.6308 22.3808C10.2161 22.1355 9.87493 21.7835 9.64284 21.3613C9.44328 20.9984 9.57575 20.5423 9.93872 20.3428Z" fill="#393B55"/>
</svg>
