<svg width="24" height="24" viewBox="0 0 24 24" fill="none" xmlns="http://www.w3.org/2000/svg">
<path d="M17.9625 17.4454C18.9867 17.4454 19.8234 16.597 19.8234 15.5587C19.8234 14.3048 17.9625 12.2587 17.9625 12.2587C17.9625 12.2587 16.1016 14.3048 16.1016 15.5587C16.1016 16.597 16.9383 17.4454 17.9625 17.4454ZM9.12422 16.4118C9.29062 16.5783 9.56016 16.5783 9.72422 16.4118L15.7266 10.4118C15.893 10.2454 15.893 9.97591 15.7266 9.81185L9.72656 3.81185C9.7125 3.79778 9.69609 3.78372 9.67969 3.772L7.84687 1.93919C7.80691 1.89974 7.75303 1.87762 7.69687 1.87762C7.64072 1.87762 7.58683 1.89974 7.54688 1.93919L6.42188 3.06419C6.38243 3.10415 6.36031 3.15804 6.36031 3.21419C6.36031 3.27034 6.38243 3.32423 6.42188 3.36419L7.99688 4.93919L3.12656 9.81185C2.96016 9.97825 2.96016 10.2478 3.12656 10.4118L9.12422 16.4118ZM9.42656 5.89778L13.6195 10.0908H5.23594L9.42656 5.89778ZM21.1875 19.1259H2.8125C2.70937 19.1259 2.625 19.2103 2.625 19.3134V21.1884C2.625 21.2915 2.70937 21.3759 2.8125 21.3759H21.1875C21.2906 21.3759 21.375 21.2915 21.375 21.1884V19.3134C21.375 19.2103 21.2906 19.1259 21.1875 19.1259Z" fill="#282A3C" fill-opacity="0.45"/>
</svg>
