<svg width="24" height="24" viewBox="0 0 24 24" fill="none" xmlns="http://www.w3.org/2000/svg">
<path fill-rule="evenodd" clip-rule="evenodd" d="M6.09098 3.14128C4.58911 2.59372 3 3.70579 3 5.30436V20.284H14.3025V20.2838H21V12.3302C21 11.0586 19.9692 10.0278 18.6977 10.0278H14.3025V7.74625C14.3025 6.7788 13.6977 5.91455 12.7887 5.58317L6.09098 3.14128ZM14.3025 19.028V11.2837H18.6977C19.2757 11.2837 19.7442 11.7522 19.7442 12.3302V19.028H14.3025ZM13.0466 10.0278V7.74625C13.0466 7.3065 12.7717 6.91366 12.3586 6.76303L5.66082 4.32114C4.97815 4.07225 4.25583 4.57774 4.25583 5.30436V19.0281H5.72088L5.72088 15.4691C5.72088 14.66 6.37684 14.004 7.18602 14.004H9.90698C10.7162 14.004 11.3721 14.66 11.3721 15.4691V19.0281H13.0464V10.0278H13.0466ZM10.1163 15.4691C10.1163 15.3536 10.0226 15.2598 9.90698 15.2598L7.18601 15.2598C7.07042 15.2598 6.97671 15.3536 6.97671 15.4691L6.97671 19.0273H10.1163V15.4691ZM5.72109 8.40003C5.37431 8.40003 5.09318 8.68116 5.09318 9.02795C5.09318 9.37473 5.37431 9.65586 5.72109 9.65586H7.39554C7.74232 9.65586 8.02345 9.37473 8.02345 9.02795C8.02345 8.68116 7.74232 8.40003 7.39554 8.40003H5.72109ZM5.09318 11.1233C5.09318 10.7765 5.37431 10.4954 5.72109 10.4954H7.39554C7.74232 10.4954 8.02345 10.7765 8.02345 11.1233C8.02345 11.4701 7.74232 11.7513 7.39554 11.7513H5.72109C5.37431 11.7513 5.09318 11.4701 5.09318 11.1233ZM9.69767 10.4954C9.35089 10.4954 9.06976 10.7765 9.06976 11.1233C9.06976 11.4701 9.35089 11.7513 9.69767 11.7513H11.3721C11.7189 11.7513 12 11.4701 12 11.1233C12 10.7765 11.7189 10.4954 11.3721 10.4954H9.69767ZM15.5584 12.9585C15.5584 12.6117 15.8395 12.3306 16.1863 12.3306H17.8607C18.2075 12.3306 18.4886 12.6117 18.4886 12.9585C18.4886 13.3053 18.2075 13.5864 17.8607 13.5864H16.1863C15.8395 13.5864 15.5584 13.3053 15.5584 12.9585ZM9.69767 8.40003C9.35089 8.40003 9.06976 8.68116 9.06976 9.02795C9.06976 9.37473 9.35089 9.65586 9.69767 9.65586H11.3721C11.7189 9.65586 12 9.37473 12 9.02795C12 8.68116 11.7189 8.40003 11.3721 8.40003H9.69767Z" fill="#393B55"/>
</svg>
