<svg width="24" height="24" viewBox="0 0 24 24" fill="none" xmlns="http://www.w3.org/2000/svg">
<path fill-rule="evenodd" clip-rule="evenodd" d="M5.08862 4.77275C6.88427 3.05511 9.31892 2 12 2C17.5228 2 22 6.47715 22 12C22 14.1219 21.3391 16.0894 20.212 17.7079C19.8296 18.2571 19.3935 18.766 18.9114 19.2273C17.1157 20.9449 14.6811 22 12 22C6.47715 22 2 17.5228 2 12C2 9.87814 2.66086 7.91063 3.78798 6.29207C4.1704 5.74291 4.60649 5.23394 5.08862 4.77275ZM6.618 6.08084C8.04055 4.78616 9.92769 4 12 4C16.4183 4 20 7.58172 20 12C20 13.6271 19.516 15.1377 18.6827 16.3999L6.618 6.08084ZM17.382 17.9192L5.31726 7.60007C4.484 8.86233 4 10.3729 4 12C4 16.4183 7.58172 20 12 20C14.0723 20 15.9595 19.2138 17.382 17.9192Z" fill="#393B55"/>
</svg>
