<svg width="24" height="24" viewBox="0 0 24 24" fill="none" xmlns="http://www.w3.org/2000/svg">
<path d="M12 1C18.0751 1 23 5.92487 23 12C23 18.0751 18.0751 23 12 23C5.92487 23 1 18.0751 1 12C1 5.92487 5.92487 1 12 1ZM17.4053 8.29297C17.0148 7.90246 16.3817 7.90248 15.9912 8.29297L10.6982 13.5859L8.40527 11.293C8.01476 10.9025 7.38174 10.9025 6.99121 11.293C6.60069 11.6835 6.60069 12.3165 6.99121 12.707L9.99121 15.707C10.3817 16.0975 11.0148 16.0975 11.4053 15.707L17.4053 9.70703C17.7957 9.31652 17.7957 8.68348 17.4053 8.29297Z" fill="#393B55"/>
</svg>
