<svg width="24" height="24" viewBox="0 0 24 24" fill="none" xmlns="http://www.w3.org/2000/svg">
<path d="M21 12C21 7.02944 16.9706 3 12 3C7.02944 3 3 7.02944 3 12C3 16.9706 7.02944 21 12 21V23C5.92487 23 1 18.0751 1 12C1 5.92487 5.92487 1 12 1C18.0751 1 23 5.92487 23 12C23 18.0751 18.0751 23 12 23V21C16.9706 21 21 16.9706 21 12Z" fill="#393B55"/>
<path fill-rule="evenodd" clip-rule="evenodd" d="M12 4C12.5523 4 13 4.44772 13 5V12.0509L16.5 15C16.9128 15.3669 16.95 15.999 16.583 16.4118C16.2161 16.8246 15.5841 16.8617 15.1713 16.4948L11 12.9491V5C11 4.44772 11.4477 4 12 4Z" fill="#393B55"/>
</svg>
