<svg width="24" height="24" viewBox="0 0 24 24" fill="none" xmlns="http://www.w3.org/2000/svg">
<path fill-rule="evenodd" clip-rule="evenodd" d="M8.70757 7.29316C8.51897 7.111 8.26637 7.01021 8.00417 7.01249C7.74197 7.01477 7.49116 7.11994 7.30575 7.30535C7.12034 7.49075 7.01517 7.74157 7.0129 8.00376C7.01062 8.26596 7.11141 8.51856 7.29357 8.70716L10.5866 12.0002L7.29357 15.2932C7.19806 15.3854 7.12188 15.4958 7.06947 15.6178C7.01706 15.7398 6.98947 15.871 6.98832 16.0038C6.98717 16.1365 7.01247 16.2682 7.06275 16.3911C7.11303 16.514 7.18728 16.6257 7.28117 16.7196C7.37507 16.8135 7.48672 16.8877 7.60962 16.938C7.73251 16.9883 7.86419 17.0136 7.99697 17.0124C8.12975 17.0113 8.26097 16.9837 8.38297 16.9313C8.50498 16.8789 8.61532 16.8027 8.70757 16.7072L12.0006 13.4142L15.2936 16.7072C15.4822 16.8893 15.7348 16.9901 15.997 16.9878C16.2592 16.9856 16.51 16.8804 16.6954 16.695C16.8808 16.5096 16.986 16.2588 16.9882 15.9966C16.9905 15.7344 16.8897 15.4818 16.7076 15.2932L13.4146 12.0002L16.7076 8.70716C16.8897 8.51856 16.9905 8.26596 16.9882 8.00376C16.986 7.74157 16.8808 7.49075 16.6954 7.30535C16.51 7.11994 16.2592 7.01477 15.997 7.01249C15.7348 7.01021 15.4822 7.111 15.2936 7.29316L12.0006 10.5862L8.70757 7.29316Z" fill="#393B55"/>
</svg>
