<svg width="24" height="24" viewBox="0 0 24 24" fill="none" xmlns="http://www.w3.org/2000/svg">
<path d="M14.6244 16.5539H12.8877V10.875C12.8877 10.7719 12.8034 10.6875 12.7002 10.6875H11.294C11.1909 10.6875 11.1065 10.7719 11.1065 10.875V16.5539H9.37446C9.21743 16.5539 9.13071 16.7344 9.22681 16.8562L11.8518 20.1773C11.8693 20.1997 11.8917 20.2179 11.9173 20.2303C11.9429 20.2428 11.971 20.2493 11.9995 20.2493C12.0279 20.2493 12.056 20.2428 12.0816 20.2303C12.1072 20.2179 12.1296 20.1997 12.1471 20.1773L14.7721 16.8562C14.8682 16.7344 14.7815 16.5539 14.6244 16.5539Z" fill="#282A3C" fill-opacity="0.45"/>
<path d="M19.0172 8.59452C17.9438 5.76327 15.2086 3.74998 12.0047 3.74998C8.80078 3.74998 6.06563 5.76092 4.99219 8.59217C2.98359 9.11952 1.5 10.95 1.5 13.125C1.5 15.7148 3.59766 17.8125 6.18516 17.8125H7.125C7.22813 17.8125 7.3125 17.7281 7.3125 17.625V16.2187C7.3125 16.1156 7.22813 16.0312 7.125 16.0312H6.18516C5.39531 16.0312 4.65234 15.7172 4.09922 15.1476C3.54844 14.5805 3.25547 13.8164 3.28125 13.0242C3.30234 12.4055 3.51328 11.8242 3.89531 11.3344C4.28672 10.8351 4.83516 10.4719 5.44453 10.3101L6.33281 10.0781L6.65859 9.2203C6.86016 8.68592 7.14141 8.1867 7.49531 7.73436C7.8447 7.28602 8.25857 6.8919 8.72344 6.56483C9.68672 5.88748 10.8211 5.52889 12.0047 5.52889C13.1883 5.52889 14.3227 5.88748 15.2859 6.56483C15.7523 6.89295 16.1648 7.2867 16.5141 7.73436C16.868 8.1867 17.1492 8.68827 17.3508 9.2203L17.6742 10.0758L18.5602 10.3101C19.8305 10.6523 20.7188 11.8078 20.7188 13.125C20.7188 13.9008 20.4164 14.632 19.868 15.1805C19.599 15.451 19.2791 15.6655 18.9266 15.8115C18.5742 15.9576 18.1963 16.0322 17.8148 16.0312H16.875C16.7719 16.0312 16.6875 16.1156 16.6875 16.2187V17.625C16.6875 17.7281 16.7719 17.8125 16.875 17.8125H17.8148C20.4023 17.8125 22.5 15.7148 22.5 13.125C22.5 10.9523 21.0211 9.1242 19.0172 8.59452Z" fill="#282A3C" fill-opacity="0.45"/>
</svg>
