<svg width="24" height="24" viewBox="0 0 24 24" fill="none" xmlns="http://www.w3.org/2000/svg">
<path opacity="0.1" d="M12 4.40625C9.67266 4.40625 7.48359 5.31328 5.83594 6.96094C4.18828 8.60625 3.28125 10.7953 3.28125 13.125C3.28125 15.6 4.32422 17.9414 6.15469 19.5938H17.8453C18.7509 18.7772 19.4748 17.7793 19.9698 16.6649C20.4648 15.5505 20.72 14.3444 20.7188 13.125C20.7188 10.7977 19.8117 8.60859 18.1641 6.96094C16.5188 5.31328 14.3297 4.40625 12 4.40625ZM11.2969 5.4375C11.2969 5.33438 11.3813 5.25 11.4844 5.25H12.5156C12.6187 5.25 12.7031 5.33438 12.7031 5.4375V7.3125C12.7031 7.41563 12.6187 7.5 12.5156 7.5H11.4844C11.3813 7.5 11.2969 7.41563 11.2969 7.3125V5.4375ZM6.32812 13.6406C6.32812 13.7437 6.24375 13.8281 6.14062 13.8281H4.26562C4.1625 13.8281 4.07812 13.7437 4.07812 13.6406V12.6094C4.07812 12.5063 4.1625 12.4219 4.26562 12.4219H6.14062C6.24375 12.4219 6.32812 12.5063 6.32812 12.6094V13.6406ZM8.45391 8.85L7.725 9.57891C7.68976 9.6138 7.64217 9.63338 7.59258 9.63338C7.54299 9.63338 7.4954 9.6138 7.46016 9.57891L6.13359 8.25234C6.0987 8.2171 6.07913 8.16952 6.07913 8.11992C6.07913 8.07033 6.0987 8.02274 6.13359 7.9875L6.8625 7.25859C6.93516 7.18594 7.05469 7.18594 7.12734 7.25859L8.45391 8.58516C8.52656 8.65781 8.52656 8.77734 8.45391 8.85ZM15.2766 10.807L13.2961 12.7875C13.4133 13.2258 13.3008 13.7109 12.9562 14.0555C12.8344 14.1775 12.6898 14.2743 12.5305 14.3404C12.3713 14.4064 12.2005 14.4404 12.0281 14.4404C11.8557 14.4404 11.685 14.4064 11.5257 14.3404C11.3665 14.2743 11.2218 14.1775 11.1 14.0555C10.978 13.9337 10.8812 13.789 10.8151 13.6297C10.749 13.4705 10.715 13.2998 10.715 13.1273C10.715 12.9549 10.749 12.7842 10.8151 12.6249C10.8812 12.4657 10.978 12.321 11.1 12.1992C11.2627 12.036 11.4657 11.9186 11.6883 11.8589C11.911 11.7993 12.1454 11.7994 12.368 11.8594L14.3484 9.87891C14.4211 9.80625 14.5406 9.80625 14.6133 9.87891L15.2766 10.5422C15.3492 10.6148 15.3492 10.7344 15.2766 10.807ZM16.2844 9.57891L15.5555 8.85C15.5206 8.81476 15.501 8.76717 15.501 8.71758C15.501 8.66799 15.5206 8.6204 15.5555 8.58516L16.882 7.25859C16.9547 7.18594 17.0742 7.18594 17.1469 7.25859L17.8758 7.9875C17.9484 8.06016 17.9484 8.17969 17.8758 8.25234L16.5492 9.57891C16.514 9.6138 16.4664 9.63338 16.4168 9.63338C16.3672 9.63338 16.3196 9.6138 16.2844 9.57891ZM19.8281 12.6094V13.6406C19.8281 13.7437 19.7437 13.8281 19.6406 13.8281H17.7656C17.6625 13.8281 17.5781 13.7437 17.5781 13.6406V12.6094C17.5781 12.5063 17.6625 12.4219 17.7656 12.4219H19.6406C19.7437 12.4219 19.8281 12.5063 19.8281 12.6094Z" fill="#397DFF"/>
<path d="M14.6127 9.87891C14.5775 9.84401 14.5299 9.82444 14.4803 9.82444C14.4307 9.82444 14.3831 9.84401 14.3479 9.87891L12.3674 11.8594C11.9291 11.7422 11.444 11.8547 11.0994 12.1992C10.9774 12.321 10.8806 12.4657 10.8145 12.6249C10.7485 12.7842 10.7145 12.9549 10.7145 13.1273C10.7145 13.2998 10.7485 13.4705 10.8145 13.6297C10.8806 13.789 10.9774 13.9337 11.0994 14.0555C11.2212 14.1775 11.3659 14.2743 11.5252 14.3404C11.6844 14.4064 11.8551 14.4404 12.0276 14.4404C12.2 14.4404 12.3707 14.4064 12.53 14.3404C12.6892 14.2743 12.8339 14.1775 12.9557 14.0555C13.1189 13.8927 13.2363 13.6898 13.296 13.4671C13.3557 13.2445 13.3555 13.0101 13.2955 12.7875L15.276 10.807C15.3487 10.7344 15.3487 10.6148 15.276 10.5422L14.6127 9.87891ZM11.4838 7.5H12.5151C12.6182 7.5 12.7026 7.41563 12.7026 7.3125V5.4375C12.7026 5.33438 12.6182 5.25 12.5151 5.25H11.4838C11.3807 5.25 11.2963 5.33438 11.2963 5.4375V7.3125C11.2963 7.41563 11.3807 7.5 11.4838 7.5Z" fill="#397DFF"/>
<path d="M21.675 9.0375C21.1479 7.78994 20.3838 6.6565 19.425 5.7C18.4685 4.74119 17.3351 3.97707 16.0875 3.45C14.7914 2.90156 13.418 2.625 12 2.625C10.582 2.625 9.20859 2.90156 7.9125 3.45C6.66494 3.97707 5.5315 4.74119 4.575 5.7C3.61619 6.6565 2.85207 7.78994 2.325 9.0375C1.77656 10.3336 1.5 11.707 1.5 13.125C1.5 16.2352 2.86641 19.1648 5.24766 21.1664L5.2875 21.1992C5.42344 21.3117 5.59453 21.375 5.77031 21.375H18.232C18.4078 21.375 18.5789 21.3117 18.7148 21.1992L18.7547 21.1664C21.1336 19.1648 22.5 16.2352 22.5 13.125C22.5 11.707 22.2211 10.3336 21.675 9.0375ZM17.8453 19.5938H6.15469C5.24905 18.7772 4.52524 17.7793 4.03021 16.6649C3.53518 15.5505 3.28001 14.3444 3.28125 13.125C3.28125 10.7953 4.18828 8.60625 5.83594 6.96094C7.48359 5.31328 9.67266 4.40625 12 4.40625C14.3297 4.40625 16.5188 5.31328 18.1641 6.96094C19.8117 8.60859 20.7188 10.7977 20.7188 13.125C20.7188 15.6 19.6758 17.9414 17.8453 19.5938Z" fill="#397DFF"/>
<path d="M17.8758 7.9865L17.1469 7.25759C17.1116 7.2227 17.064 7.20313 17.0145 7.20313C16.9649 7.20313 16.9173 7.2227 16.882 7.25759L15.5555 8.58415C15.5206 8.61939 15.501 8.66698 15.501 8.71657C15.501 8.76616 15.5206 8.81375 15.5555 8.84899L16.2844 9.5779C16.357 9.65055 16.4766 9.65055 16.5492 9.5779L17.8758 8.25134C17.9484 8.17868 17.9484 8.05915 17.8758 7.9865ZM17.5781 12.6084V13.6396C17.5781 13.7427 17.6625 13.8271 17.7656 13.8271H19.6406C19.7437 13.8271 19.8281 13.7427 19.8281 13.6396V12.6084C19.8281 12.5052 19.7437 12.4209 19.6406 12.4209H17.7656C17.6625 12.4209 17.5781 12.5052 17.5781 12.6084ZM7.12734 7.25759C7.0921 7.2227 7.04452 7.20312 6.99492 7.20313C6.94533 7.20312 6.89774 7.2227 6.8625 7.25759L6.13359 7.9865C6.0987 8.02174 6.07913 8.06933 6.07913 8.11892C6.07913 8.16851 6.0987 8.2161 6.13359 8.25134L7.46016 9.5779C7.53281 9.65055 7.65234 9.65055 7.725 9.5779L8.45391 8.84899C8.52656 8.77634 8.52656 8.65681 8.45391 8.58415L7.12734 7.25759ZM6.14062 12.4209H4.26562C4.1625 12.4209 4.07812 12.5052 4.07812 12.6084V13.6396C4.07812 13.7427 4.1625 13.8271 4.26562 13.8271H6.14062C6.24375 13.8271 6.32812 13.7427 6.32812 13.6396V12.6084C6.32812 12.5052 6.24375 12.4209 6.14062 12.4209Z" fill="#397DFF"/>
</svg>
