<svg width="24" height="24" viewBox="0 0 24 24" fill="none" xmlns="http://www.w3.org/2000/svg">
<path fill-rule="evenodd" clip-rule="evenodd" d="M20.7196 16.353C21.644 14.506 21.9575 12.413 21.6149 10.3763C21.5995 10.2784 21.5648 10.1846 21.5129 10.1002C21.461 10.0158 21.3928 9.94252 21.3124 9.88461C21.2321 9.8267 21.141 9.78529 21.0445 9.76278C20.948 9.74026 20.848 9.73709 20.7503 9.75343C20.6526 9.76978 20.5591 9.80533 20.4752 9.85802C20.3913 9.91072 20.3186 9.97951 20.2615 10.0604C20.2043 10.1414 20.1638 10.2328 20.1421 10.3295C20.1205 10.4262 20.1183 10.5262 20.1355 10.6238C20.2117 11.0786 20.2499 11.5389 20.2499 12C20.2517 14.0196 19.5094 15.969 18.1649 17.4759C17.3284 16.2638 16.1523 15.3261 14.7843 14.7806C15.5191 14.2019 16.0553 13.4085 16.3183 12.5109C16.5814 11.6132 16.5581 10.6559 16.2519 9.77208C15.9456 8.88826 15.3715 8.12184 14.6095 7.57941C13.8474 7.03697 12.9353 6.74549 11.9999 6.74549C11.0645 6.74549 10.1524 7.03697 9.39034 7.57941C8.62829 8.12184 8.05422 8.88826 7.74795 9.77208C7.44169 10.6559 7.41845 11.6132 7.68147 12.5109C7.94449 13.4085 8.4807 14.2019 9.21553 14.7806C7.84754 15.3261 6.67137 16.2638 5.8349 17.4759C4.49039 15.969 3.74812 14.0196 3.7499 12C3.75085 10.8004 4.0132 9.61538 4.51869 8.52746C5.02418 7.43954 5.76066 6.47483 6.67689 5.70048C7.59312 4.92613 8.66708 4.36073 9.82404 4.04364C10.981 3.72655 12.1932 3.66538 13.3762 3.86439C13.5714 3.8952 13.771 3.84766 13.9314 3.73209C14.0918 3.61653 14.2001 3.4423 14.2328 3.24731C14.2654 3.05231 14.2197 2.85232 14.1056 2.69083C13.9916 2.52935 13.8183 2.41944 13.6237 2.38501C11.5869 2.04237 9.49391 2.35589 7.64693 3.2803C5.79996 4.20471 4.29456 5.69218 3.34808 7.52795C2.40159 9.36371 2.06302 11.4528 2.38122 13.4935C2.69943 15.5342 3.65796 17.421 5.11842 18.8815C6.57887 20.342 8.46568 21.3005 10.5064 21.6187C12.5471 21.9369 14.6362 21.5983 16.472 20.6518C18.3077 19.7054 19.7952 18.2 20.7196 16.353ZM13.6666 13.7444C13.1733 14.0741 12.5932 14.25 11.9999 14.25C11.2043 14.25 10.4412 13.9339 9.87858 13.3713C9.31597 12.8087 8.9999 12.0457 8.9999 11.25C8.9999 10.6567 9.17585 10.0766 9.50549 9.5833C9.83514 9.08995 10.3037 8.70544 10.8519 8.47837C11.4 8.25131 12.0032 8.1919 12.5852 8.30765C13.1671 8.42341 13.7017 8.70913 14.1212 9.12869C14.5408 9.54825 14.8265 10.0828 14.9423 10.6647C15.058 11.2467 14.9986 11.8499 14.7715 12.3981C14.5445 12.9462 14.16 13.4148 13.6666 13.7444ZM17.0549 18.5156C15.6105 19.6414 13.8312 20.2519 11.9999 20.25C10.1686 20.2519 8.3893 19.6414 6.9449 18.5156C7.48747 17.6671 8.23491 16.9688 9.11833 16.4851C10.0017 16.0014 10.9927 15.7478 11.9999 15.7478C13.0071 15.7478 13.9981 16.0014 14.8815 16.4851C15.7649 16.9688 16.5123 17.6671 17.0549 18.5156Z" fill="#393B55"/>
<path d="M17.0424 2.72192C17.183 2.58127 17.3738 2.50225 17.5727 2.50225C17.7716 2.50225 17.9624 2.58127 18.1031 2.72192L19.1637 3.78258L20.2244 2.72192C20.365 2.58127 20.5558 2.50225 20.7547 2.50225C20.9536 2.50225 21.1444 2.58127 21.285 2.72192C21.4257 2.86257 21.5047 3.05334 21.5047 3.25225C21.5047 3.45116 21.4257 3.64193 21.285 3.78258L20.2244 4.84324L21.285 5.9039C21.4257 6.04455 21.5047 6.23532 21.5047 6.43423C21.5047 6.63314 21.4257 6.82391 21.285 6.96456C21.1444 7.10521 20.9536 7.18423 20.7547 7.18423C20.5558 7.18423 20.365 7.10521 20.2244 6.96456L19.1637 5.9039L18.1031 6.96456C17.9624 7.10521 17.7716 7.18423 17.5727 7.18423C17.3738 7.18423 17.183 7.10521 17.0424 6.96456C16.9017 6.82391 16.8227 6.63314 16.8227 6.43423C16.8227 6.23532 16.9017 6.04455 17.0424 5.9039L18.1031 4.84324L17.0424 3.78258C16.9017 3.64193 16.8227 3.45116 16.8227 3.25225C16.8227 3.05334 16.9017 2.86257 17.0424 2.72192Z" fill="#393B55"/>
</svg>
