<svg width="24" height="24" viewBox="0 0 24 24" fill="none" xmlns="http://www.w3.org/2000/svg">
<path d="M19.5148 4.4867C17.532 2.50388 14.3234 2.50388 12.3429 4.4867L10.0718 6.75779L11.2672 7.9531L13.5382 5.68201C14.7992 4.42107 16.9273 4.28748 18.3195 5.68201C19.714 7.07654 19.5804 9.20232 18.3195 10.4633L16.0484 12.7344L17.2461 13.932L19.5171 11.6609C21.4953 9.6781 21.4953 6.46951 19.5148 4.4867ZM10.4656 18.3195C9.20465 19.5804 7.07653 19.714 5.68434 18.3195C4.28981 16.925 4.4234 14.7992 5.68434 13.5383L7.95543 11.2672L6.75778 10.0695L4.48668 12.3406C2.50387 14.3234 2.50387 17.532 4.48668 19.5125C6.46949 21.4929 9.67809 21.4953 11.6586 19.5125L13.9297 17.2414L12.7343 16.0461L10.4656 18.3195ZM6.10153 4.90857C6.06629 4.87368 6.0187 4.8541 5.9691 4.8541C5.91951 4.8541 5.87192 4.87368 5.83668 4.90857L4.90856 5.8367C4.87366 5.87194 4.85409 5.91953 4.85409 5.96912C4.85409 6.01871 4.87366 6.0663 4.90856 6.10154L17.9023 19.0953C17.975 19.1679 18.0945 19.1679 18.1671 19.0953L19.0953 18.1672C19.1679 18.0945 19.1679 17.975 19.0953 17.9023L6.10153 4.90857Z" fill="#282A3C" fill-opacity="0.45"/>
</svg>
