<svg width="24" height="24" viewBox="0 0 24 24" fill="none" xmlns="http://www.w3.org/2000/svg">
<path d="M12 1.99976C12.5522 1.99976 12.9999 2.44758 13 2.99976C13 3.55204 12.5523 3.99976 12 3.99976H5C4.73484 3.99976 4.48049 4.10526 4.29297 4.29272C4.10549 4.4802 4.00006 4.73463 4 4.99976V18.9998C4 19.2649 4.10551 19.5193 4.29297 19.7068C4.48051 19.8943 4.73478 19.9998 5 19.9998H19C19.2652 19.9998 19.5195 19.8943 19.707 19.7068C19.8945 19.5193 20 19.2649 20 18.9998V11.9998C20.0001 11.4476 20.4478 10.9998 21 10.9998C21.5522 10.9998 21.9999 11.4476 22 11.9998V18.9998C22 19.7953 21.6836 20.5583 21.1211 21.1208C20.5585 21.6835 19.7957 21.9998 19 21.9998H5C4.20435 21.9998 3.44152 21.6835 2.87891 21.1208C2.31637 20.5583 2 19.7953 2 18.9998V4.99976C2.00006 4.20419 2.31635 3.44121 2.87891 2.87866C3.4415 2.31613 4.20441 1.99976 5 1.99976H12Z" fill="#393B55"/>
<path fill-rule="evenodd" clip-rule="evenodd" d="M19.875 1.00366C20.7028 1.00366 21.4967 1.33246 22.082 1.91772C22.6673 2.50303 22.996 3.29701 22.9961 4.12476C22.9961 4.95255 22.6674 5.74643 22.082 6.33179L13.0693 15.3464C12.7132 15.7023 12.2724 15.9621 11.7891 16.1033L11.79 16.1042L8.91699 16.9441C8.65892 17.0193 8.38444 17.0235 8.12402 16.9568C7.86354 16.8901 7.62569 16.7544 7.43555 16.5642C7.24559 16.3742 7.10972 16.137 7.04297 15.8767C6.97623 15.6162 6.98037 15.3419 7.05566 15.0837L7.89648 12.2107C8.02057 11.7881 8.23579 11.3971 8.52637 11.0681L8.65527 10.9314L17.668 1.91772L17.7803 1.81128C18.3528 1.29285 19.0989 1.00369 19.875 1.00366ZM19.875 3.00366C19.5777 3.00369 19.2923 3.12156 19.082 3.33179L10.0693 12.3464C9.9507 12.4649 9.86272 12.6114 9.81543 12.7722L9.23145 14.7673L11.2285 14.1843L11.3467 14.1414C11.4615 14.0915 11.5662 14.0204 11.6553 13.9314L20.668 4.91772L20.7422 4.83569C20.9058 4.63613 20.9961 4.38505 20.9961 4.12476C20.996 3.82745 20.8782 3.54202 20.668 3.33179C20.4577 3.1216 20.1723 3.00366 19.875 3.00366Z" fill="#393B55"/>
</svg>
