<svg width="24" height="24" viewBox="0 0 24 24" fill="none" xmlns="http://www.w3.org/2000/svg">
<path d="M20.25 14.5H3.75C3.45163 14.5 3.16548 14.6185 2.9545 14.8295C2.74353 15.0405 2.625 15.3266 2.625 15.625C2.625 15.9234 2.74353 16.2095 2.9545 16.4205C3.16548 16.6315 3.45163 16.75 3.75 16.75H20.25C20.5484 16.75 20.8345 16.6315 21.0455 16.4205C21.2565 16.2095 21.375 15.9234 21.375 15.625C21.375 15.3266 21.2565 15.0405 21.0455 14.8295C20.8345 14.6185 20.5484 14.5 20.25 14.5Z" fill="#393B55"/>
<path d="M20.25 9.5H3.75C3.45163 9.5 3.16548 9.38147 2.9545 9.1705C2.74353 8.95952 2.625 8.67337 2.625 8.375C2.625 8.07663 2.74353 7.79048 2.9545 7.5795C3.16548 7.36853 3.45163 7.25 3.75 7.25H20.25C20.5484 7.25 20.8345 7.36853 21.0455 7.5795C21.2565 7.79048 21.375 8.07663 21.375 8.375C21.375 8.67337 21.2565 8.95952 21.0455 9.1705C20.8345 9.38147 20.5484 9.5 20.25 9.5Z" fill="#393B55"/>
</svg>
