<svg width="24" height="24" viewBox="0 0 24 24" fill="none" xmlns="http://www.w3.org/2000/svg">
<path d="M22.0829 11.3958C21.259 9.66001 20.2785 8.24438 19.1415 7.14891L17.949 8.34141C18.9214 9.27071 19.7684 10.4864 20.5009 12.0005C18.5509 16.0364 15.7829 17.9536 12.0001 17.9536C10.8646 17.9536 9.81875 17.7788 8.8625 17.4291L7.57039 18.7212C8.89852 19.3345 10.3751 19.6411 12.0001 19.6411C16.5048 19.6411 19.8657 17.295 22.0829 12.6028C22.172 12.4141 22.2183 12.208 22.2183 11.9993C22.2183 11.7906 22.172 11.5845 22.0829 11.3958ZM20.593 3.88079L19.5938 2.88048C19.5764 2.86304 19.5557 2.84921 19.533 2.83978C19.5102 2.83034 19.4858 2.82549 19.4612 2.82549C19.4365 2.82549 19.4121 2.83034 19.3894 2.83978C19.3666 2.84921 19.3459 2.86304 19.3285 2.88048L16.7652 5.44266C15.3519 4.72079 13.7635 4.35985 12.0001 4.35985C7.49539 4.35985 4.13446 6.70595 1.91727 11.3981C1.82815 11.5868 1.78193 11.793 1.78193 12.0016C1.78193 12.2103 1.82815 12.4165 1.91727 12.6052C2.80305 14.4708 3.86946 15.9662 5.11649 17.0913L2.63633 19.5708C2.6012 19.6059 2.58146 19.6536 2.58146 19.7033C2.58146 19.753 2.6012 19.8007 2.63633 19.8359L3.63688 20.8364C3.67204 20.8716 3.71971 20.8913 3.76942 20.8913C3.81912 20.8913 3.8668 20.8716 3.90196 20.8364L20.593 4.1461C20.6104 4.12869 20.6242 4.10801 20.6337 4.08525C20.6431 4.06248 20.648 4.03809 20.648 4.01345C20.648 3.9888 20.6431 3.96441 20.6337 3.94164C20.6242 3.91888 20.6104 3.8982 20.593 3.88079ZM3.4993 12.0005C5.45164 7.96454 8.21961 6.04735 12.0001 6.04735C13.2784 6.04735 14.4406 6.26673 15.4951 6.71274L13.8474 8.3604C13.0671 7.94406 12.1737 7.78955 11.2988 7.91965C10.424 8.04975 9.6142 8.45757 8.98881 9.08296C8.36343 9.70834 7.9556 10.5182 7.8255 11.393C7.6954 12.2678 7.84992 13.1613 8.26625 13.9416L6.3111 15.8967C5.22899 14.9416 4.29618 13.6477 3.4993 12.0005ZM9.28133 12.0005C9.28174 11.5872 9.37964 11.1798 9.56706 10.8115C9.75448 10.4431 10.0262 10.1242 10.36 9.88058C10.6938 9.63695 11.0805 9.47551 11.4884 9.40937C11.8964 9.34323 12.3142 9.37426 12.7079 9.49993L9.40578 12.802C9.32302 12.5429 9.28103 12.2725 9.28133 12.0005Z" fill="#282A3C" fill-opacity="0.45"/>
<path d="M11.9065 14.6253C11.8254 14.6253 11.7455 14.6215 11.6663 14.6143L10.4283 15.8522C11.1729 16.1374 11.9842 16.2007 12.764 16.0347C13.5438 15.8686 14.2589 15.4802 14.8227 14.9164C15.3864 14.3526 15.7749 13.6376 15.9409 12.8577C16.107 12.0779 16.0436 11.2667 15.7585 10.5221L14.5205 11.76C14.5278 11.8393 14.5315 11.9192 14.5315 12.0003C14.5317 12.345 14.464 12.6865 14.3321 13.005C14.2002 13.3236 14.0069 13.6131 13.7631 13.8568C13.5193 14.1006 13.2299 14.294 12.9113 14.4258C12.5927 14.5577 12.2513 14.6255 11.9065 14.6253Z" fill="#282A3C" fill-opacity="0.45"/>
</svg>
