<svg width="24" height="24" viewBox="0 0 24 24" fill="none" xmlns="http://www.w3.org/2000/svg">
<path fill-rule="evenodd" clip-rule="evenodd" d="M5.93757 13.7156C6.25 13.4436 6.72374 13.4764 6.9957 13.7888C7.20621 14.0307 7.26436 14.3173 7.28188 14.516C7.30028 14.7247 7.28239 14.9407 7.25553 15.1345C7.21096 15.456 7.12362 15.8292 7.0437 16.1708C7.02868 16.235 7.01391 16.2981 6.99974 16.3595C6.93486 16.6408 6.87969 16.8972 6.84497 17.1244C6.9679 16.9985 7.10196 16.8549 7.24705 16.6981C7.2678 16.6756 7.28881 16.6529 7.31003 16.6299C7.59804 16.3182 7.92646 15.9628 8.22475 15.7103C8.38169 15.5775 8.58268 15.4269 8.80717 15.3363C9.03399 15.2448 9.4439 15.1589 9.82032 15.4395C10.0217 15.5896 10.1303 15.7857 10.1905 15.9376C10.2515 16.0913 10.2824 16.2484 10.3 16.3825C10.3348 16.6473 10.3317 16.9421 10.3267 17.1792C10.3258 17.2196 10.3249 17.2585 10.324 17.2959C10.4103 17.2592 10.5022 17.2206 10.5958 17.1834C10.8806 17.0701 11.2493 16.9403 11.6179 16.9078C11.995 16.8746 12.5094 16.9357 12.8843 17.373C13.1538 17.6875 13.1174 18.161 12.8029 18.4306C12.5061 18.685 12.0677 18.6669 11.7927 18.3996C11.7818 18.3998 11.7676 18.4004 11.7497 18.402C11.6107 18.4143 11.4119 18.4731 11.15 18.5772C11.0318 18.6243 10.9147 18.6746 10.7931 18.7269L10.7719 18.736C10.6483 18.7892 10.5136 18.8469 10.3887 18.8939C10.2713 18.9382 10.1166 18.991 9.95884 19.0143C9.84327 19.0314 9.47757 19.0741 9.17583 18.7998C8.97427 18.6165 8.9038 18.3859 8.87487 18.2676C8.8413 18.1303 8.82868 17.9898 8.82294 17.873C8.81372 17.6855 8.81928 17.4633 8.82411 17.2705C8.82465 17.249 8.82517 17.2279 8.82567 17.2072C8.68945 17.3477 8.54157 17.5076 8.38183 17.6803C8.37066 17.6924 8.35944 17.7045 8.34815 17.7167C8.04348 18.046 7.68458 18.4329 7.35579 18.6903C7.19724 18.8144 6.97606 18.9656 6.71904 19.0346C6.58122 19.0717 6.4034 19.0933 6.20868 19.0491C6.00425 19.0027 5.82998 18.8946 5.69742 18.7483C5.30744 18.3176 5.28847 17.7321 5.31307 17.3395C5.34019 16.9067 5.4438 16.4312 5.53813 16.0223C5.55501 15.9492 5.57156 15.8782 5.58761 15.8094C5.66776 15.4658 5.73556 15.1751 5.76974 14.9285C5.78693 14.8045 5.79084 14.7216 5.78905 14.671C5.60224 14.3645 5.65776 13.9591 5.93757 13.7156ZM5.78514 14.6292C5.78523 14.6291 5.7857 14.6311 5.78632 14.6355C5.78537 14.6315 5.78506 14.6293 5.78514 14.6292ZM11.8242 18.4013C11.8241 18.4014 11.8228 18.4012 11.8203 18.4006C11.8231 18.401 11.8243 18.4013 11.8242 18.4013Z" fill="#393B55"/>
<path fill-rule="evenodd" clip-rule="evenodd" d="M13.6373 2.46938L18.8873 7.71938C18.9569 7.78908 19.0122 7.87182 19.0498 7.96286C19.0874 8.05391 19.1068 8.15148 19.1067 8.25V8.93359L17.6067 10.4336V9H13.1067C12.9078 9 12.717 8.92098 12.5764 8.78033C12.4357 8.63968 12.3567 8.44891 12.3567 8.25V3.75H4.10669V20.25H17.6067V20.2461L17.6125 20.252L19.1067 18.7578V20.25C19.1067 20.6478 18.9487 21.0294 18.6673 21.3107C18.386 21.592 18.0045 21.75 17.6067 21.75H4.10669C3.70886 21.75 3.32733 21.592 3.04603 21.3107C2.76472 21.0294 2.60669 20.6478 2.60669 20.25V3.75C2.60669 3.35218 2.76472 2.97065 3.04603 2.68934C3.32733 2.40804 3.70886 2.25 4.10669 2.25H13.1067C13.2052 2.24992 13.3028 2.26926 13.3938 2.3069C13.4849 2.34454 13.5676 2.39975 13.6373 2.46938ZM16.5464 7.5L13.8567 4.81031V7.5H16.5464Z" fill="#393B55"/>
<path fill-rule="evenodd" clip-rule="evenodd" d="M19.0721 10.812C19.404 10.48 19.9422 10.48 20.2741 10.812L22.1697 12.7075C22.5016 13.0395 22.5016 13.5776 22.1697 13.9096L17.4683 18.611C17.3089 18.7704 17.0927 18.8599 16.8672 18.8599L14.9717 18.8599C14.5023 18.8599 14.1217 18.4794 14.1217 18.0099L14.1217 16.1144C14.1217 15.889 14.2113 15.6728 14.3707 15.5134L19.0721 10.812ZM19.6731 12.3323L19.0401 12.9653L20.0164 13.9416L20.6494 13.3086L19.6731 12.3323ZM18.9557 15.0022L17.9794 14.026L15.6217 16.3837L15.6217 17.3599L16.598 17.3599L18.9557 15.0022Z" fill="#393B55"/>
</svg>
