<svg width="24" height="24" viewBox="0 0 24 24" fill="none" xmlns="http://www.w3.org/2000/svg">
<path opacity="0.1" d="M10.8867 12.0991V14.6397H11.7984C12.8461 14.6397 13.4672 14.3843 13.4672 13.3671C13.4672 12.5608 12.9961 12.0991 12.2039 12.0991H10.8867Z" fill="#397DFF"/>
<path opacity="0.1" d="M12.5156 8.25V3.1875H5.4375V20.8125H18.5625V9.23438H13.5C13.2389 9.23438 12.9885 9.13066 12.8039 8.94606C12.6193 8.76145 12.5156 8.51107 12.5156 8.25ZM14.625 13.3688C14.625 14.6625 13.7625 15.5742 12.3703 15.5742H10.8867V17.8125C10.8867 17.9156 10.8023 18 10.6992 18H9.9375C9.83437 18 9.75 17.9156 9.75 17.8125V11.3438C9.75 11.2406 9.83437 11.1562 9.9375 11.1562V11.1586H12.375C13.7742 11.1586 14.625 12.0914 14.625 13.3688Z" fill="#397DFF"/>
<path d="M20.0297 6.76406L14.9859 1.72031C14.8453 1.57969 14.6555 1.5 14.4562 1.5H4.5C4.08516 1.5 3.75 1.83516 3.75 2.25V21.75C3.75 22.1648 4.08516 22.5 4.5 22.5H19.5C19.9148 22.5 20.25 22.1648 20.25 21.75V7.29609C20.25 7.09687 20.1703 6.90469 20.0297 6.76406ZM14.1094 3.22969L18.5203 7.64062H14.1094V3.22969ZM18.5625 20.8125H5.4375V3.1875H12.5156V8.25C12.5156 8.51107 12.6193 8.76145 12.8039 8.94606C12.9885 9.13066 13.2389 9.23438 13.5 9.23438H18.5625V20.8125Z" fill="#397DFF"/>
<path d="M9.9375 11.159C9.83437 11.1566 9.75 11.241 9.75 11.3441V17.8129C9.75 17.916 9.83437 18.0004 9.9375 18.0004H10.6992C10.8023 18.0004 10.8867 17.916 10.8867 17.8129V15.5746H12.3703C13.7625 15.5746 14.625 14.6629 14.625 13.3691C14.625 12.0918 13.7742 11.159 12.375 11.159H9.9375ZM13.4672 13.3668C13.4672 14.384 12.8461 14.6395 11.7984 14.6395H10.8867V12.0988H12.2039C12.9961 12.0988 13.4672 12.5605 13.4672 13.3668Z" fill="#397DFF"/>
</svg>
