<svg width="24" height="24" viewBox="0 0 24 24" fill="none" xmlns="http://www.w3.org/2000/svg">
<path fill-rule="evenodd" clip-rule="evenodd" d="M20.1213 1.87868C19.5587 1.31607 18.7956 1 18 1H11C10.7348 1 10.4804 1.10536 10.2929 1.29289L3.29289 8.29289C3.10536 8.48043 3 8.73478 3 9V20C3 20.7957 3.31607 21.5587 3.87868 22.1213C4.44129 22.6839 5.20435 23 6 23H18C18.7957 23 19.5587 22.6839 20.1213 22.1213C20.6839 21.5587 21 20.7957 21 20V4C21 3.20435 20.6839 2.44129 20.1213 1.87868ZM18 3C18.2652 3 18.5196 3.10536 18.7071 3.29289C18.8946 3.48043 19 3.73478 19 4V20C19 20.2652 18.8946 20.5196 18.7071 20.7071C18.5196 20.8946 18.2652 21 18 21H6C5.73478 21 5.48043 20.8946 5.29289 20.7071C5.10536 20.5196 5 20.2652 5 20V10H11C11.5523 10 12 9.55228 12 9V3H18ZM10 4.41421L6.41421 8H10V4.41421Z" fill="#393B55"/>
<path fill-rule="evenodd" clip-rule="evenodd" d="M17.6965 14.2824C18.0928 14.6671 18.1022 15.3002 17.7176 15.6965L13.8352 19.6965C13.4543 20.089 12.8287 20.1026 12.431 19.727L10.3134 17.727C9.91186 17.3478 9.89378 16.7149 10.273 16.3134C10.6522 15.9119 11.2851 15.8938 11.6866 16.273L13.0871 17.5957L16.2824 14.3035C16.6671 13.9072 17.3002 13.8978 17.6965 14.2824Z" fill="#393B55"/>
</svg>
