<svg width="24" height="24" viewBox="0 0 24 24" fill="none" xmlns="http://www.w3.org/2000/svg">
<path fill-rule="evenodd" clip-rule="evenodd" d="M1.0929 2.57912C1.25675 2.22596 1.61069 2 2.00001 2H13.013C13.5653 2 14.013 2.44772 14.013 3C14.013 3.55228 13.5653 4 13.013 4H4.15532L10.7636 11.8143C10.9162 11.9948 11 12.2236 11 12.46V18.382L13 19.382V12.46C13 12.2221 13.0848 11.992 13.2392 11.811L14.1392 10.756C14.4977 10.3358 15.1289 10.2858 15.549 10.6442C15.9692 11.0027 16.0192 11.6338 15.6608 12.054L15 12.8286V21C15 21.3466 14.8206 21.6684 14.5257 21.8507C14.2309 22.0329 13.8628 22.0494 13.5528 21.8944L9.5528 19.8944C9.21402 19.725 9.00001 19.3788 9.00001 19V12.8261L1.23644 3.64573C0.985046 3.34845 0.929037 2.93229 1.0929 2.57912Z" fill="#393B55"/>
<path d="M23 6C23 8.20914 21.2091 10 19 10C16.7909 10 15 8.20914 15 6C15 3.79086 16.7909 2 19 2C21.2091 2 23 3.79086 23 6Z" fill="#548EFF"/>
</svg>
