<svg width="24" height="24" viewBox="0 0 24 24" fill="none" xmlns="http://www.w3.org/2000/svg">
<path d="M9.16353 5.64556C9.14478 5.49087 8.95493 5.42525 8.84478 5.5354L7.82056 6.55962L4.68696 3.42837C4.65172 3.39348 4.60414 3.3739 4.55454 3.3739C4.50495 3.3739 4.45736 3.39348 4.42212 3.42837L3.42837 4.41978C3.39348 4.45502 3.3739 4.50261 3.3739 4.5522C3.3739 4.60179 3.39348 4.64938 3.42837 4.68462L6.56196 7.81821L5.53306 8.84712C5.50827 8.87203 5.49098 8.90339 5.48314 8.93764C5.47529 8.97189 5.47722 9.00765 5.4887 9.04086C5.50017 9.07407 5.52074 9.10339 5.54805 9.12549C5.57537 9.14759 5.60834 9.16158 5.64321 9.16587L9.3979 9.60884C9.51743 9.6229 9.62056 9.52212 9.6065 9.40025L9.16353 5.64556ZM9.40025 14.3924L5.64321 14.8354C5.48853 14.8542 5.4229 15.044 5.53306 15.1542L6.56196 16.1831L3.42837 19.312C3.39348 19.3472 3.3739 19.3948 3.3739 19.4444C3.3739 19.494 3.39348 19.5416 3.42837 19.5768L4.42212 20.5682C4.49478 20.6409 4.61431 20.6409 4.68696 20.5682L7.82056 17.437L8.84478 18.4612C8.86968 18.486 8.90104 18.5033 8.93529 18.5111C8.96954 18.5189 9.00531 18.517 9.03852 18.5055C9.07173 18.4941 9.10105 18.4735 9.12315 18.4462C9.14525 18.4189 9.15924 18.3859 9.16353 18.351L9.6065 14.5987C9.62056 14.4792 9.51978 14.3784 9.40025 14.3924ZM14.5987 9.6065L18.3557 9.16353C18.5104 9.14478 18.576 8.95493 18.4659 8.84478L17.437 7.81821L20.5706 4.68696C20.6432 4.61431 20.6432 4.49478 20.5706 4.42212L19.5768 3.43071C19.5416 3.39582 19.494 3.37625 19.4444 3.37625C19.3948 3.37625 19.3472 3.39582 19.312 3.43071L16.1784 6.55962L15.1542 5.5354C15.1292 5.51062 15.0979 5.49332 15.0636 5.48548C15.0294 5.47764 14.9936 5.47956 14.9604 5.49104C14.9272 5.50252 14.8979 5.52308 14.8758 5.5504C14.8537 5.57771 14.8397 5.61068 14.8354 5.64556L14.3924 9.3979C14.3784 9.51978 14.4792 9.62056 14.5987 9.6065ZM17.437 16.1807L18.4659 15.1518C18.4907 15.1269 18.5079 15.0955 18.5158 15.0613C18.5236 15.027 18.5217 14.9913 18.5102 14.9581C18.4988 14.9249 18.4782 14.8955 18.4509 14.8734C18.4236 14.8513 18.3906 14.8373 18.3557 14.8331L14.601 14.3901C14.4815 14.376 14.3784 14.4768 14.3924 14.5987L14.8354 18.3534C14.8542 18.5081 15.044 18.5737 15.1542 18.4635L16.1784 17.4393L19.312 20.5706C19.3846 20.6432 19.5042 20.6432 19.5768 20.5706L20.5706 19.5792C20.6432 19.5065 20.6432 19.387 20.5706 19.3143L17.437 16.1807Z" fill="#282A3C" fill-opacity="0.45"/>
</svg>
