<svg width="24" height="24" viewBox="0 0 24 24" fill="none" xmlns="http://www.w3.org/2000/svg">
<path d="M20.6273 3.60938H3.37257C2.79835 3.60938 2.43975 4.23516 2.72804 4.73438L8.1796 14.2359V19.6406C8.1796 20.0555 8.51241 20.3906 8.92491 20.3906H15.0749C15.4874 20.3906 15.8202 20.0555 15.8202 19.6406V14.2359L21.2741 4.73438C21.5601 4.23516 21.2015 3.60938 20.6273 3.60938ZM14.1421 18.7031H9.85772V15.2344H14.1444V18.7031H14.1421ZM14.3671 13.3922L14.1702 13.7344H9.82725L9.63038 13.3922L7.83741 10.2656H16.1624L14.3671 13.3922ZM17.0226 8.76562H6.97725L4.98507 5.29688H19.0148L17.0226 8.76562Z" fill="#282A3C" fill-opacity="0.45"/>
</svg>
