<svg width="24" height="24" viewBox="0 0 24 24" fill="none" xmlns="http://www.w3.org/2000/svg">
<g clip-path="url(#clip0_437_11241)">
<path fill-rule="evenodd" clip-rule="evenodd" d="M13.277 2.80875C13.277 3.5138 12.7054 4.08535 12.0004 4.08535C11.2954 4.08535 10.7238 3.5138 10.7238 2.80875C10.7238 2.10371 11.2954 1.53216 12.0004 1.53216C12.7054 1.53216 13.277 2.10371 13.277 2.80875ZM14.7597 3.33495C14.792 3.1645 14.8089 2.9886 14.8089 2.80876C14.8089 1.25766 13.5515 0.000244141 12.0004 0.000244141C10.4493 0.000244141 9.19189 1.25766 9.19189 2.80875C9.19189 2.94156 9.20111 3.07221 9.21894 3.2001L6.07542 5.01502C5.64572 4.74812 5.13867 4.59399 4.59562 4.59399C3.04452 4.59399 1.78711 5.85141 1.78711 7.4025C1.78711 8.37652 2.28294 9.23473 3.03597 9.7385V14.2579C2.28294 14.7617 1.78711 15.6199 1.78711 16.5939C1.78711 18.145 3.04452 19.4024 4.59562 19.4024C5.22588 19.4024 5.80766 19.1948 6.27629 18.8443L9.26143 20.5677C9.21592 20.7684 9.19189 20.9772 9.19189 21.1916C9.19189 22.7427 10.4493 24.0001 12.0004 24.0001C13.5515 24.0001 14.8089 22.7427 14.8089 21.1916C14.8089 20.9308 14.7734 20.6784 14.7069 20.4388L17.6157 18.7594C18.1015 19.1611 18.7247 19.4024 19.4042 19.4024C20.9553 19.4024 22.2127 18.145 22.2127 16.5939C22.2127 15.5139 21.6031 14.5762 20.7091 14.1063V9.8901C21.6031 9.4202 22.2127 8.48255 22.2127 7.4025C22.2127 5.85141 20.9553 4.59399 19.4042 4.59399C18.8101 4.59399 18.259 4.77848 17.8052 5.09329L14.7597 3.33495ZM19.1772 13.7944V10.202C17.7323 10.0864 16.5957 8.87718 16.5957 7.4025C16.5957 7.00916 16.6766 6.6347 16.8226 6.29485L14.071 4.70623C13.7239 5.08483 13.2743 5.36794 12.7661 5.51161V9.2934C13.9451 9.62673 14.8089 10.7106 14.8089 11.9963C14.8089 12.2781 14.7674 12.5503 14.6901 12.807L17.5689 14.4679C18.0076 14.089 18.5647 13.8434 19.1772 13.7944ZM16.7263 15.7451L13.8752 14.0875C13.378 14.5335 12.7209 14.8048 12.0004 14.8048C10.4493 14.8048 9.19189 13.5474 9.19189 11.9963C9.19189 10.7108 10.0555 9.62702 11.2342 9.29353V5.51148C10.6833 5.35561 10.2012 5.03583 9.84396 4.60816L7.12408 6.17848C7.30351 6.54844 7.40413 6.96372 7.40413 7.4025C7.40413 8.9536 6.14672 10.211 4.59562 10.211L4.56788 10.2109V13.7855L4.59562 13.7854C6.14672 13.7854 7.40413 15.0428 7.40413 16.5939C7.40413 16.9545 7.33619 17.2991 7.21242 17.6158L9.99687 19.2234C10.5064 18.7048 11.2159 18.3831 12.0004 18.3831C12.7371 18.3831 13.4076 18.6667 13.9086 19.1308L16.7431 17.4943C16.6475 17.2117 16.5957 16.9088 16.5957 16.5939C16.5957 16.298 16.6415 16.0129 16.7263 15.7451ZM12.0004 13.2729C12.7054 13.2729 13.277 12.7013 13.277 11.9963C13.277 11.2912 12.7054 10.7197 12.0004 10.7197C11.2954 10.7197 10.7238 11.2912 10.7238 11.9963C10.7238 12.7013 11.2954 13.2729 12.0004 13.2729ZM13.277 21.1916C13.277 21.8966 12.7054 22.4682 12.0004 22.4682C11.2954 22.4682 10.7238 21.8966 10.7238 21.1916C10.7238 20.4865 11.2954 19.915 12.0004 19.915C12.7054 19.915 13.277 20.4865 13.277 21.1916ZM4.59562 8.6791C5.30066 8.6791 5.87222 8.10755 5.87222 7.4025C5.87222 6.69746 5.30066 6.12591 4.59562 6.12591C3.89058 6.12591 3.31902 6.69746 3.31902 7.4025C3.31902 8.10755 3.89058 8.6791 4.59562 8.6791ZM5.87222 16.5939C5.87222 17.299 5.30066 17.8705 4.59562 17.8705C3.89058 17.8705 3.31902 17.299 3.31902 16.5939C3.31902 15.8889 3.89058 15.3173 4.59562 15.3173C5.30066 15.3173 5.87222 15.8889 5.87222 16.5939ZM19.4042 8.6791C20.1093 8.6791 20.6808 8.10755 20.6808 7.4025C20.6808 6.69746 20.1093 6.12591 19.4042 6.12591C18.6992 6.12591 18.1276 6.69746 18.1276 7.4025C18.1276 8.10755 18.6992 8.6791 19.4042 8.6791ZM20.6808 16.5939C20.6808 17.299 20.1093 17.8705 19.4042 17.8705C18.6992 17.8705 18.1276 17.299 18.1276 16.5939C18.1276 15.8889 18.6992 15.3173 19.4042 15.3173C20.1093 15.3173 20.6808 15.8889 20.6808 16.5939Z" fill="#393B55"/>
</g>
<defs>
<clipPath id="clip0_437_11241">
<rect width="24" height="24" fill="white"/>
</clipPath>
</defs>
</svg>
