<svg width="24" height="24" viewBox="0 0 24 24" fill="none" xmlns="http://www.w3.org/2000/svg">
<path fill-rule="evenodd" clip-rule="evenodd" d="M12 3C9.61305 3 7.32387 3.94821 5.63604 5.63604C3.94821 7.32387 3 9.61305 3 12C3 14.3869 3.94821 16.6761 5.63604 18.364C7.32387 20.0518 9.61305 21 12 21C14.3869 21 16.6761 20.0518 18.364 18.364C20.0518 16.6761 21 14.3869 21 12C21 9.61305 20.0518 7.32387 18.364 5.63604C16.6761 3.94821 14.3869 3 12 3ZM7.05025 7.05025C8.36301 5.7375 10.1435 5 12 5C13.8565 5 15.637 5.7375 16.9497 7.05025C18.2625 8.36301 19 10.1435 19 12C19 13.8565 18.2625 15.637 16.9497 16.9497C15.637 18.2625 13.8565 19 12 19C10.1435 19 8.36301 18.2625 7.05025 16.9497C5.7375 15.637 5 13.8565 5 12C5 10.1435 5.7375 8.36301 7.05025 7.05025ZM11.4402 9.8007C11.6439 9.68095 11.8834 9.63717 12.1162 9.67713C12.3491 9.71709 12.5603 9.8382 12.7123 10.019C12.8644 10.1998 12.9476 10.4286 12.9471 10.6649V10.667C12.9471 10.8026 12.8321 11.0417 12.3923 11.3349C12.2029 11.4611 12.0064 11.5601 11.8533 11.6282C11.7782 11.6616 11.717 11.686 11.6769 11.7013C11.6569 11.7089 11.6425 11.7141 11.6344 11.717L11.6274 11.7195C11.1056 11.8954 10.8241 12.4605 10.9985 12.9834C11.1732 13.5073 11.7395 13.7904 12.2635 13.6156L12.2647 13.6152L12.2661 13.6148L12.2694 13.6136L12.2783 13.6106L12.3047 13.6013C12.3259 13.5938 12.3544 13.5834 12.3891 13.5702C12.4584 13.5438 12.5535 13.5057 12.6658 13.4557C12.8877 13.3571 13.1912 13.206 13.5018 12.9989C14.0618 12.6255 14.946 11.8653 14.9471 10.6691C14.9486 9.96036 14.6991 9.27394 14.2429 8.73154C13.7866 8.18915 13.153 7.82581 12.4545 7.70594C11.7559 7.58607 11.0375 7.7174 10.4265 8.07666C9.8155 8.43592 9.35145 8.9999 9.11658 9.66863C8.93358 10.1897 9.20764 10.7605 9.72872 10.9435C10.2498 11.1265 10.8206 10.8524 11.0036 10.3314C11.0819 10.1084 11.2366 9.92046 11.4402 9.8007ZM12.0001 14.334C11.4478 14.334 11.0001 14.7817 11.0001 15.334C11.0001 15.8863 11.4478 16.334 12.0001 16.334H12.0071C12.5594 16.334 13.0071 15.8863 13.0071 15.334C13.0071 14.7817 12.5594 14.334 12.0071 14.334H12.0001Z" fill="#393B55"/>
</svg>
