<svg width="24" height="24" viewBox="0 0 24 24" fill="none" xmlns="http://www.w3.org/2000/svg">
<path d="M7.03125 6.48041C7.43734 6.71486 7.93766 6.71486 8.34375 6.48041C8.74984 6.24595 9 5.81266 9 5.34375C9 4.87484 8.74984 4.44155 8.34375 4.20709C7.93766 3.97264 7.43734 3.97264 7.03125 4.20709C6.62516 4.44155 6.375 4.87484 6.375 5.34375C6.375 5.81266 6.62516 6.24595 7.03125 6.48041ZM7.03125 13.1367C7.43734 13.3711 7.93766 13.3711 8.34375 13.1367C8.74984 12.9022 9 12.4689 9 12C9 11.5311 8.74984 11.0978 8.34375 10.8633C7.93766 10.6289 7.43734 10.6289 7.03125 10.8633C6.62516 11.0978 6.375 11.5311 6.375 12C6.375 12.4689 6.62516 12.9022 7.03125 13.1367ZM15 5.34375C15 5.81266 15.2502 6.24595 15.6562 6.48041C16.0623 6.71486 16.5627 6.71486 16.9688 6.48041C17.3748 6.24595 17.625 5.81266 17.625 5.34375C17.625 4.87484 17.3748 4.44155 16.9688 4.20709C16.5627 3.97264 16.0623 3.97264 15.6562 4.20709C15.2502 4.44155 15 4.87484 15 5.34375ZM15 12C15 12.4689 15.2502 12.9022 15.6562 13.1367C16.0623 13.3711 16.5627 13.3711 16.9688 13.1367C17.3748 12.9022 17.625 12.4689 17.625 12C17.625 11.5311 17.3748 11.0978 16.9688 10.8633C16.5627 10.6289 16.0623 10.6289 15.6562 10.8633C15.2502 11.0978 15 11.5311 15 12ZM7.03125 19.7929C7.43734 20.0274 7.93766 20.0274 8.34375 19.7929C8.74984 19.5585 9 19.1252 9 18.6562C9 18.1873 8.74984 17.754 8.34375 17.5196C7.93766 17.2851 7.43734 17.2851 7.03125 17.5196C6.62516 17.754 6.375 18.1873 6.375 18.6562C6.375 19.1252 6.62516 19.5585 7.03125 19.7929ZM15 18.6562C15 19.1252 15.2502 19.5585 15.6562 19.7929C16.0623 20.0274 16.5627 20.0274 16.9688 19.7929C17.3748 19.5585 17.625 19.1252 17.625 18.6562C17.625 18.1873 17.3748 17.754 16.9688 17.5196C16.5627 17.2851 16.0623 17.2851 15.6562 17.5196C15.2502 17.754 15 18.1873 15 18.6562Z" fill="#282A3C" fill-opacity="0.45"/>
</svg>
