<svg width="24" height="24" viewBox="0 0 24 24" fill="none" xmlns="http://www.w3.org/2000/svg">
<path d="M22.1841 11.8373L13.1279 2.78573L12.5208 2.1787C12.3825 2.0413 12.1955 1.96419 12.0005 1.96419C11.8056 1.96419 11.6185 2.0413 11.4802 2.1787L1.81694 11.8373C1.67521 11.9785 1.5632 12.1466 1.48753 12.3318C1.41185 12.5169 1.37403 12.7154 1.37631 12.9154C1.38569 13.7404 2.0724 14.399 2.8974 14.399H3.8935V22.0326H20.1076V14.399H21.1247C21.5255 14.399 21.9029 14.242 22.1865 13.9584C22.3261 13.8192 22.4367 13.6537 22.512 13.4714C22.5872 13.2892 22.6255 13.0938 22.6247 12.8967C22.6247 12.4982 22.4677 12.1209 22.1841 11.8373ZM13.313 20.3451H10.688V15.5639H13.313V20.3451ZM18.4201 12.7115V20.3451H14.813V15.0014C14.813 14.4834 14.3935 14.0639 13.8755 14.0639H10.1255C9.60756 14.0639 9.18803 14.4834 9.18803 15.0014V20.3451H5.581V12.7115H3.331L12.0029 4.04667L12.5443 4.58807L20.6724 12.7115H18.4201Z" fill="#282A3C" fill-opacity="0.45"/>
</svg>
