<svg width="24" height="24" viewBox="0 0 24 24" fill="none" xmlns="http://www.w3.org/2000/svg">
<path fill-rule="evenodd" clip-rule="evenodd" d="M12.5983 1.9451C12.2649 1.61172 11.7244 1.61172 11.391 1.9451L2.25003 11.0861C1.91666 11.4194 1.91665 11.9599 2.25003 12.2933C2.5834 12.6267 3.12391 12.6267 3.45729 12.2933L3.71269 12.0379V19.6219C3.71269 21.1036 4.91388 22.3048 6.39562 22.3048H17.3712C18.853 22.3048 20.0542 21.1036 20.0542 19.6219V11.8155L20.5427 12.3041C20.8761 12.6374 21.4166 12.6374 21.75 12.3041C22.0833 11.9707 22.0833 11.4302 21.75 11.0968L12.5983 1.9451ZM11.9946 3.75598L5.17611 10.5745V19.6219C5.17611 20.2954 5.7221 20.8414 6.39562 20.8414H8.58508V16.6914C8.58508 15.7485 9.34947 14.9841 10.2924 14.9841H13.4631C14.4061 14.9841 15.1704 15.7485 15.1704 16.6914L15.1704 20.8414H17.3712C18.0447 20.8414 18.5907 20.2954 18.5907 19.6219V10.3521L11.9946 3.75598ZM10.2924 16.4475C10.1577 16.4475 10.0485 16.5567 10.0485 16.6914V20.8378H13.707V16.6914C13.707 16.5567 13.5978 16.4475 13.4631 16.4475H10.2924Z" fill="#393B55"/>
</svg>
