<svg width="24" height="24" viewBox="0 0 24 24" fill="none" xmlns="http://www.w3.org/2000/svg">
<path opacity="0.1" d="M12.0021 4.04565L3.33027 12.7105H5.58027V20.3441H9.1873V15.0003C9.1873 14.4824 9.60683 14.0628 10.1248 14.0628H13.8748C14.3928 14.0628 14.8123 14.4824 14.8123 15.0003V20.3441H18.4193V12.7105H20.6717L12.5435 4.58706L12.0021 4.04565ZM22.1857 13.9574C22.0451 14.098 21.8787 14.2105 21.6982 14.2832C21.8787 14.2082 22.0451 14.098 22.1857 13.9574ZM1.39667 13.1441C1.51386 13.8542 2.13261 14.398 2.87558 14.398H2.89667C2.14902 14.398 1.5162 13.8589 1.39667 13.1441ZM1.37558 12.898V12.8535V12.898ZM1.37792 12.8371C1.38027 12.7644 1.38964 12.6941 1.40136 12.6238C1.3873 12.6917 1.38027 12.7644 1.37792 12.8371Z" fill="#397DFF"/>
<path d="M22.2893 11.9527C22.2893 11.9504 22.2869 11.9504 22.2869 11.948L22.2447 11.8988C22.2424 11.8964 22.24 11.8918 22.2354 11.8894C22.219 11.8707 22.2002 11.8519 22.1838 11.8332L13.1275 2.78395L12.5205 2.17691C12.3822 2.03952 12.1952 1.9624 12.0002 1.9624C11.8052 1.9624 11.6182 2.03952 11.4799 2.17691L1.81661 11.8355C1.64203 12.0092 1.5132 12.2233 1.44161 12.4589L1.42755 12.5082L1.42051 12.5339L1.41348 12.5621C1.4088 12.5785 1.40645 12.5949 1.40411 12.6113C1.40411 12.6136 1.40411 12.6183 1.40176 12.6207C1.3877 12.691 1.38067 12.7613 1.37833 12.8339V12.9113C1.37833 12.923 1.37833 12.9347 1.38067 12.9464C1.38067 12.9582 1.38067 12.9675 1.38301 12.9793C1.38301 12.991 1.38536 13.0027 1.38536 13.0144C1.38536 13.0285 1.3877 13.0425 1.39005 13.0566C1.39005 13.0636 1.39239 13.0707 1.39239 13.0777L1.39942 13.1363V13.1386C1.51895 13.8535 2.15411 14.3925 2.89942 14.3925H3.89551V22.0308H20.1072V14.3972H21.1244C21.326 14.3972 21.5205 14.3574 21.6986 14.2824C21.8768 14.2074 22.0432 14.0972 22.1861 13.9566C22.3258 13.8174 22.4364 13.6519 22.5117 13.4697C22.5869 13.2874 22.6252 13.092 22.6244 12.8949C22.6244 12.5504 22.5072 12.2199 22.2893 11.9527ZM13.3127 20.3433H10.6877V15.5621H13.3127V20.3433ZM18.4197 12.7097V20.3433H14.8127V14.9996C14.8127 14.4816 14.3932 14.0621 13.8752 14.0621H10.1252C9.60723 14.0621 9.1877 14.4816 9.1877 14.9996V20.3433H5.58067V12.7097H3.33067L12.0025 4.04488L12.544 4.58629L20.6721 12.7097H18.4197Z" fill="#397DFF"/>
</svg>
