<svg width="24" height="24" viewBox="0 0 24 24" fill="none" xmlns="http://www.w3.org/2000/svg">
<path fill-rule="evenodd" clip-rule="evenodd" d="M11 4C7.13401 4 4 7.13401 4 11C4 14.866 7.13401 18 11 18C14.866 18 18 14.866 18 11C18 7.13401 14.866 4 11 4ZM2 11C2 6.02944 6.02944 2 11 2C15.9706 2 20 6.02944 20 11C20 13.125 19.2636 15.0779 18.032 16.6175L21.7073 20.2928C22.0978 20.6834 22.0978 21.3165 21.7073 21.7071C21.3168 22.0976 20.6836 22.0976 20.2931 21.7071L16.6178 18.0318C15.0781 19.2635 13.1251 20 11 20C6.02944 20 2 15.9706 2 11ZM11 6.46436C11.5523 6.46436 12 6.91207 12 7.46436V9.99989H14.5355C15.0878 9.99989 15.5355 10.4476 15.5355 10.9999C15.5355 11.5522 15.0878 11.9999 14.5355 11.9999H12V14.5354C12 15.0877 11.5523 15.5354 11 15.5354C10.4477 15.5354 10 15.0877 10 14.5354V11.9999H7.46447C6.91218 11.9999 6.46447 11.5522 6.46447 10.9999C6.46447 10.4476 6.91218 9.99989 7.46447 9.99989H10V7.46436C10 6.91207 10.4477 6.46436 11 6.46436Z" fill="#393B55"/>
</svg>
