<svg width="24" height="24" viewBox="0 0 24 24" fill="none" xmlns="http://www.w3.org/2000/svg">
<path d="M20.7474 10.4609L20.7427 10.4422L18.1131 3.76013C17.9959 3.38279 17.6466 3.12263 17.2506 3.12263H6.59118C6.19274 3.12263 5.83883 3.38748 5.72633 3.76951L3.26774 10.3836L3.26071 10.4L3.25602 10.4187C3.22555 10.5336 3.21618 10.6508 3.23258 10.7656C3.23024 10.8031 3.22789 10.8406 3.22789 10.8781V19.4539C3.22851 19.8316 3.37885 20.1937 3.64595 20.4608C3.91306 20.7279 4.27515 20.8783 4.65289 20.8789H19.3529C20.1381 20.8789 20.7779 20.239 20.7802 19.4539V10.8781C20.7802 10.8476 20.7802 10.8172 20.7779 10.7914C20.7873 10.6765 20.7779 10.5664 20.7474 10.4609ZM13.8146 9.4531L13.8076 9.82107C13.7888 10.8734 13.0623 11.5812 12.0006 11.5812C11.4826 11.5812 11.0373 11.4148 10.7162 11.0984C10.3951 10.782 10.2193 10.3414 10.2099 9.82107L10.2029 9.4531H5.37946L7.24274 4.92263H16.599L18.5138 9.4531H13.8146ZM5.02555 11.2531H8.71227C9.2818 12.5914 10.4935 13.3812 12.0029 13.3812C12.7927 13.3812 13.5263 13.1609 14.1193 12.7437C14.6396 12.3781 15.0451 11.8672 15.3076 11.2531H18.9756V19.0789H5.02555V11.2531Z" fill="#282A3C" fill-opacity="0.45"/>
</svg>
