<svg width="24" height="24" viewBox="0 0 24 24" fill="none" xmlns="http://www.w3.org/2000/svg">
<path fill-rule="evenodd" clip-rule="evenodd" d="M1 12C1 5.92472 5.92472 1 12 1C18.0753 1 23 5.92472 23 12C23 18.0753 18.0753 23 12 23C5.92472 23 1 18.0753 1 12ZM12 3C7.02928 3 3 7.02928 3 12C3 16.9707 7.02928 21 12 21C16.9707 21 21 16.9707 21 12C21 7.02928 16.9707 3 12 3ZM10.99 8C10.99 7.44772 11.4377 7 11.99 7H12C12.5523 7 13 7.44772 13 8C13 8.55228 12.5523 9 12 9H11.99C11.4377 9 10.99 8.55228 10.99 8ZM12 11C12.5523 11 13 11.4477 13 12V16C13 16.5523 12.5523 17 12 17C11.4477 17 11 16.5523 11 16V12C11 11.4477 11.4477 11 12 11Z" fill="#393B55"/>
</svg>
