<svg width="24" height="24" viewBox="0 0 24 24" fill="none" xmlns="http://www.w3.org/2000/svg">
<path d="M13.4539 15.5961C13.4186 15.5612 13.3711 15.5416 13.3215 15.5416C13.2719 15.5416 13.2243 15.5612 13.189 15.5961L10.4656 18.3195C9.20467 19.5804 7.07654 19.714 5.68435 18.3195C4.28982 16.925 4.42342 14.7992 5.68435 13.5383L8.40779 10.8148C8.48045 10.7422 8.48045 10.6226 8.40779 10.55L7.47498 9.61717C7.43974 9.58227 7.39215 9.5627 7.34256 9.5627C7.29296 9.5627 7.24538 9.58227 7.21013 9.61717L4.4867 12.3406C2.50388 14.3234 2.50388 17.532 4.4867 19.5125C6.46951 21.4929 9.6781 21.4953 11.6586 19.5125L14.382 16.789C14.4547 16.7164 14.4547 16.5969 14.382 16.5242L13.4539 15.5961ZM19.5148 4.4867C17.532 2.50388 14.3234 2.50388 12.3429 4.4867L9.61717 7.21014C9.58227 7.24538 9.5627 7.29296 9.5627 7.34256C9.5627 7.39215 9.58227 7.43974 9.61717 7.47498L10.5476 8.40545C10.6203 8.4781 10.7398 8.4781 10.8125 8.40545L13.5359 5.68201C14.7969 4.42107 16.925 4.28748 18.3172 5.68201C19.7117 7.07654 19.5781 9.20232 18.3172 10.4633L15.5937 13.1867C15.5588 13.2219 15.5393 13.2695 15.5393 13.3191C15.5393 13.3687 15.5588 13.4163 15.5937 13.4515L16.5265 14.3844C16.5992 14.457 16.7187 14.457 16.7914 14.3844L19.5148 11.6609C21.4953 9.6781 21.4953 6.46951 19.5148 4.4867ZM14.3 8.72654C14.2647 8.69165 14.2172 8.67207 14.1676 8.67207C14.118 8.67207 14.0704 8.69165 14.0351 8.72654L8.72654 14.0328C8.69165 14.068 8.67207 14.1156 8.67207 14.1652C8.67207 14.2148 8.69165 14.2624 8.72654 14.2976L9.65467 15.2258C9.72732 15.2984 9.84685 15.2984 9.91951 15.2258L15.2258 9.91951C15.2984 9.84685 15.2984 9.72732 15.2258 9.65467L14.3 8.72654Z" fill="#282A3C" fill-opacity="0.45"/>
</svg>
