<svg width="24" height="24" viewBox="0 0 24 24" fill="none" xmlns="http://www.w3.org/2000/svg">
<path d="M7.34961 12.5562C8.05238 12.5562 8.72667 12.8356 9.22363 13.3325C9.72055 13.8294 9.99994 14.5038 10 15.2065C9.99983 16.3473 9.24457 17.135 8.7998 17.5708L8.79883 17.5698L6.70703 19.6636C6.31656 20.0538 5.68344 20.0538 5.29297 19.6636L3.20508 17.5747L3.02246 17.394C2.57382 16.9331 2.00015 16.2066 2 15.2065C2.00006 14.5038 2.27945 13.8294 2.77637 13.3325C3.27333 12.8356 3.94762 12.5562 4.65039 12.5562C5.01442 12.5562 5.38269 12.6093 5.75391 12.771C5.839 12.8081 5.92082 12.8498 6 12.895C6.07918 12.8498 6.161 12.8081 6.24609 12.771C6.61731 12.6093 6.98558 12.5562 7.34961 12.5562ZM21 17.0005C21.5523 17.0005 22 17.4482 22 18.0005C21.9997 18.5525 21.5521 19.0005 21 19.0005H13C12.4479 19.0005 12.0003 18.5525 12 18.0005C12 17.4482 12.4477 17.0005 13 17.0005H21ZM7.34961 14.5562C7.18614 14.5562 7.10399 14.5783 7.04492 14.604C6.97938 14.6326 6.87482 14.6951 6.70703 14.8628C6.31651 15.2533 5.68349 15.2533 5.29297 14.8628C5.12518 14.6951 5.02062 14.6326 4.95508 14.604C4.89601 14.5783 4.81386 14.5562 4.65039 14.5562C4.47806 14.5562 4.31232 14.6248 4.19043 14.7466C4.06859 14.8684 4.00006 15.0342 4 15.2065C4.00014 15.4137 4.11525 15.6426 4.44141 15.9839L4.59473 16.1372L4.60742 16.1489L6 17.5415L7.39258 16.1489L7.40039 16.1421C7.84921 15.7023 7.99983 15.4394 8 15.2065C7.99994 15.0342 7.93141 14.8684 7.80957 14.7466C7.68768 14.6248 7.52194 14.5562 7.34961 14.5562ZM21 11.0005C21.5523 11.0005 22 11.4482 22 12.0005C21.9997 12.5525 21.5521 13.0005 21 13.0005H13C12.4479 13.0005 12.0003 12.5525 12 12.0005C12 11.4482 12.4477 11.0005 13 11.0005H21ZM7.34961 4.04346C8.05243 4.04346 8.72666 4.32285 9.22363 4.81982C9.7206 5.3168 10 5.99102 10 6.69385C9.99983 7.83469 9.24455 8.62231 8.7998 9.05811L8.79883 9.05713L6.70703 11.1509C6.31656 11.5411 5.68344 11.5411 5.29297 11.1509L3.20508 9.06201L3.02246 8.88135C2.5738 8.42037 2.00015 7.69403 2 6.69385C2 5.99102 2.2794 5.3168 2.77637 4.81982C3.27334 4.32285 3.94757 4.04346 4.65039 4.04346C5.01445 4.04349 5.38266 4.09661 5.75391 4.2583C5.83904 4.2954 5.92078 4.3371 6 4.38232C6.07922 4.3371 6.16096 4.2954 6.24609 4.2583C6.61734 4.09661 6.98555 4.04349 7.34961 4.04346ZM7.34961 6.04346C7.18605 6.04349 7.104 6.06558 7.04492 6.09131C6.97936 6.11987 6.87489 6.18227 6.70703 6.3501C6.31651 6.74062 5.68349 6.74062 5.29297 6.3501C5.12511 6.18227 5.02064 6.11987 4.95508 6.09131C4.896 6.06558 4.81395 6.04349 4.65039 6.04346C4.478 6.04346 4.31233 6.11199 4.19043 6.23389C4.06853 6.35579 4 6.52146 4 6.69385C4.00014 6.90098 4.11515 7.12981 4.44141 7.47119L4.59473 7.62451L4.60742 7.63623L6 9.02881L7.39258 7.63623L7.40039 7.62939C7.84931 7.18951 7.99983 6.92669 8 6.69385C8 6.52146 7.93147 6.35579 7.80957 6.23389C7.68767 6.11199 7.522 6.04346 7.34961 6.04346ZM21 5.00049C21.5523 5.00049 22 5.4482 22 6.00049C21.9997 6.55255 21.5521 7.00049 21 7.00049H13C12.4479 7.00049 12.0003 6.55255 12 6.00049C12 5.4482 12.4477 5.00049 13 5.00049H21Z" fill="#393B55"/>
</svg>
