<svg width="131" height="24" viewBox="0 0 131 24" fill="none" xmlns="http://www.w3.org/2000/svg">
<path fill-rule="evenodd" clip-rule="evenodd" d="M19.2 12C19.2 8.02355 15.9764 4.8 12 4.8C8.02355 4.8 4.8 8.02355 4.8 12C4.8 15.9765 8.02355 19.2 12 19.2C15.9764 19.2 19.2 15.9765 19.2 12ZM24 12C24 5.37258 18.6274 1.09312e-06 12 1.38281e-06C5.37258 1.67251e-06 -8.1423e-07 5.37259 -5.24537e-07 12C-2.34843e-07 18.6274 5.37258 24 12 24C18.6274 24 24 18.6274 24 12Z" fill="#397DFF"/>
<path d="M38.7104 19.9777C37.424 19.9777 36.1664 19.8241 34.9376 19.5169C33.7088 19.1905 32.7296 18.7873 32 18.3073L33.4976 15.0817C34.1888 15.5233 35.024 15.8881 36.0032 16.1761C36.9824 16.4449 37.9424 16.5793 38.8832 16.5793C40.784 16.5793 41.7344 16.1089 41.7344 15.1681C41.7344 14.7265 41.4752 14.4097 40.9568 14.2177C40.4384 14.0257 39.6416 13.8625 38.5664 13.7281C37.2992 13.5361 36.2528 13.3153 35.4272 13.0657C34.6016 12.8161 33.8816 12.3745 33.2672 11.7409C32.672 11.1073 32.3744 10.2049 32.3744 9.03366C32.3744 8.05446 32.6528 7.19046 33.2096 6.44166C33.7856 5.67366 34.6112 5.07846 35.6864 4.65606C36.7808 4.23366 38.0672 4.02246 39.5456 4.02246C40.64 4.02246 41.7248 4.14726 42.8 4.39686C43.8944 4.62726 44.7968 4.95366 45.5072 5.37606L44.0096 8.57286C42.6464 7.80486 41.1584 7.42086 39.5456 7.42086C38.5856 7.42086 37.8656 7.55526 37.3856 7.82406C36.9056 8.09286 36.6656 8.43846 36.6656 8.86086C36.6656 9.34086 36.9248 9.67686 37.4432 9.86886C37.9616 10.0609 38.7872 10.2433 39.92 10.4161C41.1872 10.6273 42.224 10.8577 43.0304 11.1073C43.8368 11.3377 44.5376 11.7697 45.1328 12.4033C45.728 13.0369 46.0256 13.9201 46.0256 15.0529C46.0256 16.0129 45.7376 16.8673 45.1616 17.6161C44.5856 18.3649 43.7408 18.9505 42.6272 19.3729C41.5328 19.7761 40.2272 19.9777 38.7104 19.9777Z" fill="#397DFF"/>
<path d="M68.6408 4.02246C70.58 4.02246 72.116 4.59846 73.2488 5.75046C74.4008 6.88326 74.9768 8.59206 74.9768 10.8769V19.7473H70.484V11.5681C70.484 10.3393 70.2248 9.42726 69.7064 8.83206C69.2072 8.21766 68.4872 7.91046 67.5464 7.91046C66.4904 7.91046 65.6552 8.25606 65.0408 8.94726C64.4264 9.61926 64.1192 10.6273 64.1192 11.9713V19.7473H59.6264V11.5681C59.6264 9.12966 58.6472 7.91046 56.6888 7.91046C55.652 7.91046 54.8264 8.25606 54.212 8.94726C53.5976 9.61926 53.2904 10.6273 53.2904 11.9713V19.7473H48.7976V4.25286H53.0888V6.03846C53.6648 5.38566 54.3656 4.88646 55.1912 4.54086C56.036 4.19526 56.9576 4.02246 57.956 4.02246C59.0504 4.02246 60.0392 4.24326 60.9224 4.68486C61.8056 5.10726 62.516 5.73126 63.0536 6.55686C63.6872 5.75046 64.484 5.12646 65.444 4.68486C66.4232 4.24326 67.4888 4.02246 68.6408 4.02246Z" fill="#397DFF"/>
<path d="M94.3502 12.0577C94.3502 12.1153 94.3214 12.5185 94.2638 13.2673H82.5422C82.7534 14.2273 83.2526 14.9857 84.0398 15.5425C84.827 16.0993 85.8062 16.3777 86.9774 16.3777C87.7838 16.3777 88.4942 16.2625 89.1086 16.0321C89.7422 15.7825 90.3278 15.3985 90.8654 14.8801L93.2558 17.4721C91.7966 19.1425 89.6654 19.9777 86.8622 19.9777C85.115 19.9777 83.5694 19.6417 82.2254 18.9697C80.8814 18.2785 79.8446 17.3281 79.115 16.1185C78.3854 14.9089 78.0206 13.5361 78.0206 12.0001C78.0206 10.4833 78.3758 9.12006 79.0862 7.91046C79.8158 6.68166 80.8046 5.73126 82.0526 5.05926C83.3198 4.36806 84.731 4.02246 86.2862 4.02246C87.803 4.02246 89.1758 4.34886 90.4046 5.00166C91.6334 5.65446 92.5934 6.59526 93.2846 7.82406C93.995 9.03366 94.3502 10.4449 94.3502 12.0577ZM86.315 7.42086C85.2974 7.42086 84.443 7.70886 83.7518 8.28486C83.0606 8.86086 82.6382 9.64806 82.4846 10.6465H90.1166C89.963 9.66726 89.5406 8.88966 88.8494 8.31366C88.1582 7.71846 87.3134 7.42086 86.315 7.42086Z" fill="#397DFF"/>
<path d="M106.759 4.02246C108.679 4.02246 110.225 4.59846 111.396 5.75046C112.586 6.90246 113.181 8.61126 113.181 10.8769V19.7473H108.689V11.5681C108.689 10.3393 108.42 9.42726 107.882 8.83206C107.345 8.21766 106.567 7.91046 105.549 7.91046C104.417 7.91046 103.514 8.26566 102.842 8.97606C102.17 9.66726 101.834 10.7041 101.834 12.0865V19.7473H97.3413V4.25286H101.633V6.06726C102.228 5.41446 102.967 4.91526 103.85 4.56966C104.733 4.20486 105.703 4.02246 106.759 4.02246Z" fill="#397DFF"/>
<path d="M123.503 4.02246C125.903 4.02246 127.747 4.59846 129.033 5.75046C130.319 6.88326 130.963 8.60166 130.963 10.9057V19.7473H126.758V17.8177C125.913 19.2577 124.339 19.9777 122.035 19.9777C120.844 19.9777 119.807 19.7761 118.924 19.3729C118.06 18.9697 117.398 18.4129 116.937 17.7025C116.476 16.9921 116.246 16.1857 116.246 15.2833C116.246 13.8433 116.783 12.7105 117.859 11.8849C118.953 11.0593 120.633 10.6465 122.899 10.6465H126.47C126.47 9.66726 126.172 8.91846 125.577 8.40006C124.982 7.86246 124.089 7.59366 122.899 7.59366C122.073 7.59366 121.257 7.72806 120.451 7.99686C119.663 8.24646 118.991 8.59206 118.435 9.03366L116.822 5.89446C117.667 5.29926 118.675 4.83846 119.846 4.51206C121.036 4.18566 122.255 4.02246 123.503 4.02246ZM123.158 16.9537C123.926 16.9537 124.607 16.7809 125.203 16.4353C125.798 16.0705 126.22 15.5425 126.47 14.8513V13.2673H123.388C121.545 13.2673 120.623 13.8721 120.623 15.0817C120.623 15.6577 120.844 16.1185 121.286 16.4641C121.747 16.7905 122.371 16.9537 123.158 16.9537Z" fill="#397DFF"/>
</svg>
