<svg width="24" height="24" viewBox="0 0 24 24" fill="none" xmlns="http://www.w3.org/2000/svg">
<path fill-rule="evenodd" clip-rule="evenodd" d="M5.81301 7.45499V16.545C4.77701 16.896 4.03101 17.877 4.03101 19.031C4.03101 20.481 5.20701 21.656 6.65601 21.656C8.10601 21.656 9.28101 20.481 9.28101 19.031C9.28101 17.877 8.53601 16.896 7.50001 16.545V9.88199L16.558 12.848L16.559 15.096C15.492 15.43 14.719 16.425 14.719 17.602C14.719 19.051 15.894 20.227 17.344 20.227C18.794 20.227 19.969 19.051 19.969 17.602C19.969 16.469 19.251 15.504 18.246 15.136V12.487C18.246 11.973 17.915 11.517 17.427 11.357L7.50001 8.10599V7.45499C8.53601 7.10399 9.28101 6.12299 9.28101 4.96899C9.28101 3.51899 8.10601 2.34399 6.65601 2.34399C5.20701 2.34399 4.03101 3.51899 4.03101 4.96899C4.03101 6.12299 4.77701 7.10399 5.81301 7.45499ZM6.65601 20.156C6.03501 20.156 5.53101 19.653 5.53101 19.031C5.53101 18.41 6.03501 17.906 6.65601 17.906C7.27801 17.906 7.78101 18.41 7.78101 19.031C7.78101 19.653 7.27801 20.156 6.65601 20.156ZM17.344 18.727C16.722 18.727 16.219 18.223 16.219 17.602C16.219 16.98 16.722 16.477 17.344 16.477C17.965 16.477 18.469 16.98 18.469 17.602C18.469 18.223 17.965 18.727 17.344 18.727ZM6.65601 6.09399C6.03501 6.09399 5.53101 5.58999 5.53101 4.96899C5.53101 4.34699 6.03501 3.84399 6.65601 3.84399C7.27801 3.84399 7.78101 4.34699 7.78101 4.96899C7.78101 5.58999 7.27801 6.09399 6.65601 6.09399Z" fill="#282A3C" fill-opacity="0.45"/>
</svg>
