<svg width="24" height="24" viewBox="0 0 24 24" fill="none" xmlns="http://www.w3.org/2000/svg">
<path opacity="0.1" d="M18.1719 5.83264C17.3735 5.03157 16.426 4.39458 15.3828 3.95764C14.3129 3.5081 13.1636 3.27778 12.0031 3.28029H11.9633C9.62656 3.28967 7.43984 4.20373 5.8039 5.85607C4.16562 7.50842 3.27265 9.70217 3.28202 12.0389C3.28906 13.4522 3.64062 14.8561 4.30156 16.0959L4.40703 16.2928V19.5928H7.70703L7.9039 19.6983C9.14374 20.3592 10.5477 20.7108 11.9609 20.7178H12.0008C14.3211 20.7178 16.5008 19.8225 18.1437 18.1959C19.7937 16.56 20.7102 14.3733 20.7242 12.0389C20.7289 10.8529 20.5016 9.70451 20.0469 8.6217C19.6096 7.57868 18.9727 6.63122 18.1719 5.83264ZM7.31328 13.124C7.01888 13.118 6.73858 12.9969 6.5325 12.7865C6.32643 12.5762 6.21101 12.2935 6.21101 11.999C6.21101 11.7046 6.32643 11.4219 6.5325 11.2115C6.73858 11.0012 7.01888 10.8801 7.31328 10.874C7.60767 10.8801 7.88797 11.0012 8.09405 11.2115C8.30012 11.4219 8.41554 11.7046 8.41554 11.999C8.41554 12.2935 8.30012 12.5762 8.09405 12.7865C7.88797 12.9969 7.60767 13.118 7.31328 13.124ZM12.0008 13.124C11.7064 13.118 11.4261 12.9969 11.22 12.7865C11.0139 12.5762 10.8985 12.2935 10.8985 11.999C10.8985 11.7046 11.0139 11.4219 11.22 11.2115C11.4261 11.0012 11.7064 10.8801 12.0008 10.874C12.2952 10.8801 12.5755 11.0012 12.7816 11.2115C12.9876 11.4219 13.103 11.7046 13.103 11.999C13.103 12.2935 12.9876 12.5762 12.7816 12.7865C12.5755 12.9969 12.2952 13.118 12.0008 13.124ZM16.6883 13.124C16.3939 13.118 16.1136 12.9969 15.9075 12.7865C15.7014 12.5762 15.586 12.2935 15.586 11.999C15.586 11.7046 15.7014 11.4219 15.9075 11.2115C16.1136 11.0012 16.3939 10.8801 16.6883 10.874C16.9827 10.8801 17.263 11.0012 17.4691 11.2115C17.6751 11.4219 17.7905 11.7046 17.7905 11.999C17.7905 12.2935 17.6751 12.5762 17.4691 12.7865C17.263 12.9969 16.9827 13.118 16.6883 13.124Z" fill="#397DFF"/>
<path d="M15.5625 12C15.5625 12.2984 15.681 12.5845 15.892 12.7955C16.103 13.0065 16.3891 13.125 16.6875 13.125C16.9859 13.125 17.272 13.0065 17.483 12.7955C17.694 12.5845 17.8125 12.2984 17.8125 12C17.8125 11.7016 17.694 11.4155 17.483 11.2045C17.272 10.9935 16.9859 10.875 16.6875 10.875C16.3891 10.875 16.103 10.9935 15.892 11.2045C15.681 11.4155 15.5625 11.7016 15.5625 12ZM6.1875 12C6.1875 12.2984 6.30603 12.5845 6.517 12.7955C6.72798 13.0065 7.01413 13.125 7.3125 13.125C7.61087 13.125 7.89702 13.0065 8.108 12.7955C8.31897 12.5845 8.4375 12.2984 8.4375 12C8.4375 11.7016 8.31897 11.4155 8.108 11.2045C7.89702 10.9935 7.61087 10.875 7.3125 10.875C7.01413 10.875 6.72798 10.9935 6.517 11.2045C6.30603 11.4155 6.1875 11.7016 6.1875 12Z" fill="#397DFF"/>
<path d="M21.6846 7.93125C21.1549 6.67266 20.3955 5.54297 19.4275 4.57266C18.4663 3.60796 17.3253 2.84114 16.0689 2.31563C14.7799 1.77422 13.4111 1.5 12.0002 1.5H11.9533C10.533 1.50703 9.15721 1.78828 7.86346 2.34141C6.61789 2.87232 5.48752 3.64049 4.53534 4.60312C3.57674 5.57109 2.8244 6.69609 2.30409 7.95C1.76502 9.24844 1.49315 10.6289 1.50018 12.0492C1.50813 13.6769 1.89321 15.2806 2.62518 16.7344V20.2969C2.62518 20.5828 2.73877 20.857 2.94095 21.0592C3.14314 21.2614 3.41737 21.375 3.7033 21.375H7.26815C8.72196 22.107 10.3256 22.492 11.9533 22.5H12.0025C13.4064 22.5 14.7681 22.2281 16.0502 21.6961C17.3002 21.1768 18.437 20.419 19.3971 19.4648C20.365 18.5063 21.1267 17.3859 21.6588 16.1367C22.2119 14.843 22.4931 13.4672 22.5002 12.0469C22.5072 10.6195 22.2306 9.23438 21.6846 7.93125ZM18.1431 18.1969C16.5002 19.8234 14.3205 20.7188 12.0002 20.7188H11.9603C10.5471 20.7117 9.14315 20.3602 7.9033 19.6992L7.70643 19.5938H4.40643V16.2938L4.30096 16.0969C3.64002 14.857 3.28846 13.4531 3.28143 12.0398C3.27205 9.70312 4.16502 7.50937 5.8033 5.85703C7.43924 4.20469 9.62596 3.29062 11.9627 3.28125H12.0025C13.1744 3.28125 14.3111 3.50859 15.3822 3.95859C16.4275 4.39687 17.365 5.02734 18.1713 5.83359C18.9752 6.6375 19.608 7.57734 20.0463 8.62266C20.501 9.70547 20.7283 10.8539 20.7236 12.0398C20.7096 14.3742 19.7931 16.5609 18.1431 18.1969Z" fill="#397DFF"/>
<path d="M10.875 12C10.875 12.2984 10.9935 12.5845 11.2045 12.7955C11.4155 13.0065 11.7016 13.125 12 13.125C12.2984 13.125 12.5845 13.0065 12.7955 12.7955C13.0065 12.5845 13.125 12.2984 13.125 12C13.125 11.7016 13.0065 11.4155 12.7955 11.2045C12.5845 10.9935 12.2984 10.875 12 10.875C11.7016 10.875 11.4155 10.9935 11.2045 11.2045C10.9935 11.4155 10.875 11.7016 10.875 12Z" fill="#397DFF"/>
</svg>
