<svg width="24" height="24" viewBox="0 0 24 24" fill="none" xmlns="http://www.w3.org/2000/svg">
<path d="M12.75 7C12.75 6.58579 12.4142 6.25 12 6.25C11.5858 6.25 11.25 6.58579 11.25 7V10.25C11.25 10.6642 11.5858 11 12 11C12.4142 11 12.75 10.6642 12.75 10.25V7Z" fill="#393B55"/>
<path d="M12.565 13.5035C12.8436 13.197 12.821 12.7227 12.5145 12.444C12.208 12.1654 11.7337 12.188 11.455 12.4945L11.445 12.5055C11.1664 12.812 11.189 13.2863 11.4955 13.565C11.802 13.8436 12.2763 13.821 12.555 13.5145L12.565 13.5035Z" fill="#393B55"/>
<path fill-rule="evenodd" clip-rule="evenodd" d="M5 2.25C4.27065 2.25 3.57118 2.53973 3.05546 3.05546C2.53973 3.57118 2.25 4.27065 2.25 5V20.29C2.2501 20.5698 2.33717 20.843 2.49915 21.0712C2.66114 21.2994 2.89004 21.4716 3.15419 21.564C3.41833 21.6565 3.70467 21.6645 3.97359 21.5871C4.24221 21.5097 4.48019 21.3509 4.65467 21.1325L6.98547 18.2188C7.10253 18.0726 7.25114 17.9544 7.41991 17.8733C7.58876 17.7922 7.77368 17.75 7.961 17.75H19C19.7293 17.75 20.4288 17.4603 20.9445 16.9445C21.4603 16.4288 21.75 15.7293 21.75 15V5C21.75 4.27065 21.4603 3.57118 20.9445 3.05546C20.4288 2.53973 19.7293 2.25 19 2.25H5ZM4.11612 4.11612C4.35054 3.8817 4.66848 3.75 5 3.75H19C19.3315 3.75 19.6495 3.8817 19.8839 4.11612C20.1183 4.35054 20.25 4.66848 20.25 5V15C20.25 15.3315 20.1183 15.6495 19.8839 15.8839C19.6495 16.1183 19.3315 16.25 19 16.25H7.961C7.54882 16.2501 7.14183 16.3428 6.77031 16.5213C6.39879 16.6998 6.07214 16.9595 5.81453 17.2812L3.75 19.8621V5C3.75 4.66848 3.8817 4.35054 4.11612 4.11612Z" fill="#393B55"/>
</svg>
