<svg width="24" height="24" viewBox="0 0 24 24" fill="none" xmlns="http://www.w3.org/2000/svg">
<path d="M5.60629 3.05009C7.71558 1.54335 10.2898 0.8297 12.8738 1.03544C15.458 1.24137 17.887 2.35327 19.7312 4.17509C21.5752 5.99684 22.7174 8.41124 22.9549 10.9925C23.1922 13.5738 22.5099 16.1568 21.0291 18.2845C19.5481 20.4121 17.3624 21.9486 14.8592 22.6224C12.3753 23.2908 9.73658 23.0666 7.4012 21.9915C7.2384 21.9323 7.06305 21.9167 6.89241 21.9456L3.53794 22.9271C3.53024 22.9293 3.52224 22.9318 3.5145 22.9339C3.18538 23.0212 2.83868 23.0226 2.50864 22.9388C2.17869 22.8549 1.8753 22.6881 1.62779 22.4544C1.38019 22.2204 1.19605 21.9268 1.09361 21.6019C0.991216 21.2771 0.973325 20.9315 1.04185 20.598L1.07017 20.4905L2.11314 17.2689C2.14873 17.085 2.13359 16.895 2.06626 16.72C0.963206 14.3982 0.706656 11.7632 1.34458 9.27178C1.98766 6.76063 3.49713 4.557 5.60629 3.05009ZM12.7156 3.02861C10.6014 2.86019 8.49522 3.44425 6.76937 4.67705C5.0435 5.90997 3.80827 7.71315 3.28208 9.76787C2.78886 11.6941 2.94877 13.7255 3.72934 15.5462L3.8934 15.9075L3.92172 15.9739C4.14215 16.5301 4.1919 17.1396 4.06332 17.7239C4.05645 17.7552 4.04777 17.7863 4.03793 17.8167L3.00766 20.9974L6.38949 20.0091C6.41776 20.0008 6.44752 19.9943 6.4764 19.9886C6.95887 19.893 7.45673 19.9166 7.92561 20.0579L8.12483 20.1263L8.19221 20.1546C10.114 21.052 12.2915 21.2419 14.3397 20.6907C16.3877 20.1394 18.1758 18.8827 19.3875 17.1419C20.5991 15.4011 21.1569 13.2881 20.9627 11.1761C20.7684 9.06414 19.8347 7.08851 18.326 5.59795C16.8171 4.10741 14.8298 3.19714 12.7156 3.02861ZM12.0096 16.0003C12.5618 16.0003 13.0095 16.4481 13.0096 17.0003C13.0094 17.5524 12.5617 18.0003 12.0096 18.0003H11.9998C11.4478 18.0001 11 17.5523 10.9998 17.0003C10.9999 16.4482 11.4477 16.0005 11.9998 16.0003H12.0096ZM9.89338 6.54716C10.7075 6.06874 11.6648 5.89354 12.5955 6.05302C13.5263 6.21268 14.371 6.69688 14.9793 7.41924C15.5874 8.14159 15.9208 9.05609 15.9197 10.0003L15.907 10.2806C15.7795 11.6552 14.7342 12.5758 13.9744 13.0823C13.539 13.3726 13.1103 13.5856 12.7947 13.7259C12.6356 13.7966 12.5007 13.8502 12.4041 13.887C12.3559 13.9054 12.3164 13.9199 12.2879 13.93C12.2739 13.935 12.2624 13.9397 12.2537 13.9427C12.2496 13.9441 12.2458 13.9456 12.243 13.9466C12.2417 13.947 12.24 13.9472 12.2391 13.9476L12.2371 13.9485H12.2361C11.7123 14.123 11.1451 13.8396 10.9705 13.3157C10.7966 12.7927 11.079 12.2264 11.6014 12.0511V12.0521L11.6033 12.0511C11.6059 12.0502 11.6111 12.0486 11.618 12.0462C11.6333 12.0408 11.6589 12.0315 11.6922 12.0188C11.7596 11.9932 11.8604 11.9529 11.9822 11.8987C12.229 11.7891 12.5508 11.6278 12.865 11.4183C13.5544 10.9587 13.9195 10.4693 13.9197 10.0003V9.99834C13.9204 9.52614 13.7541 9.06859 13.45 8.70732C13.1458 8.34612 12.723 8.10356 12.2576 8.02373C11.7923 7.94404 11.3131 8.03157 10.9061 8.2708C10.4991 8.51005 10.1898 8.88602 10.033 9.33135C9.84976 9.85233 9.27863 10.1269 8.75764 9.94365C8.23695 9.76027 7.96323 9.18908 8.14632 8.66826C8.45977 7.77723 9.07907 7.02579 9.89338 6.54716Z" fill="#393B55"/>
</svg>
