<svg width="24" height="24" viewBox="0 0 24 24" fill="none" xmlns="http://www.w3.org/2000/svg">
<path fill-rule="evenodd" clip-rule="evenodd" d="M3.55172 3C2.41859 3 1.5 3.91471 1.5 5.04307C1.5 6.17143 2.41859 7.08614 3.55172 7.08614H6.41799C6.35925 7.27629 6.32764 7.47827 6.32764 7.6876C6.32764 7.89693 6.35925 8.09891 6.41799 8.28906H5.72409C4.59095 8.28906 3.67236 9.20378 3.67236 10.3321C3.67236 10.8355 3.85517 11.2964 4.15829 11.6524C3.85517 12.0085 3.67236 12.4694 3.67236 12.9728C3.67236 13.478 3.85651 13.9404 4.16162 14.297C3.85651 14.6536 3.67236 15.116 3.67236 15.6212C3.67236 16.1246 3.85517 16.5854 4.15829 16.9415C3.85517 17.2976 3.67236 17.7585 3.67236 18.2618C3.67236 19.3902 4.59095 20.3049 5.72409 20.3049H12.9718C13.8295 21.8806 15.5049 22.9506 17.4313 22.9506C20.2308 22.9506 22.5002 20.6908 22.5002 17.9031C22.5002 15.7052 21.0896 13.8354 19.1206 13.1426V12.9728C19.1206 12.4694 18.9378 12.0085 18.6347 11.6524C18.9378 11.2964 19.1206 10.8355 19.1206 10.3321C19.1206 10.1228 19.089 9.92083 19.0303 9.73068H19.7242C20.8573 9.73068 21.7759 8.81596 21.7759 7.6876C21.7759 6.55925 20.8573 5.64453 19.7242 5.64453H16.8579C16.9167 5.45438 16.9483 5.2524 16.9483 5.04307C16.9483 3.91471 16.0297 3 14.8966 3H3.55172ZM12.3623 17.9031C12.3623 18.2312 12.3938 18.552 12.4538 18.8627H5.72409C5.39081 18.8627 5.12064 18.5937 5.12064 18.2618C5.12064 17.9489 5.36085 17.6918 5.66768 17.6635C5.68642 17.664 5.70522 17.6643 5.72409 17.6643H12.3679C12.3642 17.7434 12.3623 17.823 12.3623 17.9031ZM13.2698 15.0203C13.013 15.3872 12.8039 15.7896 12.6514 16.2188H5.72409C5.70522 16.2188 5.68642 16.219 5.66767 16.2195C5.36085 16.1912 5.12064 15.9341 5.12064 15.6212C5.12064 15.2893 5.39081 15.0203 5.72409 15.0203H13.2698ZM17.4313 12.8555C16.4777 12.8555 15.5856 13.1177 14.8237 13.5737H5.72409C5.39081 13.5737 5.12064 13.3046 5.12064 12.9728C5.12064 12.6598 5.36085 12.4028 5.66768 12.3744C5.68642 12.375 5.70522 12.3752 5.72409 12.3752H17.0689C17.0878 12.3752 17.1066 12.375 17.1253 12.3744C17.3946 12.3993 17.6125 12.6003 17.6619 12.8606C17.5854 12.8572 17.5086 12.8555 17.4313 12.8555ZM2.94828 5.04307C2.94828 4.7112 3.21845 4.44217 3.55172 4.44217H14.8966C15.2298 4.44217 15.5 4.7112 15.5 5.04307C15.5 5.37494 15.2298 5.64398 14.8966 5.64398H3.55172C3.21845 5.64398 2.94828 5.37494 2.94828 5.04307ZM8.37936 7.0867C8.04609 7.0867 7.77591 7.35573 7.77591 7.6876C7.77591 8.01947 8.04609 8.28851 8.37936 8.28851H19.7242C20.0575 8.28851 20.3276 8.01947 20.3276 7.6876C20.3276 7.35573 20.0575 7.0867 19.7242 7.0867H8.37936ZM17.1253 10.9304C17.4321 10.9021 17.6724 10.6451 17.6724 10.3321C17.6724 10.0003 17.4022 9.73123 17.0689 9.73123H5.72409C5.39081 9.73123 5.12064 10.0003 5.12064 10.3321C5.12064 10.6451 5.36085 10.9021 5.66768 10.9304C5.68642 10.9299 5.70522 10.9297 5.72409 10.9297H17.0689C17.0878 10.9297 17.1066 10.9299 17.1253 10.9304ZM17.4313 14.2976C15.4316 14.2976 13.8106 15.9118 13.8106 17.9031C13.8106 19.8943 15.4316 21.5085 17.4313 21.5085C19.4309 21.5085 21.052 19.8943 21.052 17.9031C21.052 15.9118 19.4309 14.2976 17.4313 14.2976ZM17.2767 19.7751H18.2878V18.9282H17.2767V18.7557H17.9874C18.5559 18.7557 19.0071 18.6229 19.3409 18.3573C19.6768 18.0918 19.8448 17.73 19.8448 17.2721C19.8448 16.9751 19.7684 16.7096 19.6155 16.4754C19.4626 16.2391 19.2461 16.0572 18.9662 15.9296C18.6884 15.8021 18.3696 15.7383 18.01 15.7383H16.1428V17.9057H15.5V18.7557H16.1428V18.9282H15.5V19.7751H16.1428V20.3051H17.2767V19.7751ZM17.9712 17.9057H17.2767V16.5914H18.0197C18.2286 16.5935 18.3933 16.6573 18.5139 16.7828C18.6345 16.9082 18.6948 17.0734 18.6948 17.2783C18.6948 17.6966 18.4536 17.9057 17.9712 17.9057Z" fill="#393B55"/>
</svg>
