<svg width="24" height="24" viewBox="0 0 24 24" fill="none" xmlns="http://www.w3.org/2000/svg">
<path fill-rule="evenodd" clip-rule="evenodd" d="M11.4678 2.62171C12.1863 2.57971 12.5457 3.47577 11.9972 3.94192C10.7257 5.02258 9.97965 6.60058 9.97965 8.3016C9.97965 11.46 12.54 14.0204 15.6984 14.0204C17.3994 14.0204 18.9774 13.2743 20.0581 12.0028C20.5238 11.4549 21.419 11.8129 21.3784 12.5308C21.0984 17.485 16.9908 21.3797 12.007 21.3797C6.82286 21.3797 2.62028 17.1771 2.62028 11.993C2.62028 7.03856 6.47075 2.94557 11.3905 2.62623L11.3954 2.62593L11.4678 2.62171ZM9.56598 4.49085L9.46961 4.52277C6.34918 5.58152 4.12028 8.53813 4.12028 11.993C4.12028 16.3487 7.65128 19.8797 12.007 19.8797C15.4823 19.8797 18.4509 17.6252 19.4942 14.4795L19.5088 14.4342L19.5062 14.4358C18.4005 15.1233 17.1127 15.5082 15.7627 15.52L15.6984 15.5204C11.7116 15.5204 8.47965 12.2884 8.47965 8.3016C8.47965 6.92828 8.86581 5.61707 9.56418 4.49378L9.56598 4.49085Z" fill="#282A3C" fill-opacity="0.45"/>
</svg>
