<svg width="24" height="24" viewBox="0 0 24 24" fill="none" xmlns="http://www.w3.org/2000/svg">
<path fill-rule="evenodd" clip-rule="evenodd" d="M22.2071 1.79292C22.506 2.09175 22.5847 2.54618 22.4038 2.92811L13.4038 21.9281C13.2229 22.3098 12.8218 22.5368 12.4015 22.4952C11.9812 22.4535 11.6323 22.1523 11.5299 21.7426L9.6754 14.3246L2.25749 12.4702C1.84773 12.3677 1.54651 12.0189 1.50489 11.5986C1.46327 11.1782 1.69022 10.7771 2.07194 10.5963L21.0719 1.59629C21.4539 1.41538 21.9083 1.49409 22.2071 1.79292ZM5.45337 11.2076L10.7426 12.5299C11.1008 12.6195 11.3806 12.8992 11.4702 13.2575L12.7925 18.5467L19.3976 4.60241L5.45337 11.2076Z" fill="#393B55"/>
</svg>
