<svg width="24" height="24" viewBox="0 0 24 24" fill="none" xmlns="http://www.w3.org/2000/svg">
<path fill-rule="evenodd" clip-rule="evenodd" d="M5 2C4.20435 2 3.44129 2.31607 2.87868 2.87868C2.31607 3.44129 2 4.20435 2 5V19C2 19.7957 2.31607 20.5587 2.87868 21.1213C3.44129 21.6839 4.20435 22 5 22H5.99902C5.99967 22 6.00033 22 6.00098 22H19C19.7957 22 20.5587 21.6839 21.1213 21.1213C21.6839 20.5587 22 19.7957 22 19V5C22 4.20435 21.6839 3.44129 21.1213 2.87868C20.5587 2.31607 19.7957 2 19 2H5ZM8.41421 20H19C19.2652 20 19.5196 19.8946 19.7071 19.7071C19.8946 19.5196 20 19.2652 20 19V14.4142L17 11.4142L8.41421 20ZM20 11.5858V5C20 4.73478 19.8946 4.48043 19.7071 4.29289C19.5196 4.10536 19.2652 4 19 4H5C4.73478 4 4.48043 4.10536 4.29289 4.29289C4.10536 4.48043 4 4.73478 4 5V19C4 19.2652 4.10536 19.5196 4.29289 19.7071C4.48043 19.8946 4.73478 20 5 20H5.58579L16.2929 9.29289C16.6834 8.90237 17.3166 8.90237 17.7071 9.29289L20 11.5858ZM9.5 6C8.83696 6 8.20107 6.26339 7.73223 6.73223C7.26339 7.20107 7 7.83696 7 8.5C7 9.16304 7.26339 9.79893 7.73223 10.2678C8.20107 10.7366 8.83696 11 9.5 11C10.163 11 10.7989 10.7366 11.2678 10.2678C11.7366 9.79893 12 9.16304 12 8.5C12 7.83696 11.7366 7.20107 11.2678 6.73223C10.7989 6.26339 10.163 6 9.5 6ZM9.14645 8.14645C9.24021 8.05268 9.36739 8 9.5 8C9.63261 8 9.75979 8.05268 9.85355 8.14645C9.94732 8.24021 10 8.36739 10 8.5C10 8.63261 9.94732 8.75979 9.85355 8.85355C9.75979 8.94732 9.63261 9 9.5 9C9.36739 9 9.24021 8.94732 9.14645 8.85355C9.05268 8.75979 9 8.63261 9 8.5C9 8.36739 9.05268 8.24021 9.14645 8.14645Z" fill="#393B55"/>
</svg>
