<svg width="24" height="24" viewBox="0 0 24 24" fill="none" xmlns="http://www.w3.org/2000/svg">
<path fill-rule="evenodd" clip-rule="evenodd" d="M11.9996 0.499023C12.524 0.499023 12.9831 0.771173 13.2362 1.17837C15.2386 1.68641 16.7613 3.40015 17.0654 5.50277C17.9832 5.60574 18.6966 6.3844 18.6966 7.32968C18.6966 8.27531 17.9827 9.05419 17.0644 9.15671C16.6981 11.672 14.5876 13.6296 11.9993 13.6296C9.41481 13.6296 7.30678 11.678 6.93578 9.16815H6.8779C5.86254 9.16815 5.03943 8.34504 5.03943 7.32968C5.03943 6.31432 5.86254 5.49121 6.8779 5.49121H6.93531C7.2433 3.3938 8.76423 1.68535 10.7631 1.17831C11.0162 0.771147 11.4753 0.499023 11.9996 0.499023ZM13.4441 3.03161V2.91954C14.5346 3.42505 15.3422 4.48589 15.512 5.77146L15.513 5.77889C15.5208 5.83887 15.5375 5.8965 15.5617 5.94993L15.6252 6.26479C15.7193 6.73145 16.1294 7.06704 16.6054 7.06704H16.8582C17.0032 7.06704 17.1208 7.18463 17.1208 7.32968C17.1208 7.47473 17.0032 7.59232 16.8582 7.59232H6.8779C6.73285 7.59232 6.61526 7.47473 6.61526 7.32968C6.61526 7.18463 6.73285 7.06704 6.8779 7.06704H7.38544C7.85874 7.06704 8.26721 6.73524 8.36422 6.27199L8.42719 5.97124C8.45692 5.9119 8.4772 5.84684 8.48606 5.77875C8.65376 4.48983 9.46245 3.42589 10.5551 2.91945V3.03161C10.5551 3.80867 11.2018 4.4386 11.9996 4.4386C12.7974 4.4386 13.4441 3.80867 13.4441 3.03161ZM12.2885 1.90601C12.2885 1.7506 12.1592 1.62462 11.9996 1.62462C11.8401 1.62462 11.7107 1.7506 11.7107 1.90601V3.03161C11.7107 3.18702 11.8401 3.31301 11.9996 3.31301C12.1592 3.31301 12.2885 3.18702 12.2885 3.03161V1.90601ZM8.53556 9.16815C8.88625 10.832 10.3198 12.0537 11.9993 12.0537C13.6787 12.0537 15.1123 10.832 15.463 9.16815H8.53556ZM6.09048 21.4748C6.09048 18.2485 8.72991 15.6217 11.9998 15.6217C15.2698 15.6217 17.9092 18.2485 17.9092 21.4748C17.9092 21.6264 17.9034 21.7766 17.892 21.925H6.10766C6.09628 21.7766 6.09048 21.6264 6.09048 21.4748ZM11.9998 14.0459C7.87217 14.0459 4.51465 17.3657 4.51465 21.4748C4.51465 21.8639 4.54485 22.2465 4.60319 22.6203C4.68498 23.1443 5.13801 23.5009 5.63615 23.5009H18.3635C18.8617 23.5009 19.3147 23.1443 19.3965 22.6203C19.4548 22.2465 19.485 21.8639 19.485 21.4748C19.485 17.3657 16.1275 14.0459 11.9998 14.0459Z" fill="#393B55"/>
</svg>
