<svg width="20" height="20" viewBox="0 0 20 20" fill="none" xmlns="http://www.w3.org/2000/svg">
<mask id="mask0_660_10841" style="mask-type:alpha" maskUnits="userSpaceOnUse" x="1" y="1" width="18" height="17">
<path d="M8.81053 2.12713C9.18302 0.971947 10.8174 0.971947 11.1899 2.12713L12.656 6.67379H17.4267C18.6353 6.67379 19.1403 8.21846 18.1651 8.93239L14.2973 11.764L15.7696 16.33C16.1415 17.4833 14.8193 18.438 13.8416 17.7222L10.0002 14.9099L6.15886 17.7222C5.18109 18.438 3.85889 17.4833 4.23078 16.33L5.70309 11.764L1.83529 8.93239C0.860105 8.21845 1.3651 6.67379 2.57369 6.67379H7.34444L8.81053 2.12713Z" fill="#D4D5DB"/>
</mask>
<g mask="url(#mask0_660_10841)">
<path d="M8.81053 2.12713C9.18302 0.971947 10.8174 0.971947 11.1899 2.12713L12.656 6.67379H17.4267C18.6353 6.67379 19.1403 8.21846 18.1651 8.93239L14.2973 11.764L15.7696 16.33C16.1415 17.4833 14.8193 18.438 13.8416 17.7222L10.0002 14.9099L6.15886 17.7222C5.18109 18.438 3.85889 17.4833 4.23078 16.33L5.70309 11.764L1.83529 8.93239C0.860105 8.21845 1.3651 6.67379 2.57369 6.67379H7.34444L8.81053 2.12713Z" fill="#F2F2F2"/>
</g>
</svg>
