<svg width="24" height="24" viewBox="0 0 24 24" fill="none" xmlns="http://www.w3.org/2000/svg">
<path d="M20.318 3.98203L12.3539 1.26797C12.2578 1.23516 12.1289 1.21875 12 1.21875C11.8711 1.21875 11.7422 1.23516 11.6461 1.26797L3.68203 3.98203C3.4875 4.04766 3.32812 4.27266 3.32812 4.47891V15.7852C3.32812 15.9914 3.46172 16.2633 3.62344 16.3922L11.7023 22.6875C11.7844 22.7508 11.8898 22.7836 11.9977 22.7836C12.1055 22.7836 12.2133 22.7508 12.293 22.6875L20.3719 16.3922C20.5336 16.2656 20.6672 15.9937 20.6672 15.7852V4.47891C20.6719 4.27266 20.5125 4.05 20.318 3.98203ZM18.9844 15.3352L12 20.7773L5.01562 15.3352V5.31328L12 2.93203L18.9844 5.31328V15.3352Z" fill="#397DFF"/>
<path opacity="0.1" d="M5.01562 5.31362V15.3355L12 20.7777L18.9844 15.3355V5.31362L12 2.93237L5.01562 5.31362ZM13.9195 7.45347H14.9742C15.1031 7.45347 15.2086 7.55894 15.2086 7.68784C15.2109 7.72769 15.2016 7.76519 15.1828 7.80034L13.1273 11.5761H14.1984C14.3273 11.5761 14.4328 11.6816 14.4328 11.8105V12.3097C14.4328 12.4386 14.3273 12.5441 14.1984 12.5441H12.7125V13.2402H14.1984C14.3273 13.2402 14.4328 13.3457 14.4328 13.4746V13.9738C14.4328 14.1027 14.3273 14.2082 14.1984 14.2082H12.7125V15.4222C12.7125 15.5511 12.607 15.6566 12.4781 15.6566H11.5102C11.3813 15.6566 11.2758 15.5511 11.2758 15.4222V14.2082H9.79688C9.66797 14.2082 9.5625 14.1027 9.5625 13.9738V13.4746C9.5625 13.3457 9.66797 13.2402 9.79688 13.2402H11.2758V12.5441H9.79688C9.66797 12.5441 9.5625 12.4386 9.5625 12.3097V11.8105C9.5625 11.6816 9.66797 11.5761 9.79688 11.5761H10.8563L8.79375 7.80034C8.73281 7.68784 8.77266 7.54487 8.8875 7.48159C8.92266 7.46284 8.96016 7.45347 9 7.45347H10.0781C10.1672 7.45347 10.2469 7.50269 10.2867 7.58237L11.9953 10.9644L13.7109 7.58237C13.7304 7.54372 13.7602 7.51122 13.797 7.48846C13.8338 7.46571 13.8763 7.4536 13.9195 7.45347Z" fill="#397DFF"/>
<path d="M10.2871 7.58203C10.2679 7.54318 10.2381 7.51049 10.2012 7.4877C10.1644 7.46491 10.1218 7.45293 10.0785 7.45313H9.00036C8.96051 7.45313 8.92301 7.4625 8.88786 7.48125C8.77301 7.54453 8.73317 7.6875 8.79411 7.8L10.8566 11.5758H9.79723C9.66832 11.5758 9.56285 11.6812 9.56285 11.8101V12.3094C9.56285 12.4383 9.66832 12.5437 9.79723 12.5437H11.2761V13.2398H9.79723C9.66832 13.2398 9.56285 13.3453 9.56285 13.4742V13.9734C9.56285 14.1023 9.66832 14.2078 9.79723 14.2078H11.2761V15.4218C11.2761 15.5508 11.3816 15.6562 11.5105 15.6562H12.4785C12.6074 15.6562 12.7128 15.5508 12.7128 15.4218V14.2078H14.1988C14.3277 14.2078 14.4331 14.1023 14.4331 13.9734V13.4742C14.4331 13.3453 14.3277 13.2398 14.1988 13.2398H12.7128V12.5437H14.1988C14.3277 12.5437 14.4331 12.4383 14.4331 12.3094V11.8101C14.4331 11.6812 14.3277 11.5758 14.1988 11.5758H13.1277L15.1831 7.8C15.2019 7.76484 15.2113 7.72735 15.2089 7.6875C15.2089 7.5586 15.1035 7.45313 14.9745 7.45313H13.9199C13.8766 7.45326 13.8342 7.46537 13.7974 7.48812C13.7605 7.51088 13.7307 7.54338 13.7113 7.58203L11.9957 10.9641L10.2871 7.58203Z" fill="#397DFF"/>
</svg>
