<svg width="24" height="24" viewBox="0 0 24 24" fill="none" xmlns="http://www.w3.org/2000/svg">
<path d="M21.75 3.7229V21.0277C21.7499 21.1555 21.7172 21.2812 21.6549 21.3928C21.5926 21.5045 21.5028 21.5983 21.394 21.6655C21.2853 21.7326 21.1611 21.7709 21.0334 21.7766C20.9057 21.7823 20.7787 21.7552 20.6644 21.698L18 20.3658L15.3356 21.698C15.2314 21.7502 15.1165 21.7773 15 21.7773C14.8835 21.7773 14.7686 21.7502 14.6644 21.698L12 20.3658L9.33563 21.698C9.23143 21.7502 9.11652 21.7773 9 21.7773C8.88348 21.7773 8.76857 21.7502 8.66437 21.698L6 20.3658L3.33563 21.698C3.22131 21.7552 3.09427 21.7823 2.96657 21.7766C2.83887 21.7709 2.71474 21.7326 2.60597 21.6655C2.49721 21.5983 2.40741 21.5045 2.34511 21.3928C2.28281 21.2812 2.25007 21.1555 2.25 21.0277V3.7229C2.25 3.32508 2.40804 2.94354 2.68934 2.66224C2.97064 2.38094 3.35218 2.2229 3.75 2.2229H20.25C20.6478 2.2229 21.0294 2.38094 21.3107 2.66224C21.592 2.94354 21.75 3.32508 21.75 3.7229ZM20.25 3.7229H3.75V19.8146L5.66437 18.8564C5.76857 18.8043 5.88349 18.7772 6 18.7772C6.11651 18.7772 6.23143 18.8043 6.33563 18.8564L9 20.1896L11.6644 18.8564C11.7686 18.8043 11.8835 18.7772 12 18.7772C12.1165 18.7772 12.2314 18.8043 12.3356 18.8564L15 20.1896L17.6644 18.8564C17.7686 18.8043 17.8835 18.7772 18 18.7772C18.1165 18.7772 18.2314 18.8043 18.3356 18.8564L20.25 19.8146V3.7229Z" fill="#393B55"/>
<path d="M9.04224 7.6087C8.82401 7.65211 8.62356 7.75926 8.46622 7.91659C8.25524 8.12757 8.13671 8.41372 8.13671 8.71208C8.13671 9.01045 8.25524 9.2966 8.46622 9.50758C8.62356 9.66491 8.82401 9.77206 9.04224 9.81547C9.26046 9.85888 9.48668 9.83659 9.69224 9.75145C9.89781 9.6663 10.0735 9.5221 10.1971 9.33709C10.3207 9.15209 10.3867 8.93459 10.3867 8.71209C10.3867 8.48959 10.3207 8.27208 10.1971 8.08707C10.0735 7.90207 9.89781 7.75788 9.69224 7.67273C9.48667 7.58758 9.26046 7.56529 9.04224 7.6087Z" fill="#393B55"/>
<path d="M14.5188 13.0892C14.3006 13.1326 14.1001 13.2397 13.9428 13.3971C13.7318 13.608 13.6133 13.8942 13.6133 14.1926C13.6133 14.4909 13.7318 14.7771 13.9428 14.988C14.1001 15.1454 14.3006 15.2525 14.5188 15.2959C14.737 15.3393 14.9632 15.3171 15.1688 15.2319C15.3744 15.1468 15.5501 15.0026 15.6737 14.8176C15.7973 14.6326 15.8633 14.4151 15.8633 14.1926C15.8633 13.9701 15.7973 13.7525 15.6737 13.5675C15.5501 13.3825 15.3744 13.2383 15.1688 13.1532C14.9632 13.068 14.737 13.0458 14.5188 13.0892Z" fill="#393B55"/>
<path d="M14.8281 8.625L9.17127 14.2819" stroke="#393B55" stroke-width="1.5" stroke-linecap="round"/>
</svg>
