<svg width="24" height="24" viewBox="0 0 24 24" fill="none" xmlns="http://www.w3.org/2000/svg">
<path fill-rule="evenodd" clip-rule="evenodd" d="M8.13054 5.00788C9.64849 4.16875 11.398 3.84566 13.1155 4.08732C14.8331 4.32896 16.4256 5.12226 17.6531 6.34765C17.6602 6.35478 17.6674 6.3618 17.6748 6.3687L20.4749 8.99988H16.9995C16.4472 8.99988 15.9995 9.44759 15.9995 9.99988C15.9995 10.5522 16.4472 10.9999 16.9995 10.9999H22.9881C23.1013 11.0012 23.2147 10.9833 23.3228 10.9465C23.4726 10.8954 23.6124 10.8081 23.7283 10.6847C23.8465 10.5589 23.9258 10.4107 23.9668 10.2547C23.9763 10.2182 23.9838 10.1813 23.9892 10.1442C23.9966 10.093 24 10.0414 23.9995 9.98983V3.99988C23.9995 3.44759 23.5518 2.99988 22.9995 2.99988C22.4472 2.99988 21.9995 3.44759 21.9995 3.99988V7.68803L19.0551 4.92128C17.5222 3.39575 15.5359 2.40816 13.3942 2.10682C11.2473 1.80476 9.06036 2.20861 7.16293 3.25753C5.26548 4.30646 3.76034 5.94362 2.87427 7.92236C1.9882 9.90112 1.76919 12.1142 2.25027 14.2282C2.73135 16.3422 3.88642 18.2427 5.54149 19.6431C7.19654 21.0436 9.2619 21.8682 11.4264 21.9928C13.5908 22.1173 15.7372 21.5351 17.542 20.3338C19.3469 19.1324 20.7123 17.3771 21.4327 15.3322C21.6163 14.8113 21.3428 14.2403 20.8219 14.0568C20.301 13.8732 19.7299 14.1467 19.5464 14.6676C18.97 16.3036 17.8777 17.7078 16.4338 18.6689C14.99 19.6299 13.2729 20.0957 11.5413 19.9961C9.80972 19.8964 8.15743 19.2367 6.83338 18.1164C5.50934 16.996 4.58528 15.4757 4.20041 13.7844C3.81555 12.0933 3.99075 10.3228 4.69962 8.73974C5.40847 7.15676 6.61258 5.84702 8.13054 5.00788Z" fill="#393B55"/>
</svg>
