<svg width="24" height="24" viewBox="0 0 24 24" fill="none" xmlns="http://www.w3.org/2000/svg">
<path fill-rule="evenodd" clip-rule="evenodd" d="M6.70659 5.29292C6.51799 5.11076 6.26539 5.00997 6.00319 5.01224C5.74099 5.01452 5.49018 5.11969 5.30477 5.3051C5.11937 5.49051 5.0142 5.74132 5.01192 6.00352C5.00964 6.26571 5.11044 6.51832 5.29259 6.70692L10.5856 11.9999L5.29259 17.2929C5.19708 17.3852 5.1209 17.4955 5.06849 17.6175C5.01608 17.7395 4.9885 17.8707 4.98734 18.0035C4.98619 18.1363 5.01149 18.268 5.06177 18.3909C5.11205 18.5138 5.18631 18.6254 5.2802 18.7193C5.37409 18.8132 5.48574 18.8875 5.60864 18.9377C5.73154 18.988 5.86321 19.0133 5.99599 19.0122C6.12877 19.011 6.25999 18.9834 6.382 18.931C6.504 18.8786 6.61435 18.8024 6.70659 18.7069L11.9996 13.4139L17.2926 18.7069C17.4812 18.8891 17.7338 18.9899 17.996 18.9876C18.2582 18.9853 18.509 18.8801 18.6944 18.6947C18.8798 18.5093 18.985 18.2585 18.9873 17.9963C18.9895 17.7341 18.8888 17.4815 18.7066 17.2929L13.4136 11.9999L18.7066 6.70692C18.8888 6.51832 18.9895 6.26571 18.9873 6.00352C18.985 5.74132 18.8798 5.49051 18.6944 5.3051C18.509 5.11969 18.2582 5.01452 17.996 5.01224C17.7338 5.00997 17.4812 5.11076 17.2926 5.29292L11.9996 10.5859L6.70659 5.29292Z" fill="#393B55"/>
</svg>
