<svg width="24" height="24" viewBox="0 0 24 24" fill="none" xmlns="http://www.w3.org/2000/svg">
<path fill-rule="evenodd" clip-rule="evenodd" d="M4.22164 4.22189C8.51717 -0.073637 15.4823 -0.073637 19.7779 4.22189C24.0734 8.51741 24.0734 15.4826 19.7779 19.7781C15.4823 24.0736 8.51717 24.0736 4.22164 19.7781C-0.0738811 15.4826 -0.0738811 8.51741 4.22164 4.22189ZM18.3636 5.6361C14.8492 2.12162 9.15033 2.12162 5.63586 5.6361C2.12138 9.15058 2.12138 14.8494 5.63586 18.3639C9.15033 21.8784 14.8492 21.8784 18.3636 18.3639C21.8781 14.8494 21.8781 9.15058 18.3636 5.6361ZM8.46471 8.46382C8.85526 8.07333 9.48843 8.07339 9.87892 8.46395L11.9998 10.5852L14.1206 8.46395C14.5111 8.07339 15.1442 8.07333 15.5348 8.46382C15.9254 8.85431 15.9254 9.48748 15.5349 9.87804L13.4138 11.9995L15.5349 14.1209C15.9254 14.5115 15.9254 15.1447 15.5348 15.5352C15.1442 15.9257 14.5111 15.9256 14.1206 15.535L11.9998 13.4138L9.87892 15.535C9.48843 15.9256 8.85526 15.9257 8.46471 15.5352C8.07415 15.1447 8.07409 14.5115 8.46458 14.1209L10.5857 11.9995L8.46458 9.87804C8.07409 9.48748 8.07415 8.85431 8.46471 8.46382Z" fill="#393B55"/>
</svg>
