<svg width="24" height="24" viewBox="0 0 24 24" fill="none" xmlns="http://www.w3.org/2000/svg">
<path fill-rule="evenodd" clip-rule="evenodd" d="M9.93138 3.40912C9.93138 2.67906 10.5232 2.08724 11.2533 2.08724H15.9557V4.40376C15.9557 5.42583 16.7842 6.25439 17.8063 6.25439H20.2421V13.7198C20.2421 14.4499 19.6502 15.0417 18.9202 15.0417V16.6279C20.5263 16.6279 21.8283 15.3259 21.8283 13.7198V5.46126C21.8283 5.24703 21.7417 5.04191 21.5881 4.89258L17.0708 0.500977H11.2533C9.64714 0.500977 8.34512 1.803 8.34512 3.40912V3.93787H9.93138V3.40912ZM19.0816 4.66813L17.5419 3.17133V4.40376C17.5419 4.54977 17.6603 4.66813 17.8063 4.66813H19.0816ZM6.75862 6.84662C6.75862 6.11656 7.35045 5.52474 8.08051 5.52474H12.952V7.76549C12.952 8.78757 13.7806 9.61613 14.8027 9.61613H17.3337V16.8929C17.3337 17.623 16.7419 18.2148 16.0118 18.2148H15.7476V12.3324C15.7476 12.1151 15.6585 11.9074 15.501 11.7576L10.8897 7.37207H6.75862V6.84662ZM5.17236 7.37207V6.84662C5.17236 5.2405 6.47438 3.93848 8.08051 3.93848H14.0579L18.6681 8.2433C18.8288 8.39329 18.9199 8.60322 18.9199 8.823V16.8929C18.9199 18.4991 17.6179 19.8011 16.0118 19.8011H15.7476V20.5909C15.7476 22.197 14.4456 23.499 12.8394 23.499H4.90814C3.30202 23.499 2 22.197 2 20.5909V10.2802C2 8.67409 3.30202 7.37207 4.90814 7.37207H5.17236ZM16.1153 8.02987L14.5383 6.55733V7.76549C14.5383 7.9115 14.6567 8.02987 14.8027 8.02987H16.1153ZM3.58626 10.2802C3.58626 9.55016 4.17809 8.95833 4.90814 8.95833H9.77967V11.2748C9.77967 12.2969 10.6082 13.1255 11.6303 13.1255H14.1613V20.5909C14.1613 21.321 13.5695 21.9128 12.8394 21.9128H4.90814C4.17809 21.9128 3.58626 21.321 3.58626 20.5909V10.2802ZM12.9696 11.5392L11.3659 10.014V11.2748C11.3659 11.4209 11.4843 11.5392 11.6303 11.5392H12.9696ZM4.34521 17.156C4.34521 16.7942 4.63847 16.501 5.00021 16.501H12.5002C12.862 16.501 13.1552 16.7942 13.1552 17.156C13.1552 17.5177 12.862 17.811 12.5002 17.811H5.00021C4.63847 17.811 4.34521 17.5177 4.34521 17.156ZM5.00021 18.6221C4.63847 18.6221 4.34521 18.9153 4.34521 19.2771C4.34521 19.6388 4.63847 19.9321 5.00021 19.9321H12.5002C12.862 19.9321 13.1552 19.6388 13.1552 19.2771C13.1552 18.9153 12.862 18.6221 12.5002 18.6221H5.00021Z" fill="#393B55"/>
</svg>
