<svg width="24" height="24" viewBox="0 0 24 24" fill="none" xmlns="http://www.w3.org/2000/svg">
<path fill-rule="evenodd" clip-rule="evenodd" d="M5.02344 4.09302C5.02344 2.93708 5.96052 2 7.11646 2H7.58158C8.73752 2 9.6746 2.93708 9.6746 4.09302V4.32812H13.1626V4.09302C13.1626 2.93708 14.0997 2 15.2556 2H15.7207C16.8767 2 17.8138 2.93708 17.8138 4.09302V4.32812H18.0465C19.4593 4.32812 20.6047 5.47344 20.6047 6.88626V14.3957C21.4677 15.2765 21.9999 16.4828 21.9999 17.8134C21.9999 20.5106 19.8133 22.6971 17.1161 22.6971C15.6712 22.6971 14.3729 22.0696 13.4787 21.0723H4.55814C3.14532 21.0723 2 19.927 2 18.5142V6.88626C2 5.47344 3.14532 4.32812 4.55814 4.32812H5.02344V4.09302ZM19.2093 10.6072V13.3997C18.5749 13.0983 17.8652 12.9297 17.1161 12.9297C14.4189 12.9297 12.2324 15.1162 12.2324 17.8134C12.2324 18.4733 12.3633 19.1027 12.6006 19.677H4.55814C3.91595 19.677 3.39535 19.1564 3.39535 18.5142V10.6072H19.2093ZM17.8138 5.72347V6.4186C17.8138 7.0608 17.2932 7.5814 16.651 7.5814H14.3254C13.6832 7.5814 13.1626 7.0608 13.1626 6.4186V5.72347H9.6746V6.4186C9.6746 7.0608 9.154 7.5814 8.51181 7.5814H6.18623C5.54404 7.5814 5.02344 7.0608 5.02344 6.4186V5.72347H4.55814C3.91595 5.72347 3.39535 6.24407 3.39535 6.88626V9.21185H19.2093V6.88626C19.2093 6.24407 18.6887 5.72347 18.0465 5.72347H17.8138ZM7.11646 3.39535C6.73115 3.39535 6.41879 3.70771 6.41879 4.09302V6.18605H8.27925V4.09302C8.27925 3.70771 7.96689 3.39535 7.58158 3.39535H7.11646ZM14.5579 4.09302C14.5579 3.70771 14.8703 3.39535 15.2556 3.39535H15.7207C16.1061 3.39535 16.4184 3.70771 16.4184 4.09302V6.18605H14.5579V4.09302ZM17.1161 14.325C15.1896 14.325 13.6278 15.8868 13.6278 17.8134C13.6278 19.74 15.1896 21.3018 17.1161 21.3018C19.0427 21.3018 20.6045 19.74 20.6045 17.8134C20.6045 15.8868 19.0427 14.325 17.1161 14.325ZM17.8138 15.3695C17.8138 14.9842 17.5014 14.6719 17.1161 14.6719C16.7308 14.6719 16.4185 14.9842 16.4185 15.3695V17.9277C16.4185 18.313 16.7308 18.6254 17.1161 18.6254H19.4417C19.827 18.6254 20.1394 18.313 20.1394 17.9277C20.1394 17.5424 19.827 17.23 19.4417 17.23H17.8138V15.3695Z" fill="#393B55"/>
</svg>
