<svg width="24" height="24" viewBox="0 0 24 24" fill="none" xmlns="http://www.w3.org/2000/svg">
<path d="M21.8302 11.6917L2.22469 1.86203C2.145 1.82219 2.05359 1.81281 1.96687 1.8339C1.76765 1.88312 1.64344 2.08469 1.69265 2.28625L3.71297 10.5409C3.74344 10.6652 3.83484 10.7659 3.95672 10.8058L7.41844 11.9941L3.95906 13.1823C3.83719 13.2245 3.74578 13.323 3.71765 13.4472L1.69265 21.7136C1.67156 21.8003 1.68094 21.8917 1.72078 21.9691C1.81219 22.1542 2.03719 22.2292 2.22469 22.1378L21.8302 12.3644C21.9028 12.3292 21.9614 12.2683 21.9989 12.198C22.0903 12.0105 22.0153 11.7855 21.8302 11.6917ZM4.00359 19.3652L5.1825 14.5464L12.1012 12.1722C12.1552 12.1534 12.1997 12.1112 12.2184 12.055C12.2512 11.9566 12.1997 11.8511 12.1012 11.8159L5.1825 9.44406L4.00828 4.64406L18.727 12.0245L4.00359 19.3652Z" fill="#282A3C" fill-opacity="0.45"/>
</svg>
