<svg width="24" height="24" viewBox="0 0 24 24" fill="none" xmlns="http://www.w3.org/2000/svg">
<path d="M21.676 14.6633L20.1408 13.3508C20.2135 12.9055 20.251 12.4508 20.251 11.9961C20.251 11.5414 20.2135 11.0868 20.1408 10.6414L21.676 9.32895C21.7918 9.22982 21.8746 9.0978 21.9136 8.95043C21.9525 8.80306 21.9457 8.64733 21.8939 8.50395L21.8728 8.44301C21.4502 7.26182 20.8174 6.16684 20.0049 5.21098L19.9627 5.16176C19.8641 5.04587 19.7328 4.96256 19.5859 4.92281C19.439 4.88306 19.2836 4.88874 19.14 4.93911L17.2346 5.61645C16.5314 5.03989 15.7463 4.5852 14.8978 4.26645L14.5299 2.27426C14.5021 2.12436 14.4294 1.98645 14.3214 1.87887C14.2134 1.77128 14.0752 1.6991 13.9252 1.67192L13.8619 1.6602C12.6408 1.43989 11.3564 1.43989 10.1353 1.6602L10.0721 1.67192C9.92206 1.6991 9.78387 1.77128 9.67586 1.87887C9.56785 1.98645 9.49514 2.12436 9.46737 2.27426L9.09706 4.27582C8.2554 4.59464 7.47159 5.04909 6.77675 5.62114L4.85722 4.93911C4.7137 4.88834 4.55814 4.88246 4.41119 4.92223C4.26425 4.962 4.13289 5.04554 4.03456 5.16176L3.99238 5.21098C3.18084 6.16752 2.5481 7.26232 2.12441 8.44301L2.10331 8.50395C1.99784 8.79692 2.08456 9.12504 2.32128 9.32895L3.87519 10.6555C3.80253 11.0961 3.76738 11.5461 3.76738 11.9938C3.76738 12.4438 3.80253 12.8938 3.87519 13.3321L2.32128 14.6586C2.20549 14.7578 2.12262 14.8898 2.08368 15.0372C2.04475 15.1845 2.05159 15.3403 2.10331 15.4836L2.12441 15.5446C2.54863 16.7258 3.17675 17.8157 3.99238 18.7766L4.03456 18.8258C4.13313 18.9417 4.26449 19.025 4.41135 19.0648C4.5582 19.1045 4.71366 19.0988 4.85722 19.0485L6.77675 18.3664C7.47519 18.9407 8.25566 19.3954 9.09706 19.7118L9.46737 21.7133C9.49514 21.8632 9.56785 22.0011 9.67586 22.1087C9.78387 22.2163 9.92206 22.2885 10.0721 22.3157L10.1353 22.3274C11.3677 22.5489 12.6296 22.5489 13.8619 22.3274L13.9252 22.3157C14.0752 22.2885 14.2134 22.2163 14.3214 22.1087C14.4294 22.0011 14.5021 21.8632 14.5299 21.7133L14.8978 19.7211C15.7459 19.4032 16.5355 18.9471 17.2346 18.3711L19.14 19.0485C19.2835 19.0992 19.4391 19.1051 19.5861 19.0654C19.733 19.0256 19.8644 18.942 19.9627 18.8258L20.0049 18.7766C20.8205 17.8133 21.4486 16.7258 21.8728 15.5446L21.8939 15.4836C21.9994 15.1954 21.9127 14.8672 21.676 14.6633ZM18.4767 10.918C18.5353 11.2719 18.5658 11.6352 18.5658 11.9985C18.5658 12.3618 18.5353 12.725 18.4767 13.0789L18.3221 14.0188L20.0728 15.5164C19.8074 16.1279 19.4724 16.7067 19.0744 17.2414L16.8994 16.4704L16.1635 17.075C15.6033 17.5344 14.9799 17.8954 14.3049 18.1485L13.4119 18.4836L12.9924 20.7571C12.3304 20.8321 11.6621 20.8321 11.0002 20.7571L10.5807 18.479L9.69472 18.1391C9.02675 17.886 8.40566 17.525 7.85019 17.068L7.11425 16.461L4.92519 17.2391C4.52675 16.7024 4.19394 16.1235 3.92675 15.5141L5.69628 14.0024L5.54394 13.0649C5.48769 12.7157 5.45722 12.3547 5.45722 11.9985C5.45722 11.6399 5.48534 11.2813 5.54394 10.9321L5.69628 9.99457L3.92675 8.48285C4.19159 7.87114 4.52675 7.29457 4.92519 6.75785L7.11425 7.53598L7.85019 6.92895C8.40566 6.47192 9.02675 6.11098 9.69472 5.85785L10.583 5.5227L11.0025 3.24457C11.6611 3.16957 12.3338 3.16957 12.9947 3.24457L13.4142 5.51801L14.3072 5.85317C14.9799 6.10629 15.6057 6.46723 16.1658 6.92661L16.9017 7.53129L19.0768 6.7602C19.4752 7.29692 19.808 7.87582 20.0752 8.4852L18.3244 9.98285L18.4767 10.918ZM12.001 7.6391C9.72284 7.6391 7.87597 9.48598 7.87597 11.7641C7.87597 14.0422 9.72284 15.8891 12.001 15.8891C14.2791 15.8891 16.126 14.0422 16.126 11.7641C16.126 9.48598 14.2791 7.6391 12.001 7.6391ZM13.8572 13.6204C13.6138 13.8645 13.3244 14.0581 13.0058 14.1901C12.6873 14.322 12.3458 14.3896 12.001 14.3891C11.3002 14.3891 10.6416 14.1149 10.1447 13.6204C9.90056 13.3769 9.70694 13.0876 9.57501 12.769C9.44308 12.4504 9.37543 12.1089 9.37597 11.7641C9.37597 11.0633 9.65019 10.4047 10.1447 9.90786C10.6416 9.41098 11.3002 9.1391 12.001 9.1391C12.7017 9.1391 13.3603 9.41098 13.8572 9.90786C14.1014 10.1513 14.295 10.4407 14.4269 10.7592C14.5589 11.0778 14.6265 11.4193 14.626 11.7641C14.626 12.4649 14.3518 13.1235 13.8572 13.6204Z" fill="#282A3C" fill-opacity="0.45"/>
</svg>
