<svg width="24" height="24" viewBox="0 0 24 24" fill="none" xmlns="http://www.w3.org/2000/svg">
<path opacity="0.1" d="M20.1402 13.3523L20.1449 13.3547C20.2176 12.9117 20.2527 12.4594 20.2527 12.0117C20.2527 11.6109 20.2223 11.2078 20.166 10.8141C20.2223 11.2055 20.2504 11.6016 20.2504 11.9977C20.2504 12.4523 20.2129 12.907 20.1402 13.3523ZM2.32069 9.33047C2.30897 9.32109 2.2996 9.31172 2.28788 9.3C2.30429 9.31641 2.32069 9.33281 2.33944 9.34922L3.8746 10.6594V10.657L2.32069 9.33047ZM14.8973 4.26797H14.8996L14.5363 2.30391C14.5316 2.28047 14.5269 2.25937 14.5199 2.23828C14.5223 2.25 14.5269 2.26406 14.5293 2.27578L14.8973 4.26797ZM16.1629 17.0766L16.8988 16.4719L19.0738 17.243C19.4723 16.7063 19.8074 16.1297 20.0723 15.518L18.3215 14.0203L18.4762 13.0805C18.5348 12.7266 18.5652 12.3633 18.5652 12C18.5652 11.6367 18.5348 11.2734 18.4762 10.9195L18.3238 9.98438L20.0746 8.48672C19.8074 7.87734 19.4746 7.29844 19.0762 6.76172L16.9012 7.53281L16.1652 6.92813C15.6051 6.46875 14.9793 6.10781 14.3066 5.85469L13.4137 5.51953L12.9941 3.24609C12.3322 3.17109 11.6639 3.17109 11.0019 3.24609L10.5824 5.52422L9.69413 5.85938C9.02616 6.1125 8.40507 6.47344 7.8496 6.93047L7.11366 7.5375L4.9246 6.75937C4.52616 7.29609 4.19101 7.87266 3.92616 8.48438L5.69569 9.99609L5.54335 10.9336C5.48476 11.2828 5.45663 11.6414 5.45663 12C5.45663 12.3562 5.4871 12.7172 5.54335 13.0664L5.69569 14.0039L3.92616 15.5156C4.19335 16.125 4.52616 16.7039 4.9246 17.2406L7.11366 16.4625L7.8496 17.0695C8.40507 17.5266 9.02616 17.8875 9.69413 18.1406L10.5801 18.4805L10.9996 20.7586C11.6605 20.8336 12.3332 20.8336 12.9918 20.7586L13.4113 18.4852L14.3043 18.15C14.9793 17.8969 15.6027 17.5359 16.1629 17.0766ZM12.0121 15.8977C11.2973 15.8977 10.6246 15.7148 10.0363 15.3937C8.7496 14.6953 7.87538 13.3336 7.87538 11.7656C7.87538 9.4875 9.72226 7.64062 12.0004 7.64062C13.5683 7.64062 14.9301 8.51484 15.6285 9.80156C15.9496 10.3875 16.1324 11.0602 16.1324 11.7773C16.1324 14.0531 14.2879 15.8977 12.0121 15.8977ZM4.85663 19.05C4.72772 19.0945 4.59413 19.1039 4.46757 19.0781C4.60116 19.1063 4.74179 19.1016 4.87772 19.0547L6.78554 18.375C6.78319 18.3727 6.77851 18.3703 6.77616 18.368L4.85663 19.05ZM21.6754 9.33047L20.1402 10.643C20.1402 10.6477 20.1426 10.6547 20.1426 10.6594L21.6754 9.34922C21.8418 9.20625 21.9355 9 21.9379 8.78672C21.9309 8.99297 21.8371 9.19219 21.6754 9.33047Z" fill="#397DFF"/>
<path opacity="0.1" d="M21.9336 15.155C21.9453 15.2652 21.9336 15.3777 21.8937 15.4855L21.8726 15.5464C21.4489 16.7271 20.8162 17.8219 20.0047 18.7785L19.9625 18.8277C19.8641 18.9439 19.7328 19.0274 19.5858 19.0672C19.4389 19.107 19.2833 19.1011 19.1398 19.0503L17.2344 18.373C16.5353 18.9489 15.7457 19.4051 14.8976 19.723L14.5297 21.7152C14.5019 21.8651 14.4292 22.003 14.3212 22.1106C14.2132 22.2182 14.075 22.2904 13.925 22.3175L13.8617 22.3292C13.2492 22.44 12.6279 22.4957 12.0055 22.4957H12.0125C12.6383 22.4957 13.2641 22.4394 13.8734 22.3292L13.9367 22.3175C14.0867 22.2904 14.2249 22.2182 14.3329 22.1106C14.4409 22.003 14.5136 21.8651 14.5414 21.7152L14.9094 19.7253C15.7578 19.4066 16.5406 18.9542 17.2437 18.3777L19.1468 19.055C19.2904 19.1058 19.4459 19.1117 19.5929 19.0719C19.7398 19.0321 19.8712 18.9486 19.9695 18.8324L20.0117 18.7832C20.8273 17.8199 21.4531 16.7347 21.8773 15.5558L21.8984 15.4949C21.9359 15.3847 21.9476 15.2675 21.9336 15.155Z" fill="#397DFF"/>
<path d="M16.125 11.7656C16.125 11.0555 15.9445 10.3852 15.6281 9.80156C14.9297 8.51484 13.568 7.64062 12 7.64062C9.72188 7.64062 7.875 9.4875 7.875 11.7656C7.875 13.3336 8.74922 14.6953 10.0359 15.3937C10.6195 15.7102 11.2875 15.8906 12 15.8906C14.2781 15.8906 16.125 14.0437 16.125 11.7656ZM9.375 11.7656C9.375 11.0648 9.64922 10.4062 10.1437 9.90937C10.6406 9.4125 11.2992 9.14062 12 9.14062C12.7008 9.14062 13.3594 9.4125 13.8563 9.90937C14.1004 10.1528 14.294 10.4422 14.426 10.7607C14.5579 11.0793 14.6255 11.4208 14.625 11.7656C14.625 12.4664 14.3508 13.125 13.8563 13.6219C13.6128 13.866 13.3234 14.0597 13.0049 14.1916C12.6863 14.3235 12.3448 14.3912 12 14.3906C11.2992 14.3906 10.6406 14.1164 10.1437 13.6219C9.89959 13.3784 9.70597 13.0891 9.57404 12.7705C9.44211 12.4519 9.37446 12.1104 9.375 11.7656Z" fill="#397DFF"/>
<path d="M13.9252 22.3175C14.0752 22.2903 14.2134 22.2182 14.3214 22.1106C14.4294 22.003 14.5021 21.8651 14.5299 21.7152L14.8978 19.723C15.7459 19.4051 16.5355 18.9489 17.2345 18.373L19.14 19.0503C19.2835 19.1011 19.4391 19.107 19.586 19.0672C19.733 19.0274 19.8643 18.9439 19.9627 18.8277L20.0049 18.7785C20.8205 17.8152 21.4486 16.7277 21.8728 15.5464L21.8939 15.4855C21.9338 15.3777 21.9455 15.2652 21.9338 15.155C21.9127 14.9699 21.8236 14.7941 21.6759 14.6652L20.1455 13.355L20.1408 13.3527C20.2134 12.9074 20.2509 12.4527 20.2509 11.998C20.2509 11.6019 20.2228 11.2035 20.1666 10.8144C20.1595 10.7628 20.1502 10.7113 20.1431 10.6597C20.1431 10.655 20.1408 10.648 20.1408 10.6433L21.6759 9.33081C21.8377 9.19253 21.9314 8.99331 21.9384 8.78706C21.9408 8.69331 21.9267 8.59722 21.8939 8.50581L21.8728 8.44487C21.4502 7.26368 20.8173 6.16871 20.0049 5.21284L19.9627 5.16362C19.8641 5.04773 19.7327 4.96442 19.5859 4.92467C19.439 4.88492 19.2836 4.89061 19.14 4.94097L17.2345 5.61831C16.5314 5.04175 15.7486 4.58706 14.9002 4.26831H14.8978L14.5299 2.27612C14.5275 2.2644 14.5252 2.25034 14.5205 2.23862C14.4866 2.09692 14.4124 1.9681 14.3067 1.86782C14.201 1.76754 14.0684 1.70013 13.9252 1.67378L13.8619 1.66206C12.6408 1.44175 11.3564 1.44175 10.1353 1.66206L10.072 1.67378C9.92203 1.70096 9.78384 1.77314 9.67584 1.88073C9.56783 1.98832 9.49511 2.12622 9.46735 2.27612L9.09704 4.27769C8.25537 4.5965 7.47157 5.05095 6.77673 5.623L4.8572 4.94097C4.71368 4.89021 4.55811 4.88432 4.41117 4.92409C4.26423 4.96386 4.13286 5.04741 4.03454 5.16362L3.99235 5.21284C3.18082 6.16938 2.54808 7.26418 2.12438 8.44487L2.10329 8.50581C2.05445 8.64202 2.04594 8.78943 2.07878 8.93036C2.11162 9.07129 2.18442 9.19975 2.28845 9.30034C2.30016 9.30972 2.30954 9.32144 2.32126 9.33081L3.87516 10.6574V10.6597C3.80251 11.1003 3.76735 11.548 3.76735 11.9957C3.76735 12.4457 3.80251 12.8957 3.87516 13.3339L2.32126 14.6605C2.20547 14.7596 2.12259 14.8916 2.08366 15.039C2.04472 15.1864 2.05157 15.3421 2.10329 15.4855L2.12438 15.5464C2.5486 16.7277 3.17673 17.8175 3.99235 18.7785L4.03454 18.8277C4.14938 18.9613 4.30173 19.048 4.46813 19.0785C4.5947 19.1019 4.72829 19.0949 4.8572 19.0503L6.77673 18.3683C6.77907 18.3707 6.78376 18.373 6.7861 18.3753C7.4822 18.9449 8.25798 19.3972 9.09704 19.7136L9.46735 21.7152C9.49511 21.8651 9.56783 22.003 9.67584 22.1106C9.78384 22.2182 9.92203 22.2903 10.072 22.3175L10.1353 22.3292C10.747 22.4394 11.3728 22.4957 11.9986 22.4957H12.0056C12.6291 22.4957 13.2549 22.4394 13.8619 22.3292L13.9252 22.3175ZM12.9924 20.7589C12.3304 20.8339 11.6621 20.8339 11.0002 20.7589L10.5806 18.4808L9.6947 18.141C9.02673 17.8878 8.40563 17.5269 7.85016 17.0699L7.11423 16.4628L4.92517 17.241C4.52673 16.7042 4.19391 16.1253 3.92673 15.516L5.69626 14.0042L5.54392 13.0667C5.48767 12.7175 5.4572 12.3566 5.4572 12.0003C5.4572 11.6417 5.48532 11.2832 5.54392 10.9339L5.69626 9.99644L3.92673 8.48472C4.19157 7.873 4.52673 7.29644 4.92517 6.75972L7.11423 7.53784L7.85016 6.93081C8.40563 6.47378 9.02673 6.11284 9.6947 5.85972L10.583 5.52456L11.0025 3.24644C11.6611 3.17144 12.3338 3.17144 12.9947 3.24644L13.4142 5.51987L14.3072 5.85503C14.9799 6.10815 15.6056 6.46909 16.1658 6.92847L16.9017 7.53315L19.0767 6.76206C19.4752 7.29878 19.808 7.87769 20.0752 8.48706L18.3244 9.98472L18.4767 10.9199C18.5353 11.2738 18.5658 11.6371 18.5658 12.0003C18.5658 12.3636 18.5353 12.7269 18.4767 13.0808L18.322 14.0207L20.0728 15.5183C19.8074 16.1298 19.4724 16.7086 19.0744 17.2433L16.8994 16.4722L16.1634 17.0769C15.6033 17.5363 14.9799 17.8972 14.3049 18.1503L13.4119 18.4855L12.9924 20.7589Z" fill="#397DFF"/>
</svg>
