<svg width="24" height="24" viewBox="0 0 24 24" fill="none" xmlns="http://www.w3.org/2000/svg">
<path fill-rule="evenodd" clip-rule="evenodd" d="M8 1C8.55228 1 9 1.44772 9 2V3H15V2C15 1.44772 15.4477 1 16 1C16.5523 1 17 1.44772 17 2V3H19C20.6569 3 22 4.34315 22 6V20C22 21.6569 20.6569 23 19 23H5C3.34315 23 2 21.6569 2 20V6C2 4.34315 3.34315 3 5 3H7V2C7 1.44772 7.44772 1 8 1ZM7 5H5C4.44772 5 4 5.44772 4 6V9H20V6C20 5.44771 19.5523 5 19 5H17V6C17 6.55228 16.5523 7 16 7C15.4477 7 15 6.55228 15 6V5H9V6C9 6.55228 8.55228 7 8 7C7.44772 7 7 6.55228 7 6V5ZM20 11H4V20C4 20.5523 4.44771 21 5 21H19C19.5523 21 20 20.5523 20 20V11ZM8.17569 12.0632C8.56622 11.6726 9.19938 11.6726 9.58991 12.0632L10.2426 12.7159C10.7954 12.4803 11.4382 12.3291 12.176 12.3291C13.9346 12.3291 15.153 13.188 15.9004 14.0012C16.272 14.4056 16.5366 14.807 16.709 15.1078C16.7958 15.2591 16.8607 15.3876 16.9055 15.482C16.9279 15.5293 16.9454 15.5682 16.9581 15.5974C16.9645 15.612 16.9697 15.6243 16.9737 15.6339L16.9788 15.6464L16.9808 15.6511L16.9816 15.6531L16.9823 15.6549L17.1147 15.9856L17.0082 16.3256L16.0539 16.0266C17.0082 16.3256 17.0079 16.3266 17.0079 16.3266L17.0076 16.3276L17.0069 16.3298L17.0052 16.3351L17.0008 16.3487C16.9987 16.355 16.9962 16.3623 16.9934 16.3706C16.9916 16.3759 16.9896 16.3816 16.9875 16.3877C16.9766 16.4188 16.9616 16.46 16.9421 16.5098C16.9033 16.6092 16.8461 16.7441 16.7677 16.9028C16.6119 17.2181 16.3661 17.6388 16.0032 18.0627C15.9411 18.1352 15.8756 18.2077 15.8066 18.2798L16.1765 18.6497C16.567 19.0402 16.567 19.6734 16.1765 20.0639C15.7859 20.4544 15.1528 20.4544 14.7622 20.0639L14.1281 19.4297C13.5738 19.6559 12.9261 19.798 12.176 19.798C10.3174 19.798 9.08798 18.9259 8.34886 18.0627C7.98588 17.6388 7.74016 17.2181 7.58432 16.9028C7.5059 16.7441 7.44876 16.6092 7.40989 16.5098C7.39043 16.46 7.37544 16.4188 7.36457 16.3877C7.35913 16.3721 7.35471 16.3591 7.35127 16.3487L7.34683 16.3351L7.34515 16.3298L7.34444 16.3276L7.34412 16.3266C7.34412 16.3266 7.34382 16.3256 8.29808 16.0266C7.36975 15.6549 7.37045 15.6531 7.37045 15.6531L7.37126 15.6511L7.37319 15.6464L7.37836 15.6339C7.38237 15.6243 7.38755 15.612 7.3939 15.5974C7.40661 15.5682 7.42409 15.5293 7.44652 15.482C7.4913 15.3876 7.55628 15.2591 7.64303 15.1078C7.81547 14.807 8.07999 14.4056 8.45161 14.0012C8.49053 13.9588 8.53073 13.9164 8.57222 13.8739L8.17569 13.4774C7.78517 13.0868 7.78517 12.4537 8.17569 12.0632ZM8.29808 16.0266L7.34382 16.3256L7.2373 15.9856L7.36975 15.6549L8.29808 16.0266ZM9.92419 15.3545C9.94458 15.3323 9.96537 15.3102 9.98655 15.2882L12.4836 17.7853C12.3847 17.7936 12.2823 17.798 12.176 17.798C11.0249 17.798 10.3154 17.2844 9.86801 16.7619C9.6549 16.513 9.50245 16.2615 9.40084 16.0634C9.51841 15.8635 9.69151 15.6077 9.92419 15.3545ZM11.8704 14.3437L14.3919 16.8651C14.4238 16.8309 14.4545 16.7964 14.484 16.7619C14.6971 16.513 14.8496 16.2615 14.9512 16.0634C14.8336 15.8635 14.6605 15.6077 14.4278 15.3545C13.9357 14.819 13.2152 14.3291 12.176 14.3291C12.0709 14.3291 11.9691 14.3341 11.8704 14.3437Z" fill="#393B55"/>
</svg>
