<svg width="24" height="24" viewBox="0 0 24 24" fill="none" xmlns="http://www.w3.org/2000/svg">
<path fill-rule="evenodd" clip-rule="evenodd" d="M9 2C9 1.44772 8.55228 1 8 1C7.44772 1 7 1.44772 7 2V3H5C3.34315 3 2 4.34315 2 6V20C2 21.6569 3.34315 23 5 23H19C20.6569 23 22 21.6569 22 20V6C22 4.34315 20.6569 3 19 3H17V2C17 1.44772 16.5523 1 16 1C15.4477 1 15 1.44772 15 2V3H9V2ZM5 5H7V6C7 6.55228 7.44772 7 8 7C8.55228 7 9 6.55228 9 6V5H15V6C15 6.55228 15.4477 7 16 7C16.5523 7 17 6.55228 17 6V5H19C19.5523 5 20 5.44771 20 6V9H4V6C4 5.44772 4.44772 5 5 5ZM4 11H20V20C20 20.5523 19.5523 21 19 21H5C4.44771 21 4 20.5523 4 20V11ZM9.52638 18.2505C9.13586 17.8599 9.13586 17.2268 9.52638 16.8362L10.5859 15.7767L9.52409 14.715C9.13357 14.3244 9.13357 13.6913 9.52409 13.3007C9.91462 12.9102 10.5478 12.9102 10.9383 13.3007L12.0001 14.3625L13.0619 13.3007C13.4524 12.9102 14.0856 12.9102 14.4761 13.3007C14.8667 13.6912 14.8667 14.3244 14.4761 14.7149L13.4143 15.7767L14.4738 16.8363C14.8644 17.2268 14.8644 17.86 14.4738 18.2505C14.0833 18.641 13.4502 18.641 13.0596 18.2505L12.0001 17.191L10.9406 18.2505C10.5501 18.641 9.91691 18.641 9.52638 18.2505Z" fill="#393B55"/>
</svg>
