<svg width="24" height="24" viewBox="0 0 24 24" fill="none" xmlns="http://www.w3.org/2000/svg">
<path d="M21.6312 16.4508H7.6742L8.37498 15.0234L20.0187 15.0023C20.4125 15.0023 20.75 14.7211 20.8203 14.332L22.4328 5.30625C22.475 5.06953 22.4117 4.82578 22.257 4.64062C22.1806 4.5495 22.0852 4.4761 21.9775 4.42551C21.8699 4.37492 21.7525 4.34835 21.6336 4.34766L6.82108 4.29844L6.69451 3.70312C6.61483 3.32344 6.27264 3.04688 5.88358 3.04688H2.26248C2.04306 3.04688 1.83262 3.13404 1.67746 3.2892C1.52231 3.44436 1.43514 3.65479 1.43514 3.87422C1.43514 4.09364 1.52231 4.30408 1.67746 4.45924C1.83262 4.6144 2.04306 4.70156 2.26248 4.70156H5.21326L5.76639 7.33125L7.12811 13.9242L5.37498 16.7859C5.28394 16.9088 5.2291 17.0547 5.21668 17.2071C5.20425 17.3596 5.23473 17.5124 5.30467 17.6484C5.44529 17.9273 5.72889 18.1031 6.04295 18.1031H7.51483C7.20104 18.5199 7.03155 19.0275 7.03201 19.5492C7.03201 20.8758 8.11014 21.9539 9.4367 21.9539C10.7633 21.9539 11.8414 20.8758 11.8414 19.5492C11.8414 19.0266 11.668 18.518 11.3586 18.1031H15.1344C14.8206 18.5199 14.6511 19.0275 14.6515 19.5492C14.6515 20.8758 15.7297 21.9539 17.0562 21.9539C18.3828 21.9539 19.4609 20.8758 19.4609 19.5492C19.4609 19.0266 19.2875 18.518 18.9781 18.1031H21.6336C22.0883 18.1031 22.4609 17.7328 22.4609 17.2758C22.4596 17.0566 22.3716 16.8468 22.2161 16.6923C22.0607 16.5377 21.8504 16.4509 21.6312 16.4508ZM7.16561 5.92969L20.6609 5.97422L19.339 13.3758L8.73826 13.3945L7.16561 5.92969ZM9.4367 20.2898C9.02889 20.2898 8.69608 19.957 8.69608 19.5492C8.69608 19.1414 9.02889 18.8086 9.4367 18.8086C9.84451 18.8086 10.1773 19.1414 10.1773 19.5492C10.1773 19.7456 10.0993 19.934 9.9604 20.0729C9.82151 20.2118 9.63313 20.2898 9.4367 20.2898ZM17.0562 20.2898C16.6484 20.2898 16.3156 19.957 16.3156 19.5492C16.3156 19.1414 16.6484 18.8086 17.0562 18.8086C17.464 18.8086 17.7969 19.1414 17.7969 19.5492C17.7969 19.7456 17.7188 19.934 17.5799 20.0729C17.441 20.2118 17.2527 20.2898 17.0562 20.2898Z" fill="#282A3C" fill-opacity="0.45"/>
</svg>
