<svg width="24" height="24" viewBox="0 0 24 24" fill="none" xmlns="http://www.w3.org/2000/svg">
<path d="M19.6787 10.1669L17.5552 3.52705C17.5414 3.48262 17.5137 3.44381 17.4761 3.41637C17.4386 3.38893 17.3932 3.37432 17.3466 3.3747H15.5326C15.4365 3.3747 15.3545 3.43564 15.324 3.52705L13.1841 10.1669C13.1771 10.188 13.1724 10.2114 13.1724 10.2349C13.1724 10.3544 13.2709 10.4528 13.3904 10.4528H14.7123C14.8107 10.4528 14.8951 10.3872 14.9232 10.2935L15.3334 8.8497H17.4193L17.8248 10.2911C17.8506 10.3849 17.9373 10.4505 18.0357 10.4505H19.4701C19.4935 10.4505 19.5146 10.4481 19.5357 10.4411C19.592 10.4224 19.6365 10.3849 19.6646 10.3333C19.6904 10.2817 19.6951 10.2231 19.6787 10.1669ZM15.5466 7.62861L16.3154 4.88876H16.4631L17.2154 7.62861H15.5466ZM18.9099 19.181H15.8724V19.1716L18.9802 14.7442C19.006 14.7067 19.0201 14.6645 19.0201 14.6177V13.7645C19.0201 13.645 18.9216 13.5466 18.8021 13.5466H14.0209C13.9013 13.5466 13.8029 13.645 13.8029 13.7645V14.7724C13.8029 14.8919 13.9013 14.9903 14.0209 14.9903H16.8943V14.9997L13.7748 19.427C13.7487 19.4641 13.7348 19.5083 13.7349 19.5536V20.4067C13.7349 20.5263 13.8334 20.6247 13.9529 20.6247H18.9076C19.0271 20.6247 19.1256 20.5263 19.1256 20.4067V19.3989C19.1259 19.3704 19.1205 19.3421 19.1098 19.3157C19.0991 19.2893 19.0833 19.2652 19.0632 19.2449C19.0432 19.2247 19.0193 19.2086 18.993 19.1976C18.9667 19.1866 18.9384 19.181 18.9099 19.181ZM9.75055 16.4528H7.9693V4.03095C7.9693 3.92783 7.88493 3.84345 7.7818 3.84345H6.4693C6.36618 3.84345 6.2818 3.92783 6.2818 4.03095V16.4528H4.50055C4.34352 16.4528 4.25446 16.6356 4.3529 16.7575L6.9779 20.0833C6.99543 20.1057 7.01784 20.1238 7.04343 20.1363C7.06901 20.1488 7.09709 20.1552 7.12555 20.1552C7.15401 20.1552 7.18209 20.1488 7.20768 20.1363C7.23326 20.1238 7.25567 20.1057 7.27321 20.0833L9.89821 16.7575C9.9943 16.6356 9.90758 16.4528 9.75055 16.4528Z" fill="#282A3C" fill-opacity="0.45"/>
</svg>
