<svg width="24" height="24" viewBox="0 0 24 24" fill="none" xmlns="http://www.w3.org/2000/svg">
<path opacity="0.1" d="M12.0113 4.46216L9.79882 8.94575L4.84882 9.66528L8.43007 13.1575L7.58397 18.0864L12.0113 15.759L16.4387 18.084L15.5926 13.1551L19.1738 9.66528L14.2238 8.94575L12.0113 4.46216Z" fill="#397DFF"/>
<path d="M21.2954 8.26827L15.3446 7.40343L12.6844 2.01046C12.6118 1.8628 12.4923 1.74327 12.3446 1.67061C11.9743 1.4878 11.5243 1.64015 11.3391 2.01046L8.67898 7.40343L2.7282 8.26827C2.56414 8.29171 2.41414 8.36905 2.29929 8.48624C2.16045 8.62894 2.08395 8.82093 2.08658 9.02001C2.08922 9.21909 2.17079 9.40898 2.31336 9.54796L6.61882 13.7456L5.60164 19.673C5.57778 19.8108 5.59304 19.9526 5.64568 20.0823C5.69832 20.212 5.78623 20.3243 5.89945 20.4065C6.01267 20.4887 6.14667 20.5376 6.28625 20.5475C6.42582 20.5575 6.56539 20.5281 6.68914 20.4628L12.0118 17.6644L17.3344 20.4628C17.4798 20.5401 17.6485 20.5659 17.8102 20.5378C18.218 20.4675 18.4923 20.0808 18.4219 19.673L17.4048 13.7456L21.7102 9.54796C21.8274 9.43311 21.9048 9.28311 21.9282 9.11905C21.9915 8.70889 21.7055 8.32921 21.2954 8.26827ZM15.593 13.155L16.4391 18.0839L12.0118 15.7589L7.58445 18.0862L8.43054 13.1573L4.84929 9.66514L9.79929 8.94561L12.0118 4.46202L14.2243 8.94561L19.1743 9.66514L15.593 13.155Z" fill="#397DFF"/>
</svg>
