<svg width="24" height="24" viewBox="0 0 24 24" fill="none" xmlns="http://www.w3.org/2000/svg">
<path d="M21.2837 8.27465L15.3329 7.40981L12.6727 2.01684C12.6001 1.86918 12.4805 1.74965 12.3329 1.67699C11.9626 1.49418 11.5126 1.64652 11.3274 2.01684L8.66726 7.40981L2.71648 8.27465C2.55242 8.29809 2.40242 8.37543 2.28757 8.49262C2.14873 8.63532 2.07223 8.82731 2.07486 9.02639C2.0775 9.22547 2.15907 9.41536 2.30164 9.55434L6.60711 13.752L5.58992 19.6793C5.56606 19.8172 5.58132 19.959 5.63396 20.0887C5.6866 20.2183 5.77452 20.3306 5.88773 20.4129C6.00095 20.4951 6.13495 20.544 6.27453 20.5539C6.4141 20.5639 6.55368 20.5345 6.67742 20.4692L12.0001 17.6707L17.3227 20.4692C17.468 20.5465 17.6368 20.5723 17.7985 20.5442C18.2063 20.4739 18.4805 20.0871 18.4102 19.6793L17.393 13.752L21.6985 9.55434C21.8157 9.43949 21.893 9.28949 21.9165 9.12543C21.9798 8.71527 21.6938 8.33559 21.2837 8.27465ZM15.5813 13.1614L16.4274 18.0903L12.0001 15.7653L7.57273 18.0926L8.41882 13.1637L4.83757 9.67152L9.78757 8.95199L12.0001 4.4684L14.2126 8.95199L19.1626 9.67152L15.5813 13.1614Z" fill="#282A3C" fill-opacity="0.45"/>
</svg>
