<svg width="24" height="24" viewBox="0 0 24 24" fill="none" xmlns="http://www.w3.org/2000/svg">
<path fill-rule="evenodd" clip-rule="evenodd" d="M15.2809 5.20261C15.2809 5.01657 15.0804 4.89952 14.9184 4.991L8.67935 8.51424C8.7057 8.63319 8.71959 8.75683 8.71959 8.88372V11.5569C8.71959 11.8616 8.63944 12.1477 8.49907 12.3951C8.52057 12.4414 8.55651 12.4807 8.6029 12.5061L14.9213 15.9626C15.0832 16.0512 15.2809 15.934 15.2809 15.7494V5.20261ZM7.88307 7.28939C7.84489 7.31095 7.80776 7.33386 7.77171 7.35804C7.54466 7.24573 7.28895 7.18262 7.01849 7.18262H3.8593C2.91981 7.18262 2.1582 7.94423 2.1582 8.88372V11.5569C2.1582 12.3719 2.73138 13.0531 3.49663 13.2192L4.46836 19.0782C4.62208 20.0051 5.49804 20.6318 6.42487 20.4781L7.05558 20.3735C7.98241 20.2198 8.60914 19.3438 8.45543 18.417L7.66053 13.6242C7.73589 13.6841 7.81693 13.7381 7.90311 13.7852L14.2215 17.2418C15.3551 17.8619 16.739 17.0415 16.739 15.7494V5.20261C16.739 3.9003 15.3354 3.081 14.2014 3.72137L7.88307 7.28939ZM7.01849 8.6407L7.02338 8.64075C7.0201 8.68375 7.01843 8.72707 7.01843 8.77063V11.7999H3.8593C3.72509 11.7999 3.61629 11.6911 3.61629 11.5569V8.88372C3.61629 8.7495 3.72509 8.6407 3.8593 8.6407H7.01849ZM6.12179 13.258H4.98106L5.9068 18.8397C5.92876 18.9721 6.0539 19.0616 6.1863 19.0397L6.81701 18.9351C6.94942 18.9131 7.03895 18.788 7.01699 18.6556L6.12179 13.258ZM18.6831 10.1006C18.2805 10.1006 17.9541 10.427 17.9541 10.8296C17.9541 11.2323 18.2805 11.5587 18.6831 11.5587H21.1133C21.5159 11.5587 21.8423 11.2323 21.8423 10.8296C21.8423 10.427 21.5159 10.1006 21.1133 10.1006H18.6831ZM18.052 7.79055C17.8507 7.44185 17.9702 6.99598 18.3189 6.79466L20.4234 5.57959C20.7721 5.37827 21.218 5.49774 21.4193 5.84643C21.6206 6.19513 21.5012 6.64101 21.1525 6.84233L19.0479 8.0574C18.6992 8.25872 18.2533 8.13925 18.052 7.79055ZM19.0479 13.5979C18.6992 13.3966 18.2533 13.5161 18.052 13.8648C17.8507 14.2135 17.9701 14.6593 18.3188 14.8607L20.4234 16.0757C20.7721 16.2771 21.218 16.1576 21.4193 15.8089C21.6206 15.4602 21.5011 15.0143 21.1524 14.813L19.0479 13.5979Z" fill="#393B55"/>
</svg>
