<svg width="24" height="24" viewBox="0 0 24 24" fill="none" xmlns="http://www.w3.org/2000/svg">
<path d="M3.93696 11.8172C3.9604 10.793 4.17134 9.79922 4.56743 8.86406C4.9729 7.90313 5.55415 7.04297 6.29478 6.3C7.0354 5.55703 7.8979 4.97578 8.85884 4.57031C9.85259 4.15078 10.9073 3.9375 11.9971 3.9375C13.087 3.9375 14.1417 4.15078 15.1331 4.57031C16.0912 4.97495 16.9614 5.56246 17.6948 6.3C17.9268 6.53203 18.1448 6.77813 18.3463 7.03594L16.9354 8.1375C16.9075 8.1591 16.8862 8.18813 16.8741 8.22127C16.8619 8.25441 16.8594 8.2903 16.8667 8.32483C16.8741 8.35935 16.891 8.39109 16.9156 8.41642C16.9402 8.44174 16.9714 8.45961 17.0057 8.46797L21.1237 9.47578C21.2409 9.50391 21.3557 9.41484 21.3557 9.29531L21.3745 5.05547C21.3745 4.89844 21.194 4.80937 21.0721 4.90781L19.7502 5.94141C17.9479 3.63516 15.1448 2.15625 11.9948 2.15625C6.62524 2.15625 2.25649 6.45937 2.15571 11.8078C2.15509 11.8328 2.15948 11.8577 2.16862 11.881C2.17776 11.9043 2.19147 11.9255 2.20895 11.9434C2.22642 11.9613 2.2473 11.9756 2.27036 11.9853C2.29342 11.995 2.31819 12 2.34321 12H3.74946C3.85259 12 3.93462 11.918 3.93696 11.8172ZM21.6557 12H20.2495C20.1463 12 20.0643 12.082 20.062 12.1828C20.0385 13.207 19.8276 14.2008 19.4315 15.1359C19.026 16.0969 18.4448 16.9594 17.7042 17.7C16.9566 18.4506 16.0679 19.0458 15.0892 19.4513C14.1105 19.8568 13.0612 20.0645 12.0018 20.0625C10.9428 20.0645 9.89387 19.8567 8.91556 19.4513C7.93724 19.0458 7.04891 18.4506 6.30181 17.7C6.06978 17.468 5.85181 17.2219 5.65025 16.9641L7.06118 15.8625C7.0891 15.8409 7.11035 15.8119 7.1225 15.7787C7.13465 15.7456 7.1372 15.7097 7.12985 15.6752C7.12251 15.6407 7.10557 15.6089 7.08098 15.5836C7.05639 15.5583 7.02516 15.5404 6.99087 15.532L2.8729 14.5242C2.75571 14.4961 2.64087 14.5852 2.64087 14.7047L2.62446 18.9469C2.62446 19.1039 2.80493 19.193 2.92681 19.0945L4.24868 18.0609C6.05103 20.3648 8.85415 21.8438 12.0042 21.8438C17.376 21.8438 21.7424 17.5383 21.8432 12.1922C21.8438 12.1672 21.8395 12.1423 21.8303 12.119C21.8212 12.0957 21.8075 12.0745 21.79 12.0566C21.7725 12.0387 21.7516 12.0244 21.7286 12.0147C21.7055 12.005 21.6807 12 21.6557 12Z" fill="#282A3C" fill-opacity="0.45"/>
</svg>
