<svg width="24" height="24" viewBox="0 0 24 24" fill="none" xmlns="http://www.w3.org/2000/svg">
<path d="M11.3241 18.523L20.1881 9.65662C20.228 9.61677 20.2467 9.56287 20.242 9.50896L19.6444 2.4449C19.628 2.26208 19.485 2.11912 19.3022 2.10271L12.2381 1.5074C12.1842 1.50271 12.128 1.52146 12.0905 1.5613L3.2264 10.4254C3.19151 10.4606 3.17194 10.5082 3.17194 10.5578C3.17194 10.6074 3.19151 10.655 3.2264 10.6902L11.0592 18.523C11.1319 18.598 11.2514 18.598 11.3241 18.523ZM12.7912 3.2488L18.0553 3.69412L18.5006 8.95818L11.1905 16.266L5.48109 10.559L12.7912 3.2488ZM14.2013 7.61357C14.3057 7.71803 14.4298 7.80089 14.5663 7.85742C14.7028 7.91395 14.8491 7.94304 14.9968 7.94303C15.1445 7.94302 15.2908 7.91391 15.4273 7.85736C15.5638 7.80081 15.6878 7.71793 15.7923 7.61345C15.8968 7.50897 15.9796 7.38494 16.0362 7.24844C16.0927 7.11194 16.1218 6.96564 16.1218 6.8179C16.1218 6.67016 16.0926 6.52386 16.0361 6.38737C15.9795 6.25088 15.8967 6.12686 15.7922 6.0224C15.6877 5.91793 15.5637 5.83507 15.4272 5.77854C15.2907 5.72202 15.1444 5.69293 14.9966 5.69294C14.8489 5.69295 14.7026 5.72206 14.5661 5.77861C14.4296 5.83516 14.3056 5.91804 14.2011 6.02251C14.0967 6.12699 14.0138 6.25102 13.9573 6.38752C13.9008 6.52402 13.8717 6.67032 13.8717 6.81807C13.8717 6.96581 13.9008 7.1121 13.9573 7.2486C14.0139 7.38509 14.0968 7.50911 14.2013 7.61357ZM20.8514 12.6519L19.9233 11.7261C19.888 11.6913 19.8405 11.6717 19.7909 11.6717C19.7413 11.6717 19.6937 11.6913 19.6584 11.7261L11.1741 20.1941L5.60531 14.6394C5.57007 14.6045 5.52248 14.585 5.47289 14.585C5.4233 14.585 5.37571 14.6045 5.34047 14.6394L4.41234 15.5652C4.37745 15.6004 4.35787 15.648 4.35787 15.6976C4.35787 15.7472 4.37745 15.7948 4.41234 15.8301L10.1123 21.5207L11.0405 22.4465C11.1131 22.5191 11.2327 22.5191 11.3053 22.4465L20.8514 12.9168C20.9241 12.8441 20.9241 12.7246 20.8514 12.6519Z" fill="#282A3C" fill-opacity="0.45"/>
</svg>
