<svg width="24" height="24" viewBox="0 0 24 24" fill="none" xmlns="http://www.w3.org/2000/svg">
<path opacity="0.1" d="M11.191 16.266L18.5012 8.95815L18.0558 3.69409L12.7918 3.24878L5.48163 10.5589L11.191 16.266ZM13.9098 6.52769C13.9605 6.33703 14.0607 6.16315 14.2002 6.02363C14.3397 5.88412 14.5136 5.78392 14.7043 5.73315C15.0933 5.63003 15.5058 5.74019 15.7918 6.02378C15.9316 6.16346 16.0321 6.33756 16.0831 6.5285C16.1342 6.71944 16.1339 6.92047 16.0824 7.11128C16.0316 7.30194 15.9314 7.47582 15.7919 7.61533C15.6524 7.75485 15.4785 7.85505 15.2879 7.90581C14.8988 8.00894 14.4863 7.89878 14.2004 7.61519C14.0613 7.47501 13.9613 7.30089 13.9103 7.11012C13.8593 6.91935 13.8591 6.71856 13.9098 6.52769Z" fill="#397DFF"/>
<path opacity="0.1" d="M11.1704 18.5768C11.1305 18.5721 11.0907 18.5534 11.0602 18.5229L3.22738 10.6901C3.19249 10.6549 3.17291 10.6073 3.17291 10.5577C3.17291 10.5081 3.19249 10.4605 3.22738 10.4253L12.0914 1.5612C12.1196 1.53073 12.1594 1.51198 12.2016 1.5073H12.1922C12.1383 1.50261 12.0821 1.52136 12.0446 1.5612L3.18051 10.4253C3.14561 10.4605 3.12604 10.5081 3.12604 10.5577C3.12604 10.6073 3.14561 10.6549 3.18051 10.6901L11.0133 18.5229C11.0555 18.5675 11.1141 18.5839 11.1704 18.5768Z" fill="#397DFF"/>
<path d="M20.8527 12.6521L19.9246 11.7264C19.8894 11.6915 19.8418 11.6719 19.7922 11.6719C19.7426 11.6719 19.695 11.6915 19.6598 11.7264L11.1754 20.1943L5.60663 14.6396C5.57139 14.6048 5.5238 14.5852 5.47421 14.5852C5.42461 14.5852 5.37703 14.6048 5.34179 14.6396L4.41366 15.5654C4.37877 15.6007 4.35919 15.6483 4.35919 15.6979C4.35919 15.7474 4.37877 15.795 4.41366 15.8303L10.1137 21.5209L11.0418 22.4467C11.1144 22.5193 11.234 22.5193 11.3066 22.4467L20.8527 12.917C20.9254 12.8443 20.9254 12.7248 20.8527 12.6521ZM15.2887 7.90605C15.4793 7.85529 15.6532 7.75509 15.7927 7.61557C15.9322 7.47606 16.0324 7.30218 16.0832 7.11152C16.1863 6.72246 16.0762 6.30996 15.7926 6.02402C15.6529 5.88419 15.4788 5.78369 15.2878 5.73267C15.0969 5.68164 14.8959 5.68189 14.7051 5.7334C14.5144 5.78416 14.3405 5.88436 14.201 6.02388C14.0615 6.16339 13.9613 6.33727 13.9105 6.52793C13.8074 6.91699 13.9176 7.32949 14.2012 7.61543C14.3413 7.75451 14.5155 7.85451 14.7062 7.90549C14.897 7.95647 15.0978 7.95667 15.2887 7.90605Z" fill="#397DFF"/>
<path d="M3.22738 10.4243C3.19249 10.4596 3.17291 10.5071 3.17291 10.5567C3.17291 10.6063 3.19249 10.6539 3.22738 10.6892L11.0602 18.522C11.0907 18.5524 11.1282 18.5712 11.1704 18.5759C11.2266 18.5829 11.2829 18.5642 11.325 18.522L20.1891 9.65557C20.2289 9.61572 20.2477 9.56182 20.243 9.50791L19.6454 2.44385C19.6289 2.26104 19.486 2.11807 19.3032 2.10166L12.2391 1.50635H12.2016C12.1594 1.51104 12.1219 1.52979 12.0914 1.56025L3.22738 10.4243ZM12.7922 3.24775L18.0563 3.69307L18.5016 8.95713L11.1914 16.2649L5.48207 10.5579L12.7922 3.24775Z" fill="#397DFF"/>
</svg>
