<svg width="24" height="24" viewBox="0 0 24 24" fill="none" xmlns="http://www.w3.org/2000/svg">
<path d="M19.3166 16.4039C18.73 15.8168 18.0445 15.3376 17.2916 14.9883C18.3534 14.1281 19.0307 12.8156 19.0307 11.3437C19.0307 8.74685 16.8651 6.61638 14.2682 6.65623C11.7112 6.69607 9.65101 8.77967 9.65101 11.3437C9.65101 12.8156 10.3307 14.1281 11.3901 14.9883C10.637 15.3373 9.95153 15.8165 9.36507 16.4039C8.08539 17.6859 7.35882 19.3781 7.31195 21.1828C7.31132 21.2078 7.31571 21.2327 7.32485 21.256C7.334 21.2793 7.34771 21.3005 7.36518 21.3184C7.38265 21.3363 7.40354 21.3506 7.4266 21.3603C7.44966 21.37 7.47443 21.375 7.49945 21.375H8.81195C8.91273 21.375 8.99711 21.2953 8.99945 21.1945C9.04398 19.8351 9.59476 18.5625 10.5627 17.5969C11.0581 17.0989 11.6472 16.7041 12.2961 16.4354C12.9451 16.1666 13.6408 16.0293 14.3432 16.0312C15.7705 16.0312 17.1135 16.5867 18.1237 17.5969C19.0893 18.5625 19.6401 19.8351 19.6869 21.1945C19.6893 21.2953 19.7737 21.375 19.8744 21.375H21.187C21.212 21.375 21.2367 21.37 21.2598 21.3603C21.2829 21.3506 21.3037 21.3363 21.3212 21.3184C21.3387 21.3005 21.3524 21.2793 21.3615 21.256C21.3707 21.2327 21.3751 21.2078 21.3745 21.1828C21.3276 19.3781 20.601 17.6859 19.3166 16.4039ZM14.3432 14.3437C13.5416 14.3437 12.7869 14.032 12.2221 13.4648C11.9386 13.1836 11.7147 12.8481 11.5637 12.4785C11.4127 12.1088 11.3377 11.7125 11.3432 11.3133C11.3502 10.5445 11.6573 9.80154 12.194 9.25076C12.7565 8.6742 13.5088 8.3531 14.3127 8.34373C15.1073 8.3367 15.8784 8.64607 16.4455 9.20154C17.0268 9.77107 17.3455 10.5328 17.3455 11.3437C17.3455 12.1453 17.0338 12.8976 16.4666 13.4648C16.1884 13.7444 15.8574 13.9661 15.4929 14.1169C15.1285 14.2678 14.7377 14.3449 14.3432 14.3437ZM8.47211 11.9625C8.45101 11.7586 8.43929 11.5523 8.43929 11.3437C8.43929 10.9711 8.47445 10.6078 8.54007 10.2539C8.55648 10.1695 8.51195 10.0828 8.4346 10.0476C8.11585 9.90467 7.82289 9.70779 7.56976 9.45935C7.27149 9.17015 7.03679 8.82195 6.88062 8.43697C6.72444 8.05199 6.65024 7.63868 6.66273 7.22342C6.68382 6.47107 6.98617 5.75623 7.51351 5.21717C8.09242 4.6242 8.87054 4.30076 9.69789 4.31013C10.4455 4.31717 11.1674 4.60545 11.7135 5.11638C11.8987 5.28982 12.058 5.48201 12.1916 5.68826C12.2385 5.76092 12.3299 5.79138 12.4096 5.76326C12.8221 5.62029 13.258 5.51951 13.7057 5.47263C13.8369 5.45857 13.9119 5.31795 13.8534 5.20076C13.0916 3.69373 11.5354 2.6531 9.73539 2.62498C7.13617 2.58513 4.97054 4.7156 4.97054 7.31013C4.97054 8.78201 5.64789 10.0945 6.7096 10.9547C5.96429 11.2992 5.27757 11.775 4.68226 12.3703C3.39789 13.6523 2.67132 15.3445 2.62445 17.1515C2.62382 17.1766 2.62821 17.2014 2.63735 17.2247C2.64649 17.248 2.66021 17.2693 2.67768 17.2872C2.69515 17.3051 2.71604 17.3193 2.7391 17.329C2.76216 17.3387 2.78693 17.3437 2.81195 17.3437H4.12679C4.22757 17.3437 4.31195 17.264 4.31429 17.1633C4.35882 15.8039 4.9096 14.5312 5.87757 13.5656C6.56664 12.8765 7.41039 12.3984 8.33148 12.1664C8.42289 12.1429 8.48382 12.0562 8.47211 11.9625Z" fill="#282A3C" fill-opacity="0.45"/>
</svg>
