<svg width="24" height="24" viewBox="0 0 24 24" fill="none" xmlns="http://www.w3.org/2000/svg">
<path d="M21.7406 7.50937C21.5281 7.27179 21.2681 7.08144 20.9775 6.95063C20.6868 6.81982 20.3719 6.75147 20.0531 6.75H15V5.25C14.9975 4.2562 14.6016 3.30381 13.8989 2.60108C13.1962 1.89836 12.2438 1.50248 11.25 1.5C11.1107 1.50113 10.9743 1.54011 10.8554 1.61276C10.7365 1.68542 10.6396 1.78903 10.575 1.9125L7.03125 9H3C2.60218 9 2.22064 9.15804 1.93934 9.43934C1.65804 9.72064 1.5 10.1022 1.5 10.5V18.75C1.5 19.1478 1.65804 19.5294 1.93934 19.8107C2.22064 20.092 2.60218 20.25 3 20.25H18.9281C19.4754 20.2477 20.0032 20.0469 20.4136 19.6848C20.824 19.3227 21.089 18.824 21.1594 18.2812L22.2844 9.28125C22.3218 8.96434 22.2928 8.6431 22.1992 8.33803C22.1055 8.03296 21.9494 7.75074 21.7406 7.50937ZM3 10.5H6.75V18.75H3V10.5ZM20.7938 9.09375L19.6688 18.0938C19.646 18.2744 19.5583 18.4406 19.422 18.5613C19.2857 18.6821 19.1102 18.7492 18.9281 18.75H8.25V9.92813L11.6906 3.04688C12.2003 3.14865 12.6589 3.4237 12.9888 3.8253C13.3186 4.22691 13.4992 4.73031 13.5 5.25V7.5C13.5 7.69891 13.579 7.88968 13.7197 8.03033C13.8603 8.17098 14.0511 8.25 14.25 8.25H20.0531C20.1593 8.25107 20.2641 8.27411 20.3609 8.31767C20.4577 8.36124 20.5444 8.42438 20.6156 8.50312C20.685 8.58363 20.7367 8.6778 20.7674 8.77953C20.798 8.88127 20.807 8.98832 20.7938 9.09375Z" fill="#393B55"/>
</svg>
