<svg width="24" height="24" viewBox="0 0 24 24" fill="none" xmlns="http://www.w3.org/2000/svg">
<path d="M22.2844 14.7188L21.1594 5.71875C21.089 5.17602 20.824 4.67728 20.4136 4.31519C20.0032 3.9531 19.4754 3.75227 18.9281 3.75H3C2.60218 3.75 2.22064 3.90804 1.93934 4.18934C1.65804 4.47064 1.5 4.85218 1.5 5.25V13.5C1.5 13.8978 1.65804 14.2794 1.93934 14.5607C2.22064 14.842 2.60218 15 3 15H7.03125L10.575 22.0875C10.6396 22.211 10.7365 22.3146 10.8554 22.3872C10.9743 22.4599 11.1107 22.4989 11.25 22.5C12.2438 22.4975 13.1962 22.1016 13.8989 21.3989C14.6016 20.6962 14.9975 19.7438 15 18.75V17.25H20.0531C20.3727 17.2514 20.6889 17.1843 20.9805 17.0534C21.272 16.9225 21.5322 16.7308 21.7435 16.491C21.9548 16.2513 22.1124 15.9691 22.2057 15.6634C22.299 15.3577 22.3258 15.0356 22.2844 14.7188ZM6.75 13.5H3V5.25H6.75V13.5ZM20.6156 15.4969C20.5444 15.5756 20.4577 15.6388 20.3609 15.6823C20.2641 15.7259 20.1593 15.7489 20.0531 15.75H14.25C14.0511 15.75 13.8603 15.829 13.7197 15.9697C13.579 16.1103 13.5 16.3011 13.5 16.5V18.75C13.4992 19.2697 13.3186 19.7731 12.9888 20.1747C12.6589 20.5763 12.2003 20.8514 11.6906 20.9531L8.25 14.0719V5.25H18.9281C19.1102 5.25085 19.2857 5.3179 19.422 5.43865C19.5583 5.5594 19.646 5.7256 19.6688 5.90625L20.7938 14.9062C20.807 15.0117 20.798 15.1187 20.7674 15.2205C20.7367 15.3222 20.685 15.4164 20.6156 15.4969Z" fill="#393B55"/>
</svg>
