<svg width="24" height="24" viewBox="0 0 24 24" fill="none" xmlns="http://www.w3.org/2000/svg">
<path fill-rule="evenodd" clip-rule="evenodd" d="M13.6371 2.46938L18.8871 7.71938C18.9567 7.78908 19.0119 7.87182 19.0495 7.96286C19.0872 8.05391 19.1065 8.15148 19.1064 8.25V8.93359L17.6064 10.4336V9H13.1064C12.9075 9 12.7168 8.92098 12.5761 8.78033C12.4355 8.63968 12.3564 8.44891 12.3564 8.25V3.75H4.10645V20.25H17.6064V20.2461L17.6123 20.252L19.1064 18.7578V20.25C19.1064 20.6478 18.9484 21.0294 18.6671 21.3107C18.3858 21.592 18.0043 21.75 17.6064 21.75H4.10645C3.70862 21.75 3.32709 21.592 3.04579 21.3107C2.76448 21.0294 2.60645 20.6478 2.60645 20.25V3.75C2.60645 3.35218 2.76448 2.97065 3.04579 2.68934C3.32709 2.40804 3.70862 2.25 4.10645 2.25H13.1064C13.205 2.24992 13.3025 2.26926 13.3936 2.3069C13.4846 2.34454 13.5674 2.39975 13.6371 2.46938ZM16.5461 7.5L13.8564 4.81031V7.5H16.5461Z" fill="#393B55"/>
<path fill-rule="evenodd" clip-rule="evenodd" d="M5.93733 13.7156C6.24975 13.4436 6.72349 13.4764 6.99545 13.7888C7.20596 14.0307 7.26411 14.3173 7.28164 14.516C7.30004 14.7247 7.28215 14.9407 7.25529 15.1345C7.21072 15.456 7.12338 15.8292 7.04346 16.1708L7.04322 16.1718C7.02828 16.2357 7.01359 16.2984 6.9995 16.3595C6.93462 16.6408 6.87945 16.8972 6.84473 17.1244C6.96766 16.9985 7.10172 16.8549 7.24681 16.6981L7.30978 16.6299C7.59779 16.3182 7.92622 15.9628 8.22451 15.7103C8.38145 15.5775 8.58244 15.4269 8.80693 15.3363C9.03374 15.2448 9.44366 15.1589 9.82008 15.4395C10.0215 15.5896 10.13 15.7857 10.1903 15.9376C10.2512 16.0913 10.2821 16.2484 10.2997 16.3825C10.3345 16.6473 10.3315 16.9421 10.3265 17.1792L10.3238 17.2959C10.41 17.2592 10.502 17.2206 10.5955 17.1834C10.8803 17.0701 11.2491 16.9403 11.6177 16.9078C11.9947 16.8746 12.5092 16.9357 12.884 17.373C13.1536 17.6875 13.1172 18.161 12.8027 18.4306C12.5059 18.685 12.0675 18.6669 11.7925 18.3996C11.7815 18.3998 11.7673 18.4004 11.7494 18.402C11.6105 18.4143 11.4117 18.4731 11.1498 18.5772C11.0316 18.6242 10.9147 18.6745 10.7932 18.7267L10.7716 18.736C10.648 18.7892 10.5134 18.8469 10.3885 18.8939C10.271 18.9382 10.1164 18.991 9.95859 19.0143C9.84303 19.0314 9.47732 19.0741 9.17559 18.7998C8.97403 18.6165 8.90356 18.3859 8.87462 18.2676C8.84106 18.1303 8.82844 17.9898 8.8227 17.873C8.81348 17.6855 8.81904 17.4633 8.82386 17.2705L8.82543 17.2072C8.68922 17.3477 8.54136 17.5075 8.38164 17.6802L8.34791 17.7167C8.04324 18.046 7.68433 18.4329 7.35555 18.6903C7.197 18.8144 6.97581 18.9656 6.7188 19.0346C6.58097 19.0717 6.40315 19.0933 6.20843 19.0491C6.00401 19.0027 5.82974 18.8946 5.69718 18.7483C5.30719 18.3176 5.28822 17.7321 5.31283 17.3395C5.33994 16.9067 5.44356 16.4312 5.53789 16.0223C5.55467 15.9496 5.57112 15.879 5.58709 15.8106L5.58737 15.8094C5.66752 15.4658 5.73531 15.1751 5.7695 14.9285C5.78669 14.8045 5.79059 14.7216 5.78881 14.671C5.60199 14.3645 5.65752 13.9591 5.93733 13.7156ZM11.8201 18.4006C11.8215 18.401 11.8225 18.4012 11.8232 18.4013L11.8201 18.4006Z" fill="#393B55"/>
<path fill-rule="evenodd" clip-rule="evenodd" d="M20.2739 10.812C19.9419 10.48 19.4038 10.48 19.0718 10.812L14.3704 15.5134C14.211 15.6728 14.1215 15.889 14.1215 16.1144L14.1215 18.0099C14.1215 18.4794 14.502 18.8599 14.9715 18.8599H16.867C17.0924 18.8599 17.3086 18.7704 17.468 18.611L22.1694 13.9096C22.5014 13.5776 22.5014 13.0395 22.1694 12.7075L20.2739 10.812ZM19.0398 12.9653L19.6729 12.3323L20.6491 13.3086L20.0161 13.9416L19.0398 12.9653ZM17.9792 14.026L18.9555 15.0022L16.5978 17.3599H15.6215V16.3836L17.9792 14.026Z" fill="#393B55"/>
</svg>
