<svg width="24" height="24" viewBox="0 0 24 24" fill="none" xmlns="http://www.w3.org/2000/svg">
<path opacity="0.1" d="M5.4375 19.6875H18.5625V12.5625H5.4375V19.6875ZM12 14.3906C12.2381 14.3907 12.4701 14.4663 12.6625 14.6065C12.8549 14.7468 12.9979 14.9445 13.0708 15.1711C13.1438 15.3978 13.1429 15.6417 13.0684 15.8679C12.9939 16.0941 12.8496 16.2908 12.6562 16.4297V17.6719C12.6562 17.775 12.5719 17.8594 12.4688 17.8594H11.5312C11.4281 17.8594 11.3438 17.775 11.3438 17.6719V16.4297C11.1504 16.2908 11.0061 16.0941 10.9316 15.8679C10.8571 15.6417 10.8562 15.3978 10.9292 15.1711C11.0021 14.9445 11.1451 14.7468 11.3375 14.6065C11.5299 14.4663 11.7619 14.3907 12 14.3906Z" fill="#397DFF"/>
<path d="M11.3435 16.4299V17.6721C11.3435 17.7752 11.4279 17.8596 11.531 17.8596H12.4685C12.5716 17.8596 12.656 17.7752 12.656 17.6721V16.4299C12.8495 16.291 12.9939 16.0943 13.0684 15.8681C13.143 15.6419 13.1438 15.3979 13.0709 15.1712C12.9979 14.9444 12.8549 14.7467 12.6624 14.6065C12.4699 14.4662 12.2379 14.3906 11.9997 14.3906C11.7616 14.3906 11.5296 14.4662 11.3371 14.6065C11.1446 14.7467 11.0016 14.9444 10.9286 15.1712C10.8556 15.3979 10.8565 15.6419 10.9311 15.8681C11.0056 16.0943 11.15 16.291 11.3435 16.4299Z" fill="#397DFF"/>
<path d="M19.5 10.875H7.78125V5.625C7.78125 4.90078 8.36953 4.3125 9.09375 4.3125H14.9062C15.6305 4.3125 16.2188 4.90078 16.2188 5.625V7.21875C16.2188 7.32188 16.3031 7.40625 16.4062 7.40625H17.7188C17.8219 7.40625 17.9062 7.32188 17.9062 7.21875V5.625C17.9062 3.96797 16.5633 2.625 14.9062 2.625H9.09375C7.43672 2.625 6.09375 3.96797 6.09375 5.625V10.875H4.5C4.08516 10.875 3.75 11.2102 3.75 11.625V20.625C3.75 21.0398 4.08516 21.375 4.5 21.375H19.5C19.9148 21.375 20.25 21.0398 20.25 20.625V11.625C20.25 11.2102 19.9148 10.875 19.5 10.875ZM18.5625 19.6875H5.4375V12.5625H18.5625V19.6875Z" fill="#397DFF"/>
</svg>
