<svg width="24" height="24" viewBox="0 0 24 24" fill="none" xmlns="http://www.w3.org/2000/svg">
<path d="M15.8971 15.3609C16.4643 15.0563 17.1135 14.8828 17.8049 14.8828H17.8073C17.8776 14.8828 17.9104 14.7984 17.8588 14.7516C17.1398 14.1063 16.3184 13.5851 15.4284 13.2094C15.419 13.2047 15.4096 13.2023 15.4002 13.1977C16.8557 12.1406 17.8026 10.4227 17.8026 8.48438C17.8026 5.27344 15.2057 2.67188 12.0018 2.67188C8.7979 2.67188 6.20337 5.27344 6.20337 8.48438C6.20337 10.4227 7.15024 12.1406 8.60806 13.1977C8.59868 13.2023 8.58931 13.2047 8.57993 13.2094C7.53228 13.6523 6.59243 14.2875 5.78384 15.0984C4.97991 15.9009 4.33989 16.8522 3.89946 17.8992C3.46613 18.9245 3.23227 20.023 3.2104 21.1359C3.20978 21.161 3.21416 21.1858 3.22331 21.2091C3.23245 21.2324 3.24616 21.2537 3.26363 21.2716C3.28111 21.2895 3.30199 21.3037 3.32505 21.3134C3.34811 21.3231 3.37288 21.3281 3.3979 21.3281H4.80181C4.90259 21.3281 4.98696 21.2461 4.98931 21.1453C5.03618 19.3359 5.7604 17.6414 7.04243 16.357C8.36665 15.0281 10.1292 14.2969 12.0042 14.2969C13.3331 14.2969 14.6081 14.6648 15.7073 15.3539C15.7355 15.3716 15.7679 15.3816 15.8013 15.3829C15.8346 15.3841 15.8676 15.3765 15.8971 15.3609ZM12.0042 12.5156C10.9307 12.5156 9.92056 12.0961 9.15884 11.3344C8.78406 10.9606 8.48695 10.5163 8.28462 10.0272C8.08229 9.53804 7.97874 9.0137 7.97993 8.48438C7.97993 7.40859 8.39946 6.39609 9.15884 5.63437C9.91821 4.87266 10.9284 4.45312 12.0042 4.45312C13.0799 4.45312 14.0877 4.87266 14.8495 5.63437C15.2242 6.00818 15.5214 6.45245 15.7237 6.94158C15.926 7.43071 16.0296 7.95505 16.0284 8.48438C16.0284 9.56016 15.6088 10.5727 14.8495 11.3344C14.0877 12.0961 13.0776 12.5156 12.0042 12.5156ZM20.6245 18.0938H14.9995C14.8963 18.0938 14.812 18.1781 14.812 18.2812V19.5938C14.812 19.6969 14.8963 19.7812 14.9995 19.7812H20.6245C20.7276 19.7812 20.812 19.6969 20.812 19.5938V18.2812C20.812 18.1781 20.7276 18.0938 20.6245 18.0938Z" fill="#282A3C" fill-opacity="0.45"/>
</svg>
