<svg width="24" height="24" viewBox="0 0 24 24" fill="none" xmlns="http://www.w3.org/2000/svg">
<path d="M15.8971 15.0563C16.4643 14.7516 17.1135 14.5781 17.8049 14.5781H17.8073C17.8776 14.5781 17.9104 14.4938 17.8588 14.4469C17.1398 13.8016 16.3184 13.2804 15.4284 12.9047C15.419 12.9 15.4096 12.8977 15.4002 12.893C16.8557 11.8359 17.8026 10.118 17.8026 8.17969C17.8026 4.96875 15.2057 2.36719 12.0018 2.36719C8.7979 2.36719 6.20337 4.96875 6.20337 8.17969C6.20337 10.118 7.15024 11.8359 8.60806 12.893C8.59868 12.8977 8.58931 12.9 8.57993 12.9047C7.53228 13.3477 6.59243 13.9828 5.78384 14.7938C4.97991 15.5962 4.33989 16.5475 3.89946 17.5945C3.46613 18.6198 3.23227 19.7184 3.2104 20.8312C3.20978 20.8563 3.21416 20.8812 3.22331 20.9044C3.23245 20.9277 3.24616 20.949 3.26363 20.9669C3.28111 20.9848 3.30199 20.999 3.32505 21.0087C3.34811 21.0184 3.37288 21.0234 3.3979 21.0234H4.80181C4.90259 21.0234 4.98696 20.9414 4.98931 20.8406C5.03618 19.0312 5.7604 17.3367 7.04243 16.0523C8.36665 14.7234 10.1292 13.9922 12.0042 13.9922C13.3331 13.9922 14.6081 14.3602 15.7073 15.0492C15.7355 15.067 15.7679 15.077 15.8013 15.0782C15.8346 15.0794 15.8676 15.0719 15.8971 15.0563ZM12.0042 12.2109C10.9307 12.2109 9.92056 11.7914 9.15884 11.0297C8.78406 10.6559 8.48695 10.2116 8.28462 9.72248C8.08229 9.23335 7.97874 8.70901 7.97993 8.17969C7.97993 7.10391 8.39946 6.09141 9.15884 5.32969C9.91821 4.56797 10.9284 4.14844 12.0042 4.14844C13.0799 4.14844 14.0877 4.56797 14.8495 5.32969C15.2242 5.70349 15.5214 6.14776 15.7237 6.63689C15.926 7.12603 16.0296 7.65036 16.0284 8.17969C16.0284 9.25547 15.6088 10.268 14.8495 11.0297C14.0877 11.7914 13.0776 12.2109 12.0042 12.2109ZM20.6245 17.7891H18.6557V15.8203C18.6557 15.7172 18.5713 15.6328 18.4682 15.6328H17.1557C17.0526 15.6328 16.9682 15.7172 16.9682 15.8203V17.7891H14.9995C14.8963 17.7891 14.812 17.8734 14.812 17.9766V19.2891C14.812 19.3922 14.8963 19.4766 14.9995 19.4766H16.9682V21.4453C16.9682 21.5484 17.0526 21.6328 17.1557 21.6328H18.4682C18.5713 21.6328 18.6557 21.5484 18.6557 21.4453V19.4766H20.6245C20.7276 19.4766 20.812 19.3922 20.812 19.2891V17.9766C20.812 17.8734 20.7276 17.7891 20.6245 17.7891Z" fill="#282A3C" fill-opacity="0.45"/>
</svg>
