<svg width="24" height="24" viewBox="0 0 24 24" fill="none" xmlns="http://www.w3.org/2000/svg">
<path fill-rule="evenodd" clip-rule="evenodd" d="M13.5444 4.04105C14.2945 4.90037 14.7498 6.02535 14.7498 7.25656C14.7498 8.11348 14.5292 8.91894 14.1422 9.6192C13.9783 9.92648 13.7829 10.2144 13.5602 10.4786C13.9675 10.6459 14.4137 10.7381 14.8821 10.7381C16.8049 10.7381 18.3637 9.17938 18.3637 7.25656C18.3637 5.33374 16.8049 3.77499 14.8821 3.77499C14.4076 3.77499 13.956 3.8696 13.5444 4.04105ZM12.4112 11.479C11.6507 11.9579 10.7502 12.235 9.78502 12.235C7.05949 12.235 4.85 10.0255 4.85 7.3C4.85 4.57447 7.05949 2.36499 9.78502 2.36499C10.7201 2.36499 11.5945 2.62508 12.3398 3.07687C13.0808 2.6253 13.9518 2.36499 14.8821 2.36499C17.5836 2.36499 19.7737 4.55502 19.7737 7.25656C19.7737 9.9581 17.5836 12.1481 14.8821 12.1481C13.9815 12.1481 13.1366 11.9042 12.4112 11.479ZM11.4875 10.3873C10.9828 10.6663 10.4025 10.825 9.78502 10.825C7.83821 10.825 6.26001 9.24681 6.26001 7.3C6.26001 5.3532 7.83821 3.77499 9.78502 3.77499C11.7318 3.77499 13.31 5.3532 13.31 7.3C13.31 7.90007 13.1601 8.46511 12.8956 8.95971C12.6577 9.38305 12.3337 9.7518 11.9468 10.0424L11.4875 10.3873ZM3.91 19.7481C3.91 16.6377 6.43442 14.1148 9.55002 14.1148C12.6656 14.1148 15.19 16.6377 15.19 19.7481C15.19 19.7686 15.1899 19.789 15.1897 19.8094C15.1869 19.9493 15.1789 20.0878 15.1659 20.2249H3.92987C3.91672 20.0678 3.91 19.9088 3.91 19.7481ZM15.5921 21.6349H3.50987C3.06327 21.6349 2.65887 21.315 2.58544 20.8473C2.52915 20.4887 2.5 20.1216 2.5 19.7481C2.5 15.8575 5.65711 12.7048 9.55002 12.7048C10.4255 12.7048 11.2637 12.8643 12.0372 13.1557C12.8071 12.8641 13.6414 12.7048 14.5114 12.7048C18.371 12.7048 21.4999 15.8337 21.4999 19.6933C21.4999 20.0631 21.4711 20.4267 21.4155 20.7818C21.3422 21.2499 20.9416 21.6349 20.495 21.6349H16.3693H15.5921ZM16.5882 20.1598H20.0707C20.0834 20.0061 20.0899 19.8505 20.0899 19.6933C20.0899 16.6124 17.5923 14.1148 14.5114 14.1148C14.2944 14.1148 14.0804 14.1272 13.87 14.1512C15.5301 15.4284 16.6009 17.4353 16.6009 19.6933C16.6009 19.7394 16.6005 19.7854 16.5996 19.8312C16.5983 19.9413 16.5945 20.0509 16.5882 20.1598Z" fill="#393B55"/>
</svg>
