<svg width="24" height="24" viewBox="0 0 24 24" fill="none" xmlns="http://www.w3.org/2000/svg">
<path fill-rule="evenodd" clip-rule="evenodd" d="M3.66406 4.70795C3.66406 3.38984 4.73261 2.32129 6.05073 2.32129H17.3331C18.6513 2.32129 19.7198 3.38984 19.7198 4.70795V11.8114C20.0058 12.5331 20.111 13.3376 19.9878 14.1607C19.8925 14.7974 19.6698 15.3834 19.3494 15.8969L21.3391 18.7886C21.9165 19.6277 21.7043 20.776 20.8652 21.3533C20.111 21.8723 19.107 21.7534 18.4923 21.1147C18.1491 21.3057 17.7538 21.4146 17.3331 21.4146H6.05073C4.73261 21.4146 3.66406 20.3461 3.66406 19.0279V4.70795ZM18.4745 16.9219C18.2011 17.1599 17.8999 17.365 17.5776 17.5323L19.373 20.1415C19.5428 20.3883 19.8805 20.4507 20.1273 20.2809C20.3741 20.1111 20.4365 19.7733 20.2667 19.5265L18.4745 16.9219ZM16.2986 17.97C15.8187 18.0574 15.3165 18.0687 14.8072 17.9924C12.3185 17.62 10.603 15.3005 10.9755 12.8118C11.3479 10.3231 13.6674 8.60762 16.1561 8.98009C17.0222 9.10972 17.7946 9.47514 18.418 10.0014V4.70795C18.418 4.10881 17.9323 3.62311 17.3331 3.62311H6.05073C5.45158 3.62311 4.96588 4.10881 4.96588 4.70795V19.0279C4.96588 19.6271 5.45158 20.1128 6.05073 20.1128H17.3331C17.4707 20.1128 17.6022 20.0872 17.7233 20.0405L16.2986 17.97ZM13.315 5.32129C12.9555 5.32129 12.6641 5.61271 12.6641 5.9722C12.6641 6.33168 12.9555 6.62311 13.315 6.62311H16.1356C16.4951 6.62311 16.7865 6.33168 16.7865 5.9722C16.7865 5.61271 16.4951 5.32129 16.1356 5.32129H13.315ZM6.92582 9.48099H9.51501C9.4474 8.88817 8.9125 8.39614 8.22041 8.39614C7.52833 8.39614 6.99343 8.88817 6.92582 9.48099ZM7.51067 7.64273C7.02832 7.37625 6.70164 6.86248 6.70164 6.27242C6.70164 5.40839 7.40208 4.70795 8.26611 4.70795C9.13014 4.70795 9.83057 5.40839 9.83057 6.27242C9.83057 6.87702 9.4876 7.40152 8.98559 7.66198C9.79742 7.95585 10.3901 8.70428 10.3901 9.60807C10.3901 9.664 10.3878 9.7195 10.3832 9.77449C10.3535 10.1333 10.0452 10.3489 9.74799 10.3489H6.69284C6.39565 10.3489 6.08729 10.1333 6.05759 9.77449C6.05303 9.7195 6.05072 9.664 6.05072 9.60807C6.05072 8.68383 6.67053 7.92206 7.51067 7.64273ZM7.56952 6.27242C7.56952 5.8877 7.88139 5.57583 8.26611 5.57583C8.65082 5.57583 8.96269 5.8877 8.96269 6.27242C8.96269 6.65713 8.65082 6.969 8.26611 6.969C7.88139 6.969 7.56952 6.65713 7.56952 6.27242ZM12.2629 13.0045C12.529 11.2269 14.1857 10.0015 15.9634 10.2676C17.741 10.5336 18.9664 12.1904 18.7003 13.968C18.4343 15.7456 16.7775 16.971 14.9999 16.705C13.2223 16.4389 11.9969 14.7822 12.2629 13.0045Z" fill="#393B55"/>
</svg>
