<svg width="12" height="17" viewBox="0 0 12 17" fill="none" xmlns="http://www.w3.org/2000/svg">
<path d="M2.1 8.64727L11.0812 15.7024C11.4152 15.9649 11.9062 15.7282 11.9062 15.3052V1.19461C11.9062 0.771563 11.4152 0.535078 11.0812 0.797578L2.1 7.85273C2.03973 7.89994 1.99099 7.96024 1.95747 8.02907C1.92395 8.09789 1.90653 8.17344 1.90653 8.25C1.90653 8.32656 1.92395 8.40211 1.95747 8.47094C1.99099 8.53976 2.03973 8.60006 2.1 8.64727ZM1.6875 16.5H0.1875C0.137772 16.5 0.0900804 16.4802 0.0549173 16.4451C0.0197543 16.4099 0 16.3622 0 16.3125V0.1875C0 0.137772 0.0197543 0.0900804 0.0549173 0.0549173C0.0900804 0.0197543 0.137772 0 0.1875 0H1.6875C1.73723 0 1.78492 0.0197543 1.82008 0.0549173C1.85525 0.0900804 1.875 0.137772 1.875 0.1875V16.3125C1.875 16.3622 1.85525 16.4099 1.82008 16.4451C1.78492 16.4802 1.73723 16.5 1.6875 16.5Z" fill="#282A3C" fill-opacity="0.45"/>
</svg>
