<svg width="24" height="24" viewBox="0 0 24 24" fill="none" xmlns="http://www.w3.org/2000/svg">
<path d="M14.9289 10.3821H7.61641C7.51329 10.3821 7.42891 10.4664 7.42891 10.5696V11.9758C7.42891 12.0789 7.51329 12.1633 7.61641 12.1633H14.9289C15.032 12.1633 15.1164 12.0789 15.1164 11.9758V10.5696C15.1164 10.4664 15.032 10.3821 14.9289 10.3821ZM21.5852 20.3196L18.1633 16.8977C21.025 13.4078 20.8258 8.23754 17.5539 4.96801C14.0852 1.49691 8.45079 1.49691 4.96797 4.96801C1.49688 8.45082 1.49688 14.0852 4.96797 17.5539C8.23751 20.8258 13.4078 21.025 16.8977 18.1633L20.3195 21.5852C20.3945 21.6508 20.5141 21.6508 20.5774 21.5852L21.5852 20.5774C21.6508 20.5141 21.6508 20.3946 21.5852 20.3196ZM16.3117 16.3118C13.5274 19.0938 9.01798 19.0938 6.2336 16.3118C3.45157 13.5274 3.45157 9.01801 6.2336 6.23363C9.01798 3.4516 13.5274 3.4516 16.3117 6.23363C19.0938 9.01801 19.0938 13.5274 16.3117 16.3118Z" fill="#282A3C" fill-opacity="0.45"/>
</svg>
